<?xml version="1.0" encoding="utf-8"?>
<!-- Generator: Adobe Illustrator 25.2.0, SVG Export Plug-In . SVG Version: 6.00 Build 0)  -->
<svg version="1.1" id="Layer_1" xmlns="http://www.w3.org/2000/svg" xmlns:xlink="http://www.w3.org/1999/xlink" x="0px" y="0px"
	 viewBox="0 0 964 420" style="enable-background:new 0 0 964 420;" xml:space="preserve">
<style type="text/css">
	.st0{fill:#0055B8;}
	.st1{fill-rule:evenodd;clip-rule:evenodd;fill:#0055B8;}
</style>
<g>
	<g>
		<path class="st0" d="M292.93,262.35l-0.68-0.6v-3.89l0.68-0.61c3.66-0.05,6.01-0.24,7.05-0.55c1.05-0.34,2-0.98,2.81-1.96
			c0.83-0.98,2.49-4.15,4.99-9.56l7.87-17.1l20.41-46.21c3.85-9.06,7.68-18.1,11.48-27.16h4.88l32.02,75.32l4.28,10.06
			c1.25,2.84,2.69,5.95,4.31,9.31c1.63,3.34,2.75,5.31,3.37,5.91c0.63,0.6,1.41,1.06,2.34,1.4c0.92,0.31,2.99,0.5,6.18,0.55
			l0.6,0.61v3.89l-0.6,0.6c-5.3-0.45-10.07-0.68-14.33-0.68c-8.3,0.26-16.61,0.47-24.91,0.68l-0.58-0.6v-3.89l0.58-0.61
			c5.6-0.1,9.11-0.35,10.5-0.71c1.4-0.37,2.11-1.24,2.11-2.58c0-1.11-0.35-2.55-1.06-4.36l-9.21-22.87h-43.45l-8.17,19.2
			c-1.44,3.47-2.17,5.98-2.17,7.57c0,1.26,0.68,2.18,2.01,2.79c1.36,0.6,4.75,0.92,10.21,0.97l0.68,0.61v3.89l-0.61,0.6
			c-6.43-0.4-12.08-0.6-16.95-0.6C304.08,261.75,298.53,261.95,292.93,262.35z M327.14,220.26h37.97l-18.85-45.23L327.14,220.26z"/>
	</g>
	<rect x="443.67" y="125.9" class="st0" width="4" height="168.19"/>
	<path class="st1" d="M216.62,160.61v-4.82c7.89,0.31,14.6,0.46,20.11,0.46c3.93,0,10.93-0.09,21.01-0.29
		c10.11-0.2,16.92-0.31,20.48-0.31c3.76,0,7.26,0.05,10.37,0.14c3.18,0.05,6.05,0.18,8.59,0.39c-1.32,4.27-2.13,11.91-2.5,22.89
		h-4.91c-0.49-6.1-1.13-10.76-1.96-14.07c-2.72-0.9-6.08-1.54-10.08-1.96c-3.94-0.44-8.56-0.69-13.82-0.69s-10.68,0.3-16.32,0.92
		c-0.31,2.72-0.52,5.27-0.63,7.62c-0.05,1.37-0.18,7.14-0.39,17.31v16.76c5.83,0.15,11,0.24,15.47,0.24
		c6.62,0,11.89-0.33,15.85-0.99c1.52-0.25,2.49-0.65,2.88-1.2c0.49-0.6,0.98-2.74,1.5-6.42l0.62-4.7h4.93l-0.56,17.24l0.56,18.5
		h-4.93l-0.54-4.82c-0.57-5.5-0.96-8.43-1.25-8.85c-0.41-0.7-1.41-1.24-2.96-1.58c-2.95-0.64-9.71-0.98-20.15-0.99
		c-3.68,0-7.48,0.12-11.4,0.32v15.26c0,6.85,0.12,13.53,0.33,20.02c0.1,4.78,0.43,7.63,1.01,8.55c0.61,0.9,1.62,1.58,2.98,2.02
		c1.35,0.41,5.1,0.67,11.24,0.76v4.85c-6.61-0.42-13.2-0.62-19.76-0.62c-5.87,0-14.46,0.2-25.74,0.62v-4.85
		c6.12-0.09,9.87-0.35,11.22-0.76c1.35-0.43,2.28-1.05,2.8-1.81c0.64-1.01,1.01-3.44,1.18-7.31c0.06-1.08,0.14-8.22,0.3-21.47
		v-34.99c0-6.83-0.07-13.55-0.23-20.1c-0.16-4.78-0.54-7.59-1.17-8.46c-0.57-0.91-1.54-1.56-2.88-1.96
		C226.54,161.01,222.79,160.73,216.62,160.61 M116.77,160.61v-4.82c7.91,0.31,14.64,0.46,20.14,0.46c3.9,0,10.91-0.09,21.01-0.29
		c10.1-0.2,16.91-0.31,20.45-0.31c3.81,0,7.24,0.05,10.4,0.14c3.17,0.05,6.03,0.18,8.58,0.39c-1.29,4.27-2.13,11.91-2.51,22.89
		h-4.92c-0.45-6.1-1.12-10.76-1.93-14.07c-2.72-0.9-6.09-1.54-10.1-1.96c-3.93-0.44-8.55-0.69-13.81-0.69
		c-5.26,0-10.7,0.3-16.31,0.92c-0.31,2.72-0.54,5.27-0.63,7.62c-0.07,1.37-0.22,7.14-0.39,17.31v16.76
		c5.83,0.15,10.98,0.24,15.45,0.24c6.61,0,11.89-0.33,15.86-0.99c1.51-0.25,2.47-0.65,2.88-1.2c0.5-0.6,0.95-2.74,1.48-6.42
		l0.64-4.7h4.92l-0.54,17.24l0.54,18.5h-4.92l-0.56-4.82c-0.58-5.5-0.98-8.43-1.25-8.85c-0.41-0.7-1.4-1.24-2.96-1.58
		c-2.98-0.64-9.69-0.98-20.15-0.99c-3.68,0-7.49,0.12-11.39,0.32v15.26c0,6.85,0.11,13.53,0.31,20.02c0.11,4.78,0.42,7.63,0.99,8.55
		c0.65,0.9,1.63,1.58,2.99,2.02c1.34,0.41,5.1,0.67,11.24,0.76v4.85c-6.62-0.42-13.18-0.62-19.75-0.62c-5.91,0-14.49,0.2-25.77,0.62
		v-4.85c6.14-0.09,9.88-0.35,11.24-0.76c1.36-0.43,2.28-1.05,2.81-1.81c0.63-1.01,1-3.44,1.17-7.31c0.05-1.08,0.15-8.22,0.33-21.47
		v-34.99c0-6.83-0.08-13.55-0.24-20.1c-0.16-4.78-0.56-7.59-1.17-8.46c-0.58-0.91-1.54-1.56-2.89-1.96
		C126.71,161.01,122.95,160.73,116.77,160.61"/>
	<g>
		<path class="st0" d="M501.16,261.97l0.07-0.07h0.38l0.07,0.07c0.01,0.67,0.04,1.07,0.1,1.22c0.04,0.15,0.19,0.3,0.43,0.46
			c0.23,0.17,0.54,0.31,0.95,0.41c0.38,0.11,0.79,0.15,1.18,0.15c0.56,0,1.05-0.1,1.51-0.29c0.42-0.2,0.76-0.51,1-0.9
			c0.25-0.4,0.38-0.85,0.38-1.33c0-0.35-0.07-0.65-0.18-0.9c-0.12-0.25-0.29-0.46-0.49-0.61c-0.22-0.16-0.45-0.26-0.72-0.34
			c-0.29-0.08-0.68-0.16-1.22-0.26c-0.52-0.07-0.94-0.16-1.24-0.22c-0.29-0.07-0.58-0.18-0.87-0.31c-0.3-0.13-0.54-0.33-0.75-0.54
			c-0.18-0.21-0.34-0.48-0.46-0.8c-0.11-0.32-0.18-0.66-0.18-1.01c0-0.96,0.35-1.78,1.03-2.41c0.67-0.63,1.58-0.94,2.73-0.94
			c0.44,0,0.95,0.07,1.47,0.17c0.56,0.12,1.03,0.28,1.48,0.5l0.04,0.09c-0.12,0.49-0.19,1.17-0.2,2.05l-0.08,0.07h-0.41l-0.05-0.05
			c-0.01-0.63-0.04-1.02-0.04-1.19c-0.03-0.16-0.27-0.35-0.73-0.59c-0.44-0.26-0.92-0.37-1.47-0.37c-0.45,0-0.84,0.1-1.24,0.28
			c-0.39,0.18-0.68,0.45-0.88,0.82c-0.21,0.39-0.3,0.78-0.3,1.18c0,0.29,0.05,0.58,0.16,0.81c0.14,0.24,0.3,0.43,0.49,0.56
			c0.19,0.14,0.41,0.25,0.65,0.3c0.27,0.08,0.72,0.16,1.42,0.26c0.92,0.12,1.58,0.28,1.98,0.47c0.44,0.19,0.78,0.48,1.03,0.88
			c0.24,0.39,0.37,0.89,0.37,1.45c0,1.1-0.44,2.04-1.36,2.77c-0.9,0.75-2,1.12-3.28,1.12c-1.09,0-2.05-0.2-2.85-0.58l-0.04-0.11
			C501.09,263.93,501.14,263.18,501.16,261.97z"/>
		<path class="st0" d="M512.72,259.26c0-0.78,0.11-1.51,0.32-2.2c0.23-0.67,0.61-1.3,1.16-1.88c0.54-0.58,1.2-1.03,1.96-1.34
			c0.75-0.32,1.62-0.48,2.58-0.48c1.78,0,3.21,0.49,4.25,1.46c1.06,0.97,1.58,2.3,1.58,3.97c0,1.18-0.26,2.24-0.76,3.17
			c-0.52,0.94-1.26,1.67-2.24,2.2c-0.95,0.52-2.04,0.78-3.23,0.78c-0.86,0-1.64-0.14-2.35-0.43c-0.71-0.29-1.33-0.72-1.82-1.28
			c-0.52-0.56-0.88-1.21-1.1-1.96C512.82,260.55,512.72,259.88,512.72,259.26z M514.34,258.75c0,0.63,0.08,1.32,0.3,2.05
			c0.22,0.74,0.52,1.36,0.93,1.89c0.42,0.53,0.88,0.91,1.43,1.17c0.54,0.26,1.16,0.39,1.82,0.39c0.81,0,1.54-0.19,2.16-0.57
			c0.64-0.37,1.13-0.94,1.44-1.71c0.33-0.79,0.5-1.67,0.5-2.63c0-1.06-0.21-2.01-0.57-2.86c-0.37-0.85-0.91-1.47-1.6-1.86
			c-0.69-0.37-1.47-0.58-2.31-0.58c-1.26,0-2.26,0.39-3,1.2C514.7,256.02,514.34,257.19,514.34,258.75z"/>
		<path class="st0" d="M539.24,263.34l-0.3,0.72c-1.17,0.59-2.39,0.89-3.71,0.89c-1.89,0-3.41-0.54-4.6-1.61
			c-1.18-1.06-1.78-2.46-1.78-4.2c0-1.19,0.3-2.23,0.9-3.12c0.57-0.9,1.36-1.56,2.32-2c0.95-0.44,2.04-0.66,3.23-0.66
			c0.71,0,1.39,0.07,2.07,0.22c0.68,0.15,1.25,0.32,1.7,0.53l0.05,0.07c-0.12,0.3-0.22,1.02-0.34,2.16l-0.04,0.07h-0.38l-0.05-0.07
			l-0.09-1.33c-0.37-0.3-0.83-0.52-1.37-0.7c-0.54-0.18-1.1-0.26-1.67-0.26c-0.9,0-1.7,0.19-2.39,0.58
			c-0.69,0.37-1.24,0.92-1.62,1.64c-0.39,0.72-0.58,1.59-0.58,2.64c0,1.04,0.22,1.97,0.68,2.74c0.46,0.79,1.07,1.4,1.86,1.82
			c0.79,0.42,1.7,0.63,2.74,0.63c0.46,0,0.92-0.05,1.35-0.12c0.42-0.1,0.79-0.21,1.07-0.33c0.29-0.14,0.56-0.3,0.81-0.48
			L539.24,263.34z"/>
		<path class="st0" d="M543.51,253.6l0.98,0.03c0.65,0.02,1.06,0.03,1.26,0.03c0.19,0,0.94-0.01,2.24-0.05l0.05,0.05v0.39L548,254.1
			c-0.34,0.01-0.64,0.03-0.83,0.04c-0.19,0.01-0.33,0.05-0.42,0.12c-0.1,0.06-0.15,0.2-0.18,0.4c-0.01,0.21-0.05,0.5-0.05,0.88v1.81
			v3.61v1.53c0,0.61,0.03,0.98,0.05,1.15c0.01,0.16,0.07,0.29,0.11,0.35c0.04,0.05,0.15,0.1,0.29,0.14
			c0.15,0.04,0.49,0.07,1.03,0.08l0.05,0.05v0.39l-0.05,0.07c0,0-0.47-0.02-1.36-0.05c-0.38,0-0.68-0.02-0.88-0.02
			c-0.16,0-0.9,0.03-2.24,0.07l-0.05-0.07v-0.39l0.05-0.05c0.5-0.01,0.81-0.03,0.98-0.07c0.16-0.03,0.26-0.07,0.33-0.12
			c0.05-0.04,0.11-0.16,0.13-0.31c0.03-0.16,0.05-0.53,0.05-1.09l0.01-1.66v-3.61l-0.01-1.54c-0.01-0.59-0.03-0.96-0.04-1.14
			c-0.03-0.18-0.07-0.29-0.12-0.35c-0.05-0.06-0.15-0.1-0.29-0.13c-0.14-0.04-0.49-0.07-1.05-0.08l-0.05-0.07v-0.39L543.51,253.6z"
			/>
		<path class="st0" d="M552.4,253.65l0.07-0.05c1.79,0.03,2.92,0.04,3.43,0.04c1.72,0,3.25-0.01,4.58-0.04l0.03,0.05
			c-0.12,0.5-0.21,1.3-0.29,2.37l-0.03,0.05h-0.38l-0.08-0.05c0-0.05,0-0.09,0-0.12c0-0.46-0.03-0.88-0.1-1.28
			c-0.32-0.15-0.79-0.24-1.37-0.29c-0.57-0.03-1.02-0.06-1.32-0.06c-0.39,0-0.93,0.03-1.58,0.09l-0.03,1.26l-0.01,1.43l-0.04,1.59
			c0.57,0.03,1.09,0.05,1.58,0.05c0.47,0,0.88-0.02,1.2-0.05c0.33-0.04,0.5-0.07,0.57-0.11c0.07-0.04,0.1-0.1,0.12-0.19
			c0.03-0.11,0.04-0.26,0.08-0.5l0.03-0.5l0.07-0.05h0.35l0.07,0.05c-0.02,0.59-0.03,1.15-0.04,1.73l0.04,1.75l-0.07,0.07h-0.35
			l-0.07-0.07l-0.07-0.46c-0.03-0.37-0.07-0.59-0.1-0.65c0-0.07-0.07-0.14-0.13-0.19c-0.07-0.05-0.27-0.08-0.59-0.12
			c-0.31-0.04-0.75-0.04-1.29-0.04c-0.31,0-0.78,0-1.4,0.03c-0.01,0.44-0.03,1.18-0.03,2.2c0,1.1,0.02,1.9,0.03,2.43h1.46
			c1.26,0,2.05-0.02,2.38-0.05c0.31-0.03,0.61-0.11,0.91-0.22c0.04-0.12,0.12-0.41,0.23-0.84c0.11-0.43,0.16-0.71,0.18-0.81
			l0.07-0.05h0.39l0.07,0.05c-0.05,0.23-0.11,0.62-0.15,1.18c-0.04,0.54-0.05,1.02-0.05,1.43l-0.05,0.07
			c-1.01-0.04-2.31-0.05-3.93-0.05l-2.13-0.02c-0.49,0-1,0.03-1.54,0.07l-0.07-0.07v-0.26l0.07-0.08c0.3-0.15,0.48-0.25,0.52-0.3
			c0.05-0.03,0.08-0.49,0.11-1.36c0.04-0.88,0.04-1.54,0.04-2v-2.87v-1.77c0-0.39,0-0.71-0.01-0.95c-0.01-0.24-0.03-0.41-0.05-0.52
			c-0.03-0.11-0.07-0.16-0.1-0.22c-0.03-0.03-0.08-0.07-0.16-0.1c-0.08-0.04-0.2-0.07-0.39-0.08l-0.59-0.04l-0.07-0.07V253.65z"/>
		<path class="st0" d="M565.23,253.65l0.07-0.05c0.9,0.04,1.52,0.05,1.85,0.05l3.67-0.07c1.03,0,1.89,0.09,2.57,0.3
			c0.66,0.2,1.26,0.54,1.77,1c0.52,0.5,0.93,1.06,1.2,1.7c0.27,0.64,0.39,1.32,0.39,2.05c0,0.71-0.12,1.39-0.37,2.09
			c-0.25,0.69-0.59,1.29-1.06,1.84c-0.43,0.55-0.95,0.99-1.52,1.33c-0.58,0.33-1.15,0.56-1.74,0.67c-0.57,0.12-1.17,0.18-1.77,0.18
			c-0.41,0-1.18-0.02-2.31-0.05c-0.38,0-0.63-0.02-0.73-0.02c-0.35,0-0.8,0.03-1.32,0.07l-0.07-0.07v-0.26l0.07-0.08
			c0.32-0.15,0.49-0.25,0.53-0.3c0.04-0.03,0.08-0.49,0.11-1.36c0.03-0.88,0.05-1.54,0.05-2v-2.87v-1.77c0-0.39,0-0.71-0.03-0.95
			c-0.01-0.24-0.04-0.41-0.07-0.52c-0.01-0.11-0.05-0.16-0.08-0.22c-0.03-0.03-0.08-0.07-0.15-0.1c-0.1-0.04-0.22-0.07-0.39-0.08
			l-0.6-0.04l-0.07-0.07V253.65z M568.14,263.86c0.52,0.12,1.14,0.16,1.82,0.16c1.23,0,2.2-0.2,2.93-0.61
			c0.72-0.41,1.25-1.01,1.63-1.79c0.36-0.82,0.53-1.7,0.53-2.7c0-1.48-0.38-2.64-1.18-3.45c-0.78-0.81-2.03-1.21-3.72-1.21
			c-0.69,0-1.37,0.04-2.01,0.15c-0.05,0.86-0.07,1.82-0.07,2.89v2.47l0.01,2.29C568.08,262.51,568.09,263.11,568.14,263.86z"/>
		<path class="st0" d="M581.11,264.73l-0.05-0.07v-0.41l0.05-0.07c0.39,0,0.61-0.02,0.73-0.05c0.12-0.02,0.22-0.11,0.3-0.21
			c0.1-0.1,0.26-0.44,0.53-0.99l0.81-1.79l2.13-4.82c0.41-0.94,0.8-1.89,1.2-2.83h0.5l3.34,7.85l0.45,1.05
			c0.13,0.3,0.29,0.63,0.46,0.98c0.16,0.35,0.27,0.56,0.34,0.62c0.07,0.06,0.15,0.12,0.24,0.14c0.1,0.03,0.31,0.05,0.64,0.05
			l0.08,0.07v0.41l-0.08,0.07c-0.54-0.05-1.04-0.08-1.49-0.08c-0.86,0.04-1.71,0.06-2.58,0.08l-0.07-0.07v-0.41l0.07-0.07
			c0.57,0,0.95-0.04,1.07-0.07c0.16-0.04,0.23-0.13,0.23-0.27c0-0.12-0.04-0.26-0.11-0.45l-0.96-2.39h-4.54l-0.86,2
			c-0.14,0.37-0.22,0.64-0.22,0.8c0,0.13,0.07,0.22,0.2,0.28c0.15,0.06,0.5,0.1,1.07,0.1l0.07,0.07v0.41l-0.07,0.07
			c-0.67-0.04-1.25-0.07-1.75-0.07C582.28,264.66,581.71,264.69,581.11,264.73z M584.69,260.33h3.97l-1.96-4.72L584.69,260.33z"/>
		<path class="st0" d="M596.85,253.65l0.07-0.05c0.91,0.04,1.52,0.05,1.84,0.05l3.68-0.07c1.03,0,1.89,0.09,2.55,0.3
			c0.68,0.2,1.26,0.54,1.79,1c0.5,0.5,0.93,1.06,1.18,1.7c0.27,0.64,0.41,1.32,0.41,2.05c0,0.71-0.12,1.39-0.37,2.09
			c-0.24,0.69-0.6,1.29-1.05,1.84c-0.46,0.55-0.96,0.99-1.55,1.33c-0.57,0.33-1.15,0.56-1.74,0.67c-0.57,0.12-1.17,0.18-1.78,0.18
			c-0.39,0-1.17-0.02-2.3-0.05c-0.37,0-0.63-0.02-0.73-0.02c-0.37,0-0.8,0.03-1.32,0.07l-0.05-0.07v-0.26l0.05-0.08
			c0.33-0.15,0.5-0.25,0.53-0.3c0.04-0.03,0.1-0.49,0.11-1.36c0.06-0.88,0.06-1.54,0.06-2v-2.87v-1.77c0-0.39,0-0.71-0.03-0.95
			c-0.01-0.24-0.03-0.41-0.05-0.52c-0.04-0.11-0.05-0.16-0.09-0.22c-0.03-0.03-0.08-0.07-0.18-0.1c-0.05-0.04-0.19-0.07-0.37-0.08
			l-0.6-0.04l-0.07-0.07V253.65z M599.76,263.86c0.53,0.12,1.14,0.16,1.83,0.16c1.22,0,2.19-0.2,2.92-0.61
			c0.73-0.41,1.28-1.01,1.63-1.79c0.35-0.82,0.54-1.7,0.54-2.7c0-1.48-0.41-2.64-1.2-3.45c-0.78-0.81-2.02-1.21-3.72-1.21
			c-0.69,0-1.37,0.04-2.01,0.15c-0.04,0.86-0.07,1.82-0.07,2.89v2.47l0.03,2.29C599.72,262.51,599.72,263.11,599.76,263.86z"/>
		<path class="st0" d="M612.98,253.65l0.07-0.05c1.78,0.03,2.92,0.04,3.44,0.04c1.7,0,3.23-0.01,4.58-0.04l0.03,0.05
			c-0.15,0.5-0.23,1.3-0.3,2.37l-0.05,0.05h-0.37l-0.07-0.05c0-0.05,0-0.09,0-0.12c0-0.46-0.02-0.88-0.11-1.28
			c-0.31-0.15-0.77-0.24-1.36-0.29c-0.58-0.03-1.01-0.06-1.3-0.06c-0.42,0-0.94,0.03-1.59,0.09l-0.03,1.26l-0.03,1.43l-0.01,1.59
			c0.57,0.03,1.09,0.05,1.55,0.05c0.48,0,0.88-0.02,1.21-0.05c0.32-0.04,0.52-0.07,0.57-0.11c0.04-0.04,0.1-0.1,0.12-0.19
			c0.01-0.11,0.04-0.26,0.08-0.5l0.03-0.5l0.05-0.05h0.35l0.07,0.05c0,0.59-0.01,1.15-0.03,1.73l0.03,1.75l-0.07,0.07h-0.35
			l-0.05-0.07l-0.07-0.46c-0.04-0.37-0.08-0.59-0.1-0.65c-0.03-0.07-0.07-0.14-0.14-0.19c-0.08-0.05-0.29-0.08-0.58-0.12
			c-0.31-0.04-0.75-0.04-1.29-0.04c-0.3,0-0.78,0-1.39,0.03c-0.04,0.44-0.05,1.18-0.05,2.2c0,1.1,0.01,1.9,0.05,2.43h1.44
			c1.25,0,2.05-0.02,2.38-0.05c0.31-0.03,0.63-0.11,0.9-0.22c0.05-0.12,0.13-0.41,0.24-0.84c0.1-0.43,0.18-0.71,0.18-0.81l0.08-0.05
			h0.37l0.07,0.05c-0.05,0.23-0.09,0.62-0.14,1.18c-0.05,0.54-0.07,1.02-0.07,1.43l-0.05,0.07c-0.98-0.04-2.3-0.05-3.91-0.05
			l-2.15-0.02c-0.48,0-0.99,0.03-1.54,0.07l-0.05-0.07v-0.26l0.05-0.08c0.31-0.15,0.49-0.25,0.54-0.3c0.03-0.03,0.07-0.49,0.11-1.36
			c0.01-0.88,0.04-1.54,0.04-2v-2.87v-1.77c0-0.39-0.03-0.71-0.04-0.95c0-0.24-0.03-0.41-0.04-0.52c-0.03-0.11-0.07-0.16-0.1-0.22
			c-0.04-0.03-0.09-0.07-0.16-0.1c-0.08-0.04-0.2-0.07-0.39-0.08l-0.59-0.04l-0.07-0.07V253.65z"/>
		<path class="st0" d="M633.19,253.65l0.07-0.05c0.9,0.04,1.52,0.05,1.85,0.05l3.67-0.07c1.03,0,1.89,0.09,2.56,0.3
			c0.68,0.2,1.26,0.54,1.78,1c0.52,0.5,0.92,1.06,1.2,1.7c0.26,0.64,0.39,1.32,0.39,2.05c0,0.71-0.11,1.39-0.37,2.09
			c-0.24,0.69-0.6,1.29-1.03,1.84c-0.47,0.55-0.98,0.99-1.55,1.33c-0.59,0.33-1.16,0.56-1.75,0.67c-0.57,0.12-1.17,0.18-1.77,0.18
			c-0.41,0-1.17-0.02-2.29-0.05c-0.37,0-0.63-0.02-0.75-0.02c-0.35,0-0.79,0.03-1.3,0.07l-0.07-0.07v-0.26l0.07-0.08
			c0.31-0.15,0.49-0.25,0.53-0.3c0.04-0.03,0.08-0.49,0.11-1.36c0.03-0.88,0.05-1.54,0.05-2v-2.87l-0.03-1.77
			c0-0.39,0-0.71-0.01-0.95c0-0.24-0.03-0.41-0.05-0.52c-0.03-0.11-0.04-0.16-0.08-0.22c-0.03-0.03-0.09-0.07-0.18-0.1
			c-0.07-0.04-0.19-0.07-0.38-0.08l-0.58-0.04l-0.07-0.07V253.65z M636.09,263.86c0.53,0.12,1.14,0.16,1.85,0.16
			c1.21,0,2.19-0.2,2.92-0.61c0.72-0.41,1.27-1.01,1.62-1.79c0.35-0.82,0.54-1.7,0.54-2.7c0-1.48-0.41-2.64-1.18-3.45
			c-0.79-0.81-2.03-1.21-3.72-1.21c-0.69,0-1.37,0.04-2.02,0.15c-0.04,0.86-0.05,1.82-0.05,2.89v2.47l0.01,2.29
			C636.05,262.51,636.06,263.11,636.09,263.86z"/>
		<path class="st0" d="M649.31,253.65l0.07-0.05c1.78,0.03,2.92,0.04,3.43,0.04c1.71,0,3.25-0.01,4.59-0.04l0.03,0.05
			c-0.12,0.5-0.23,1.3-0.29,2.37l-0.04,0.05h-0.39l-0.07-0.05c0-0.05,0-0.09,0-0.12c0-0.46-0.04-0.88-0.09-1.28
			c-0.33-0.15-0.79-0.24-1.39-0.29c-0.56-0.03-1.01-0.06-1.29-0.06c-0.42,0-0.96,0.03-1.57,0.09l-0.04,1.26l-0.03,1.43l-0.01,1.59
			c0.56,0.03,1.07,0.05,1.56,0.05c0.46,0,0.87-0.02,1.2-0.05c0.31-0.04,0.52-0.07,0.56-0.11c0.05-0.04,0.11-0.1,0.15-0.19
			c0.03-0.11,0.04-0.26,0.05-0.5l0.03-0.5l0.07-0.05h0.37l0.07,0.05c0,0.59-0.03,1.15-0.04,1.73l0.04,1.75l-0.07,0.07h-0.37
			l-0.07-0.07l-0.04-0.46c-0.04-0.37-0.08-0.59-0.12-0.65c-0.01-0.07-0.05-0.14-0.14-0.19c-0.07-0.05-0.26-0.08-0.57-0.12
			c-0.31-0.04-0.75-0.04-1.3-0.04c-0.3,0-0.76,0-1.37,0.03c-0.03,0.44-0.05,1.16-0.05,2.2c0,1.1,0.03,1.9,0.05,2.43h1.44
			c1.26,0,2.05-0.02,2.38-0.05c0.31-0.03,0.61-0.11,0.9-0.22c0.05-0.12,0.14-0.41,0.25-0.84c0.11-0.43,0.15-0.71,0.18-0.81
			l0.08-0.05h0.38l0.07,0.05c-0.07,0.23-0.11,0.62-0.15,1.18c-0.04,0.54-0.07,1.02-0.07,1.43l-0.05,0.07
			c-1.01-0.04-2.3-0.05-3.91-0.05l-2.12-0.02c-0.5,0-1.03,0.03-1.55,0.07l-0.07-0.07v-0.26l0.07-0.08c0.3-0.15,0.47-0.25,0.52-0.3
			c0.05-0.03,0.08-0.49,0.1-1.36c0.05-0.88,0.07-1.54,0.07-2v-2.87l-0.01-1.77c0-0.39,0-0.71-0.01-0.95
			c-0.01-0.24-0.04-0.41-0.07-0.52c-0.01-0.11-0.07-0.16-0.08-0.22c-0.06-0.03-0.1-0.07-0.16-0.1c-0.09-0.04-0.2-0.07-0.38-0.08
			l-0.6-0.04l-0.07-0.07V253.65z"/>
		<path class="st0" d="M669.63,264.73l-0.07-0.07v-0.41l0.07-0.07c0.38,0,0.64-0.02,0.73-0.05c0.11-0.02,0.22-0.11,0.3-0.21
			c0.08-0.1,0.26-0.44,0.52-0.99l0.83-1.79l2.12-4.82c0.41-0.94,0.8-1.89,1.21-2.83h0.5l3.34,7.85l0.45,1.05
			c0.13,0.3,0.29,0.63,0.45,0.98c0.18,0.35,0.3,0.56,0.35,0.62c0.07,0.06,0.13,0.12,0.24,0.14c0.1,0.03,0.31,0.05,0.64,0.05
			l0.07,0.07v0.41l-0.07,0.07c-0.54-0.05-1.04-0.08-1.48-0.08c-0.87,0.04-1.74,0.06-2.61,0.08l-0.05-0.07v-0.41l0.05-0.07
			c0.58,0,0.95-0.04,1.1-0.07c0.15-0.04,0.22-0.13,0.22-0.27c0-0.12-0.04-0.26-0.12-0.45l-0.94-2.39h-4.55l-0.84,2
			c-0.16,0.37-0.23,0.64-0.23,0.8c0,0.13,0.07,0.22,0.21,0.28c0.15,0.06,0.5,0.1,1.07,0.1l0.07,0.07v0.41l-0.07,0.07
			c-0.66-0.04-1.26-0.07-1.77-0.07C670.8,264.66,670.21,264.69,669.63,264.73z M673.2,260.33h3.97l-1.97-4.72L673.2,260.33z"/>
		<path class="st0" d="M685.36,253.65l0.07-0.05c0.9,0.04,1.51,0.05,1.85,0.05l3.66-0.07c1.06,0,1.9,0.09,2.57,0.3
			c0.67,0.2,1.26,0.54,1.79,1c0.52,0.5,0.89,1.06,1.17,1.7c0.29,0.64,0.41,1.32,0.41,2.05c0,0.71-0.12,1.39-0.37,2.09
			c-0.25,0.69-0.6,1.29-1.05,1.84c-0.45,0.55-0.97,0.99-1.54,1.33c-0.57,0.33-1.15,0.56-1.72,0.67c-0.59,0.12-1.18,0.18-1.79,0.18
			c-0.41,0-1.17-0.02-2.3-0.05c-0.37,0-0.63-0.02-0.73-0.02c-0.38,0-0.8,0.03-1.3,0.07l-0.08-0.07v-0.26l0.08-0.08
			c0.3-0.15,0.47-0.25,0.52-0.3c0.05-0.03,0.08-0.49,0.12-1.36c0.01-0.88,0.03-1.54,0.03-2v-2.87v-1.77c0-0.39-0.02-0.71-0.02-0.95
			c-0.01-0.24-0.03-0.41-0.05-0.52c-0.03-0.11-0.07-0.16-0.1-0.22c-0.03-0.03-0.09-0.07-0.16-0.1c-0.07-0.04-0.21-0.07-0.39-0.08
			l-0.59-0.04l-0.07-0.07V253.65z M688.26,263.86c0.54,0.12,1.16,0.16,1.85,0.16c1.21,0,2.19-0.2,2.91-0.61
			c0.73-0.41,1.28-1.01,1.64-1.79c0.35-0.82,0.54-1.7,0.54-2.7c0-1.48-0.41-2.64-1.2-3.45c-0.79-0.81-2.01-1.21-3.74-1.21
			c-0.68,0-1.37,0.04-2.01,0.15c-0.04,0.86-0.05,1.82-0.05,2.89v2.47l0.02,2.29C688.22,262.51,688.23,263.11,688.26,263.86z"/>
		<path class="st0" d="M706.31,264.8c-0.08-0.23-0.41-1.1-0.98-2.64l-2.66-6.58c-0.31-0.75-0.49-1.18-0.57-1.28
			c-0.08-0.11-0.38-0.17-0.94-0.21l-0.07-0.07v-0.36l0.07-0.07c0.79,0.04,1.47,0.05,2.03,0.05c0.53,0,1.22-0.01,2.09-0.05l0.05,0.05
			v0.44l-0.05,0.05c-0.65,0-1.02,0.01-1.14,0.07c-0.12,0.04-0.19,0.11-0.19,0.22c0,0.07,0.08,0.35,0.26,0.84
			c0.16,0.49,0.31,0.91,0.45,1.24l2.45,6.2l2.04-5.14c0.15-0.35,0.35-0.91,0.63-1.68c0.27-0.79,0.41-1.25,0.41-1.41
			c0-0.14-0.05-0.22-0.19-0.24c-0.14-0.05-0.52-0.1-1.15-0.14l-0.07-0.07v-0.38l0.07-0.05c0.91,0.04,1.49,0.05,1.74,0.05
			c0.2,0,0.73-0.01,1.59-0.05l0.07,0.05v0.38l-0.07,0.07c-0.38,0.01-0.58,0.04-0.68,0.08c-0.07,0.04-0.15,0.12-0.21,0.23
			c-0.05,0.12-0.24,0.54-0.57,1.25l-2.43,6.01c-0.55,1.35-0.94,2.39-1.17,3.13H706.31z"/>
		<path class="st0" d="M716.24,259.26c0-0.78,0.11-1.51,0.35-2.2c0.22-0.67,0.6-1.31,1.14-1.88c0.53-0.58,1.18-1.03,1.95-1.34
			c0.77-0.32,1.63-0.48,2.6-0.48c1.77,0,3.19,0.49,4.24,1.46c1.06,0.97,1.59,2.3,1.59,3.97c0,1.18-0.26,2.24-0.79,3.17
			c-0.5,0.94-1.25,1.67-2.2,2.2c-0.98,0.52-2.07,0.78-3.25,0.78c-0.87,0-1.64-0.14-2.37-0.43c-0.69-0.29-1.33-0.72-1.82-1.28
			c-0.52-0.56-0.87-1.21-1.09-1.96C716.35,260.55,716.24,259.88,716.24,259.26z M717.87,258.75c0,0.63,0.09,1.32,0.3,2.05
			c0.23,0.74,0.53,1.36,0.92,1.89c0.42,0.53,0.9,0.91,1.43,1.17c0.54,0.26,1.14,0.39,1.83,0.39c0.81,0,1.54-0.19,2.16-0.57
			c0.62-0.37,1.11-0.94,1.44-1.71c0.33-0.79,0.5-1.67,0.5-2.63c0-1.06-0.19-2.01-0.57-2.86c-0.39-0.85-0.91-1.47-1.62-1.86
			c-0.69-0.37-1.45-0.58-2.32-0.58c-1.24,0-2.26,0.39-2.98,1.2C718.24,256.02,717.87,257.19,717.87,258.75z"/>
		<path class="st0" d="M743.57,260.38v0.24l-0.01,0.1l-0.38,0.22c-0.11,0.06-0.15,0.1-0.18,0.14c-0.02,0.03-0.03,0.18-0.05,0.46
			c-0.03,0.27-0.05,0.61-0.05,1.02c0,0.46,0.05,0.95,0.09,1.48l-0.04,0.08c-1.43,0.54-2.91,0.82-4.42,0.82
			c-1.15,0-2.2-0.22-3.13-0.66c-0.94-0.44-1.69-1.09-2.24-1.95c-0.53-0.88-0.83-1.89-0.83-3.08c0-1.79,0.63-3.23,1.86-4.29
			c1.24-1.07,2.86-1.61,4.84-1.61c1.47,0,2.77,0.25,3.94,0.75l0.07,0.08c-0.09,0.34-0.22,1.07-0.35,2.2l-0.04,0.05h-0.38l-0.04-0.05
			l-0.04-0.84c-0.03-0.27-0.04-0.43-0.05-0.47c-0.03-0.04-0.08-0.11-0.18-0.18c-0.08-0.08-0.33-0.21-0.71-0.37
			c-0.39-0.16-0.8-0.29-1.2-0.35c-0.38-0.08-0.8-0.12-1.25-0.12c-0.95,0-1.8,0.2-2.54,0.6c-0.72,0.4-1.29,0.97-1.66,1.74
			c-0.37,0.75-0.57,1.6-0.57,2.53c0,0.96,0.2,1.86,0.61,2.69c0.39,0.82,0.98,1.48,1.73,1.93c0.75,0.46,1.63,0.71,2.62,0.71
			c0.45,0,0.88-0.05,1.33-0.14c0.45-0.1,0.81-0.2,1.11-0.37c0.04-0.16,0.08-0.5,0.08-1.01v-0.86c0-0.41-0.04-0.68-0.08-0.77
			c-0.07-0.1-0.18-0.17-0.38-0.21c-0.22-0.05-0.67-0.08-1.35-0.1l-0.08-0.07v-0.35l0.08-0.06l0.47,0.02
			c0.82,0.03,1.5,0.04,2.01,0.04c0.3,0,0.73-0.03,1.3-0.05L743.57,260.38z"/>
		<path class="st0" d="M747.8,264.73l-0.05-0.07v-0.41l0.05-0.07c0.38,0,0.63-0.02,0.73-0.05c0.12-0.02,0.2-0.11,0.29-0.21
			c0.09-0.1,0.27-0.44,0.53-0.99l0.83-1.79l2.12-4.82c0.42-0.94,0.82-1.89,1.21-2.83h0.5l3.35,7.85l0.45,1.05
			c0.12,0.3,0.27,0.63,0.45,0.98c0.18,0.35,0.3,0.56,0.36,0.62c0.07,0.06,0.15,0.12,0.24,0.14c0.11,0.03,0.31,0.05,0.65,0.05
			l0.05,0.07v0.41l-0.05,0.07c-0.56-0.05-1.06-0.08-1.51-0.08c-0.86,0.04-1.73,0.06-2.6,0.08l-0.05-0.07v-0.41l0.05-0.07
			c0.59,0,0.95-0.04,1.1-0.07c0.14-0.04,0.22-0.13,0.22-0.27c0-0.12-0.04-0.26-0.11-0.45l-0.96-2.39h-4.53l-0.87,2
			c-0.15,0.37-0.22,0.64-0.22,0.8c0,0.13,0.05,0.22,0.22,0.28c0.12,0.06,0.5,0.1,1.06,0.1l0.07,0.07v0.41l-0.07,0.07
			c-0.68-0.04-1.26-0.07-1.77-0.07C748.97,264.66,748.38,264.69,747.8,264.73z M751.37,260.33h3.97l-1.98-4.72L751.37,260.33z"/>
		<path class="st0" d="M763.54,253.65l0.07-0.05c0.89,0.04,1.51,0.05,1.85,0.05l3.65-0.07c1.05,0,1.9,0.09,2.57,0.3
			c0.67,0.2,1.26,0.54,1.78,1c0.53,0.5,0.92,1.06,1.2,1.7c0.27,0.64,0.39,1.32,0.39,2.05c0,0.71-0.11,1.39-0.37,2.09
			c-0.25,0.69-0.6,1.29-1.04,1.84c-0.46,0.55-0.98,0.99-1.55,1.33c-0.58,0.33-1.17,0.56-1.74,0.67c-0.57,0.12-1.17,0.18-1.78,0.18
			c-0.41,0-1.17-0.02-2.3-0.05c-0.38,0-0.63-0.02-0.75-0.02c-0.34,0-0.79,0.03-1.29,0.07l-0.08-0.07v-0.26l0.08-0.08
			c0.3-0.15,0.48-0.25,0.53-0.3c0.04-0.03,0.08-0.49,0.09-1.36c0.04-0.88,0.06-1.54,0.06-2v-2.87l-0.02-1.77
			c0-0.39,0-0.71-0.01-0.95c-0.01-0.24-0.03-0.41-0.05-0.52c-0.03-0.11-0.07-0.16-0.09-0.22c-0.04-0.03-0.08-0.07-0.16-0.1
			c-0.08-0.04-0.2-0.07-0.39-0.08l-0.58-0.04l-0.07-0.07V253.65z M766.43,263.86c0.53,0.12,1.15,0.16,1.85,0.16
			c1.21,0,2.17-0.2,2.92-0.61c0.72-0.41,1.26-1.01,1.63-1.79c0.35-0.82,0.54-1.7,0.54-2.7c0-1.48-0.41-2.64-1.2-3.45
			c-0.79-0.81-2.04-1.21-3.71-1.21c-0.72,0-1.39,0.04-2.04,0.15c-0.03,0.86-0.05,1.82-0.05,2.89v2.47l0.01,2.29
			C766.39,262.51,766.42,263.11,766.43,263.86z"/>
		<path class="st0" d="M779.46,259.26c0-0.78,0.12-1.51,0.33-2.2c0.25-0.67,0.61-1.31,1.16-1.88c0.53-0.58,1.21-1.03,1.96-1.34
			c0.76-0.32,1.62-0.48,2.6-0.48c1.77,0,3.18,0.49,4.24,1.46c1.04,0.97,1.58,2.3,1.58,3.97c0,1.18-0.27,2.24-0.77,3.17
			c-0.5,0.94-1.25,1.67-2.23,2.2c-0.95,0.52-2.04,0.78-3.25,0.78c-0.84,0-1.62-0.14-2.34-0.43c-0.71-0.29-1.32-0.72-1.82-1.28
			c-0.5-0.56-0.87-1.21-1.1-1.96C779.59,260.55,779.46,259.88,779.46,259.26z M781.1,258.75c0,0.63,0.11,1.32,0.3,2.05
			c0.22,0.74,0.5,1.36,0.94,1.89c0.41,0.53,0.88,0.91,1.41,1.17c0.53,0.26,1.14,0.39,1.83,0.39c0.79,0,1.52-0.19,2.15-0.57
			c0.64-0.37,1.12-0.94,1.46-1.71c0.33-0.79,0.49-1.67,0.49-2.63c0-1.06-0.19-2.01-0.57-2.86c-0.37-0.85-0.91-1.47-1.6-1.86
			c-0.69-0.37-1.47-0.58-2.3-0.58c-1.28,0-2.28,0.39-3.02,1.2C781.46,256.02,781.1,257.19,781.1,258.75z"/>
		<path class="st0" d="M795.69,261.97l0.05-0.07h0.37l0.07,0.07c0.04,0.67,0.07,1.07,0.12,1.22c0.04,0.15,0.18,0.3,0.41,0.46
			c0.25,0.17,0.56,0.31,0.97,0.41c0.38,0.11,0.79,0.15,1.2,0.15c0.54,0,1.05-0.1,1.48-0.29c0.45-0.2,0.79-0.51,1.05-0.9
			c0.23-0.4,0.36-0.85,0.36-1.33c0-0.35-0.07-0.65-0.17-0.9c-0.13-0.26-0.3-0.46-0.52-0.61c-0.22-0.16-0.45-0.26-0.72-0.34
			c-0.26-0.08-0.66-0.16-1.21-0.26c-0.53-0.07-0.92-0.16-1.22-0.22c-0.28-0.07-0.6-0.18-0.88-0.31c-0.29-0.13-0.53-0.33-0.73-0.54
			c-0.19-0.21-0.35-0.48-0.46-0.8c-0.12-0.32-0.16-0.66-0.16-1.01c0-0.96,0.31-1.78,0.99-2.41c0.69-0.63,1.6-0.94,2.75-0.94
			c0.45,0,0.94,0.07,1.48,0.17c0.54,0.12,1.02,0.28,1.47,0.5l0.06,0.09c-0.13,0.49-0.19,1.17-0.21,2.05l-0.08,0.07h-0.39l-0.08-0.05
			c-0.01-0.63-0.03-1.02-0.05-1.19c-0.02-0.16-0.26-0.35-0.71-0.59c-0.45-0.26-0.94-0.37-1.48-0.37c-0.45,0-0.84,0.1-1.24,0.28
			c-0.39,0.18-0.69,0.45-0.88,0.83c-0.19,0.38-0.3,0.77-0.3,1.18c0,0.29,0.07,0.58,0.18,0.81c0.12,0.24,0.29,0.43,0.46,0.56
			c0.19,0.14,0.42,0.25,0.68,0.3c0.26,0.08,0.71,0.16,1.4,0.26c0.91,0.12,1.58,0.28,2,0.47c0.42,0.19,0.75,0.48,1.02,0.88
			c0.24,0.39,0.38,0.89,0.38,1.45c0,1.1-0.46,2.04-1.36,2.77c-0.91,0.75-2.03,1.12-3.3,1.12c-1.06,0-2.03-0.2-2.84-0.58l-0.04-0.11
			C795.61,263.93,795.65,263.18,795.69,261.97z"/>
		<path class="st0" d="M806.74,266.92c0.33-0.54,0.56-0.94,0.71-1.23c0.15-0.26,0.26-0.54,0.37-0.85c0.09-0.3,0.16-0.52,0.2-0.7
			c0.04-0.16,0.08-0.49,0.15-1.01c0.03-0.01,0.18-0.04,0.43-0.1c0.38-0.09,0.76-0.21,1.17-0.37l0.19,0.22
			c-0.67,1.55-1.44,2.84-2.37,3.93l-0.65,0.29L806.74,266.92z"/>
		<path class="st0" d="M821.95,253.65l0.05-0.05c0.96,0.04,1.7,0.05,2.24,0.05c0.58,0,1.37-0.01,2.38-0.05
			c0.38-0.02,0.65-0.02,0.81-0.02c1.32,0,2.2,0.24,2.68,0.72c0.46,0.49,0.72,1.04,0.72,1.71c0,0.44-0.12,0.88-0.35,1.3
			c-0.23,0.42-0.57,0.78-1.03,1.07c-0.45,0.31-1.06,0.54-1.85,0.68c0.15,0.2,0.42,0.57,0.8,1.06l1.1,1.47c0.37,0.5,0.75,1,1.17,1.54
			c0.4,0.55,0.68,0.86,0.8,0.93c0.11,0.07,0.21,0.11,0.31,0.12c0.07,0.02,0.21,0.02,0.4,0.02l0.07,0.06v0.37l-0.07,0.07
			c-0.26-0.03-0.56-0.05-0.9-0.05c-0.38,0-0.77,0.02-1.22,0.05c-0.35-0.44-0.92-1.2-1.69-2.28c-0.9-1.26-1.82-2.41-2.76-3.48
			l0.08-0.24c0.27,0.02,0.47,0.02,0.62,0.02c0.91,0,1.6-0.21,2.13-0.65c0.5-0.44,0.75-1.03,0.75-1.79c0-0.69-0.22-1.21-0.67-1.56
			c-0.47-0.35-1.09-0.53-1.88-0.53c-0.55,0-1.06,0.07-1.55,0.23c-0.08,0.12-0.11,1.09-0.11,2.94v3.61v1.53
			c0,0.61,0.01,0.98,0.05,1.15c0.02,0.16,0.05,0.29,0.1,0.35c0.05,0.05,0.15,0.1,0.31,0.14c0.12,0.04,0.46,0.07,1.03,0.08l0.05,0.05
			v0.39l-0.05,0.07c-0.03,0-0.5-0.02-1.39-0.05c-0.37,0-0.67-0.02-0.87-0.02c-0.16,0-0.91,0.03-2.24,0.07l-0.05-0.07v-0.39
			l0.05-0.05c0.47-0.01,0.81-0.03,0.98-0.07c0.15-0.03,0.27-0.07,0.31-0.12c0.05-0.04,0.11-0.16,0.15-0.31
			c0.03-0.16,0.04-0.53,0.04-1.09l0.01-1.66v-3.61l-0.01-1.54c-0.02-0.59-0.02-0.96-0.04-1.14c-0.03-0.18-0.07-0.3-0.12-0.35
			c-0.04-0.06-0.13-0.1-0.27-0.13c-0.13-0.04-0.49-0.07-1.05-0.08l-0.05-0.07V253.65z"/>
		<path class="st0" d="M835.97,253.65l0.07-0.05c1.3,0.04,2.04,0.05,2.26,0.05c0.16,0,0.91-0.01,2.24-0.05l0.05,0.05v0.39
			l-0.05,0.07c-0.37,0.01-0.65,0.03-0.84,0.04c-0.19,0.01-0.34,0.05-0.42,0.12c-0.09,0.06-0.15,0.2-0.18,0.4
			c-0.03,0.21-0.04,0.5-0.04,0.88l-0.03,1.81v3.45c0,0.87,0.01,1.48,0.03,1.82l0.04,1.37h1.59c1.28,0,2.07-0.02,2.38-0.05
			c0.32-0.03,0.62-0.11,0.92-0.22c0.05-0.13,0.14-0.43,0.24-0.91c0.11-0.46,0.16-0.74,0.16-0.8l0.08-0.07h0.38l0.06,0.07
			c-0.06,0.21-0.1,0.61-0.12,1.21c-0.05,0.6-0.07,1.08-0.07,1.45l-0.08,0.07c-0.98-0.04-2.29-0.05-3.89-0.05l-2.29-0.02
			c-0.52,0-1.06,0.03-1.61,0.07l-0.07-0.07v-0.26l0.07-0.08c0.33-0.18,0.5-0.26,0.53-0.3c0.03-0.03,0.07-0.38,0.11-1.02
			c0.03-0.63,0.04-1.4,0.04-2.3v-3.35l-0.01-1.54c0-0.59-0.01-0.96-0.03-1.14c-0.03-0.18-0.08-0.3-0.12-0.35
			c-0.04-0.06-0.13-0.1-0.29-0.13c-0.13-0.04-0.49-0.07-1.05-0.08l-0.07-0.07V253.65z"/>
	</g>
	<path class="st0" d="M510.64,178.05v5.52l0.01,5.29c0.02,1.98,0.08,3.28,0.18,3.93c0.08,0.65,0.22,1.05,0.39,1.25
		c0.18,0.19,0.5,0.35,0.98,0.48c0.49,0.15,1.68,0.25,3.63,0.33l0.21,0.16v1.37l-0.21,0.2c-4.59-0.13-7.2-0.2-7.79-0.2
		c-0.59,0-3.18,0.08-7.77,0.2l-0.21-0.2V195l0.21-0.16c1.71-0.08,2.83-0.18,3.4-0.27c0.56-0.11,0.91-0.26,1.07-0.44
		c0.22-0.19,0.35-0.54,0.49-1.09c0.11-0.54,0.18-1.78,0.2-3.69l0.03-5.79v-12.55l-0.05-5.3c-0.01-2.05-0.07-3.38-0.16-3.98
		c-0.05-0.59-0.19-1.02-0.37-1.19c-0.18-0.22-0.5-0.37-0.99-0.5c-0.5-0.14-1.7-0.22-3.61-0.29l-0.21-0.19v-1.35l0.21-0.2
		c7.66,0.11,12.15,0.16,13.43,0.16c4.33,0,8.72-0.05,13.25-0.16l0.22,0.2c-0.27,0.89-0.49,1.92-0.56,3.08
		c-0.08,1.14-0.18,2.77-0.31,4.87l-0.23,0.22h-1.25l-0.18-0.22c-0.06-0.12-0.16-0.82-0.25-2.09c-0.11-1.01-0.27-1.9-0.45-2.74
		c-1.87-0.63-4.48-0.95-7.79-0.95c-1.48,0-3.24,0.11-5.21,0.33c-0.22,1.41-0.31,4.85-0.31,10.31v4.68c2.28,0.05,3.87,0.05,4.69,0.05
		c1.55,0,2.87-0.05,3.97-0.18c1.1-0.11,1.77-0.22,1.97-0.32c0.23-0.12,0.41-0.32,0.52-0.62c0.12-0.31,0.22-0.96,0.34-1.98l0.16-1.43
		l0.19-0.22h1.39l0.22,0.24l-0.19,5.95c0,0.68,0.01,1.68,0.07,2.98c0.1,1.49,0.12,2.64,0.12,3.45l-0.25,0.22h-1.36l-0.19-0.22
		l-0.12-2.32c-0.04-0.9-0.14-1.54-0.26-1.96c-0.14-0.43-0.34-0.69-0.64-0.81c-0.27-0.12-0.92-0.23-1.9-0.37
		c-1.01-0.09-2.53-0.15-4.61-0.15C512.92,178,511.55,178.04,510.64,178.05 M535.48,177.97l-1.07-0.28l-0.21-0.28v-3.37
		c3.22-2.37,6.36-3.56,9.42-3.56c2.08,0,3.77,0.39,5.18,1.15c1.36,0.78,2.35,1.75,2.97,2.92c0.6,1.18,0.93,2.53,0.93,4.08
		l-0.14,5.46v8.09c0,1.1,0.05,1.77,0.23,2c0.15,0.24,0.33,0.39,0.53,0.48c0.18,0.08,0.55,0.14,1.1,0.19l1.55,0.14l0.21,0.24v1.09
		l-0.21,0.22c-1.32-0.11-2.54-0.18-3.68-0.18c-1.1,0-2.38,0.07-3.9,0.18l-0.41-0.4l0.08-4.36l-5.9,4.61
		c-0.99,0.43-2.07,0.61-3.25,0.61c-1.45,0-2.69-0.25-3.75-0.77c-1.03-0.52-1.82-1.25-2.38-2.2c-0.56-0.92-0.83-2.06-0.83-3.4
		c0-2.65,0.83-4.74,2.49-6.25c1.67-1.5,6.21-2.75,13.62-3.79c0-2.68-0.57-4.58-1.77-5.67c-1.21-1.09-2.8-1.64-4.81-1.64
		c-1.06,0-2.01,0.14-2.88,0.46c-0.84,0.31-1.35,0.57-1.46,0.75c-0.15,0.18-0.63,1.29-1.47,3.32L535.48,177.97z M548.05,182.25
		c-5.06,0.85-8.2,1.77-9.47,2.73c-1.24,0.98-1.85,2.5-1.85,4.55c0,2.82,1.4,4.23,4.2,4.23c2.4,0,4.78-1.39,7.12-4.17V182.25z
		 M550.88,156.56l-7.95,10.15l-0.37,0.12l-0.8-0.42l-0.07-0.36l4.14-9.47l4.24-0.79l0.34,0.08L550.88,156.56z M558.76,175.06v-0.71
		l0.18-0.27c1.71-0.65,3.08-1.22,4.14-1.77c0-4.71-0.07-7.45-0.18-8.25c1.86-0.65,3.4-1.36,4.58-2.09l0.67,0.55
		c-0.19,1.14-0.39,4.44-0.67,9.93c0.91,0.01,1.88,0.04,2.94,0.04c2.13,0,3.65-0.08,4.61-0.18l0.18,0.19l-0.5,2.28l-0.23,0.24
		c-0.91-0.02-1.95-0.04-3.06-0.04c-1.02,0-2.31,0.02-3.93,0.04l-0.15,11.04c0,2.55,0.06,4.23,0.16,5.01
		c0.12,0.79,0.45,1.41,0.99,1.85c0.53,0.43,1.32,0.67,2.37,0.67c1.21,0,2.34-0.33,3.38-0.95l0.63,0.98c-0.42,0.31-1.46,1.2-3.1,2.72
		c-0.95,0.41-1.89,0.64-2.89,0.64c-4.06,0-6.12-1.98-6.12-5.91c0-1.46,0.04-2.67,0.12-3.7c0.01-0.3,0.03-0.62,0.03-0.94v-11.27
		h-1.12c-0.81,0-1.74,0.05-2.77,0.12L558.76,175.06z M583.45,158.36c0.86,0,1.58,0.3,2.17,0.91c0.6,0.61,0.88,1.33,0.88,2.16
		c0,0.83-0.29,1.55-0.88,2.15c-0.6,0.59-1.32,0.9-2.17,0.9c-0.83,0-1.58-0.29-2.16-0.9c-0.59-0.58-0.9-1.32-0.9-2.16
		c0-0.83,0.31-1.55,0.9-2.16C581.87,158.66,582.62,158.36,583.45,158.36 M585.76,170.49l0.5,0.35c-0.19,2.37-0.29,5.38-0.29,9.06
		v6.12c0,0.39,0.04,1.68,0.1,3.83c0.07,2.17,0.15,3.43,0.23,3.78c0.1,0.37,0.21,0.64,0.37,0.79c0.16,0.18,0.35,0.27,0.6,0.33
		c0.23,0.03,1.22,0.11,2.92,0.22l0.26,0.22v1.16l-0.22,0.23c-2.27-0.13-4.44-0.2-6.55-0.2c-2.06,0-4.24,0.08-6.5,0.2l-0.24-0.23
		v-1.16l0.24-0.22c1.74-0.11,2.73-0.18,2.96-0.25c0.23-0.05,0.43-0.16,0.61-0.33c0.15-0.19,0.27-0.43,0.33-0.79
		c0.1-0.35,0.16-1.51,0.23-3.49c0.08-1.98,0.13-3.51,0.13-4.51v-5.35c0-0.72-0.05-1.71-0.13-2.95c-0.07-1.25-0.12-2.03-0.16-2.32
		c-0.04-0.29-0.2-0.49-0.41-0.63c-0.25-0.14-0.72-0.2-1.43-0.2l-2.28-0.02l-0.23-0.22v-1.19l0.21-0.19
		C580.48,172.12,583.4,171.45,585.76,170.49 M601.78,170.49l0.52,0.35c-0.1,1.2-0.18,2.62-0.22,4.29l2.6-2.36
		c0.72-0.67,1.2-1.1,1.41-1.29c0.25-0.2,0.8-0.41,1.69-0.67c0.84-0.25,1.77-0.37,2.73-0.37c1.79,0,3.38,0.44,4.74,1.35
		c1.36,0.88,2.37,2.13,3,3.69c2.46-2.3,3.89-3.6,4.29-3.85c0.39-0.24,1.05-0.5,1.92-0.76c0.9-0.27,1.79-0.39,2.68-0.39
		c1.44,0,2.72,0.28,3.92,0.92c1.21,0.61,2.15,1.41,2.85,2.41c0.72,0.99,1.13,2.07,1.25,3.23c0.13,1.16,0.16,2.75,0.16,4.77v2.85
		c0,0.3,0.07,2.57,0.18,6.75c0.03,1.71,0.22,2.75,0.57,3.06c0.33,0.33,1.46,0.48,3.33,0.48l0.22,0.22v1.18l-0.22,0.2
		c-2.3-0.13-3.85-0.2-4.66-0.2c-0.47,0-1.77,0.08-3.94,0.2l-0.34-0.3c0.22-2.34,0.34-5.42,0.34-9.19v-3.26
		c0-2.88-0.15-4.88-0.39-6.03c-0.29-1.14-0.93-2.09-1.92-2.84c-0.98-0.72-2.16-1.09-3.55-1.09c-0.98,0-1.89,0.18-2.75,0.57
		c-0.86,0.39-1.6,0.98-2.28,1.75c-0.69,0.77-1.06,1.49-1.12,2.13c-0.09,0.68-0.15,1.89-0.15,3.67v3.37c0,0.82,0.06,2.3,0.15,4.48
		c0.05,2.19,0.14,3.47,0.22,3.83c0.07,0.35,0.2,0.61,0.37,0.76c0.18,0.16,0.38,0.26,0.6,0.31c0.23,0.03,1.19,0.11,2.91,0.22
		l0.26,0.22v1.16l-0.22,0.23c-2.27-0.13-4.43-0.2-6.54-0.2c-1.95,0-4.12,0.08-6.53,0.2l-0.23-0.23v-1.16l0.23-0.22
		c1.76-0.11,2.73-0.18,2.98-0.25c0.23-0.05,0.42-0.16,0.6-0.33c0.18-0.19,0.29-0.43,0.35-0.79c0.07-0.35,0.13-1.51,0.22-3.49
		c0.08-1.98,0.12-3.51,0.12-4.51v-3.09c0-2.04-0.15-3.63-0.41-4.72c-0.3-1.11-0.88-2.05-1.81-2.81c-0.94-0.75-2.09-1.13-3.49-1.13
		c-1.07,0-2.07,0.2-2.96,0.64c-0.91,0.42-1.64,0.95-2.2,1.58c-0.57,0.61-0.92,1.2-1.05,1.75c-0.13,0.52-0.2,1.72-0.2,3.53v4.01
		c0,0.82,0.03,2.3,0.11,4.48c0.08,2.19,0.13,3.47,0.22,3.83c0.08,0.35,0.22,0.61,0.38,0.76c0.18,0.16,0.37,0.26,0.6,0.31
		c0.23,0.03,1.21,0.11,2.94,0.22l0.22,0.22v1.16l-0.22,0.23c-2.24-0.13-4.42-0.2-6.52-0.2c-2.07,0-4.27,0.08-6.54,0.2l-0.22-0.23
		v-1.16l0.22-0.22c1.78-0.11,2.77-0.18,2.99-0.25c0.23-0.05,0.42-0.16,0.6-0.33c0.18-0.19,0.29-0.43,0.35-0.79
		c0.08-0.35,0.14-1.51,0.21-3.49c0.1-1.98,0.14-3.51,0.14-4.51v-5.35c0-0.72-0.04-1.71-0.11-2.95c-0.07-1.25-0.14-2.03-0.16-2.32
		c-0.05-0.29-0.19-0.49-0.44-0.63c-0.23-0.14-0.71-0.2-1.4-0.2l-2.28-0.02l-0.27-0.22v-1.19l0.24-0.19
		C596.51,172.12,599.42,171.45,601.78,170.49 M646.63,177.97l-1.07-0.28l-0.2-0.28v-3.37c3.22-2.37,6.33-3.56,9.39-3.56
		c2.08,0,3.8,0.39,5.18,1.15c1.36,0.78,2.39,1.75,2.98,2.93c0.63,1.17,0.94,2.52,0.94,4.07l-0.13,5.46v8.09c0,1.1,0.08,1.77,0.21,2
		c0.16,0.24,0.33,0.39,0.54,0.48c0.2,0.08,0.56,0.14,1.13,0.19l1.52,0.14l0.23,0.24v1.09l-0.23,0.22c-1.3-0.11-2.54-0.18-3.68-0.18
		c-1.09,0-2.4,0.07-3.91,0.18l-0.39-0.4l0.1-4.36l-5.9,4.61c-1.02,0.42-2.11,0.61-3.29,0.61c-1.44,0-2.67-0.25-3.72-0.77
		c-1.02-0.52-1.85-1.25-2.39-2.2c-0.54-0.92-0.83-2.06-0.83-3.4c0-2.65,0.83-4.74,2.51-6.25c1.66-1.5,6.2-2.75,13.62-3.79
		c0-2.68-0.6-4.58-1.81-5.67c-1.17-1.09-2.79-1.64-4.75-1.64c-1.09,0-2.04,0.14-2.9,0.46c-0.84,0.31-1.36,0.57-1.47,0.75
		c-0.14,0.18-0.64,1.29-1.48,3.32L646.63,177.97z M659.22,182.25c-5.07,0.85-8.21,1.77-9.47,2.73c-1.24,0.98-1.86,2.5-1.86,4.55
		c0,2.81,1.39,4.23,4.2,4.23c2.42,0,4.78-1.39,7.14-4.17V182.25z M694.39,178.05v5.52l0.04,5.29c0.01,1.98,0.07,3.28,0.14,3.93
		c0.1,0.65,0.24,1.05,0.42,1.25c0.16,0.19,0.49,0.35,0.98,0.48c0.49,0.15,1.7,0.25,3.62,0.33l0.21,0.16v1.37l-0.21,0.2
		c-4.59-0.13-7.19-0.2-7.79-0.2c-0.57,0-3.18,0.08-7.77,0.2l-0.21-0.2V195l0.21-0.16c1.7-0.08,2.84-0.18,3.38-0.27
		c0.57-0.11,0.92-0.26,1.11-0.44c0.19-0.19,0.34-0.54,0.46-1.09c0.11-0.54,0.19-1.78,0.2-3.69l0.03-5.79v-12.55l-0.05-5.3
		c0-2.05-0.07-3.38-0.15-3.98c-0.08-0.59-0.21-1.02-0.37-1.19c-0.21-0.22-0.52-0.37-0.99-0.5c-0.5-0.14-1.71-0.22-3.63-0.29
		l-0.21-0.19v-1.35l0.21-0.2c7.65,0.11,12.15,0.16,13.43,0.16c4.32,0,8.72-0.05,13.25-0.16l0.23,0.2c-0.3,0.89-0.5,1.92-0.58,3.08
		c-0.08,1.14-0.19,2.77-0.29,4.87l-0.23,0.22h-1.28l-0.19-0.22c-0.03-0.12-0.12-0.82-0.26-2.09c-0.05-1.01-0.22-1.92-0.42-2.74
		c-1.88-0.63-4.47-0.95-7.79-0.95c-1.49,0-3.23,0.11-5.21,0.33c-0.19,1.41-0.3,4.85-0.3,10.31v4.68c2.3,0.05,3.88,0.05,4.7,0.05
		c1.52,0,2.85-0.05,3.95-0.18c1.1-0.11,1.75-0.22,2-0.32c0.21-0.12,0.37-0.32,0.48-0.62c0.14-0.31,0.24-0.96,0.35-1.98l0.15-1.43
		l0.21-0.22h1.37l0.22,0.24l-0.19,5.95c0,0.68,0.03,1.68,0.1,2.98c0.07,1.49,0.1,2.64,0.1,3.45l-0.25,0.22h-1.34l-0.21-0.22
		l-0.11-2.32c-0.04-0.9-0.15-1.54-0.26-1.96c-0.14-0.43-0.36-0.69-0.61-0.81c-0.29-0.12-0.94-0.23-1.93-0.37
		c-1.02-0.09-2.54-0.15-4.61-0.15C696.69,178,695.31,178.04,694.39,178.05 M723.89,170.49l0.52,0.35c-0.11,1.06-0.19,2.92-0.24,5.61
		l2.04-2.6c0.64-0.85,1.24-1.49,1.78-1.95c0.52-0.48,1.12-0.83,1.79-1.09c0.71-0.25,1.41-0.37,2.09-0.37c0.83,0,1.56,0.16,2.27,0.5
		l0.22,0.37c-0.3,2.42-0.48,4.53-0.5,6.36h-1.23c-0.71-1.67-1.88-2.51-3.49-2.51c-1.11,0-2.08,0.37-2.92,1.08
		c-0.84,0.72-1.4,1.6-1.68,2.69c-0.26,1.07-0.41,2.43-0.41,4.07v3.02c0,0.53,0.03,1.88,0.11,3.99c0.07,2.11,0.14,3.34,0.22,3.66
		c0.08,0.33,0.22,0.56,0.38,0.72c0.19,0.15,0.39,0.25,0.68,0.3c0.29,0.05,1.58,0.15,3.87,0.27l0.24,0.22v1.16l-0.24,0.23
		c-2.39-0.13-4.93-0.2-7.53-0.2c-2.09,0-4.27,0.08-6.52,0.2l-0.25-0.23v-1.16l0.25-0.22c1.75-0.11,2.74-0.18,2.98-0.25
		c0.22-0.05,0.41-0.16,0.6-0.33c0.16-0.19,0.27-0.43,0.35-0.79c0.05-0.35,0.13-1.51,0.2-3.49c0.1-1.98,0.14-3.51,0.14-4.51v-5.35
		c0-0.72-0.04-1.71-0.14-2.95c-0.04-1.25-0.12-2.03-0.18-2.32c-0.03-0.29-0.18-0.49-0.39-0.63c-0.23-0.14-0.71-0.2-1.4-0.2
		l-2.3-0.02l-0.24-0.22v-1.19l0.22-0.19C718.62,172.12,721.53,171.45,723.89,170.49 M759.42,192.37l-0.87,1.94
		c-1.89,1.22-3.57,2.01-5.03,2.36c-1.49,0.35-2.81,0.55-3.95,0.55c-2.19,0-4.23-0.41-6.17-1.28c-1.94-0.86-3.52-2.28-4.76-4.31
		c-1.24-2.04-1.82-4.46-1.82-7.33c0-1.92,0.23-3.61,0.71-5.15c0.45-1.52,0.95-2.65,1.46-3.41c0.53-0.73,1.39-1.56,2.65-2.46
		c1.24-0.9,2.52-1.62,3.89-2.17c1.36-0.53,2.87-0.82,4.46-0.82c2.17,0,4.06,0.52,5.75,1.54c1.65,1.02,2.8,2.32,3.48,3.91
		c0.67,1.6,0.99,3.3,0.99,5.08c0,0.58-0.03,1.1-0.07,1.63l-0.3,0.3c-1.25,0.28-2.91,0.45-4.97,0.54c-2.08,0.1-3.45,0.12-4.1,0.12
		h-8.74c0.06,3.76,0.98,6.52,2.84,8.3c1.83,1.76,4.09,2.64,6.77,2.64c1.26,0,2.49-0.2,3.64-0.65c1.2-0.42,2.41-1.03,3.72-1.81
		L759.42,192.37z M742.01,181.27c0.33,0.05,1.58,0.12,3.78,0.19c2.17,0.07,3.78,0.11,4.84,0.11c2.5,0,4.02-0.03,4.58-0.13
		c0.01-0.42,0.03-0.76,0.03-1.01c0-2.79-0.59-4.89-1.71-6.26c-1.14-1.36-2.68-2.03-4.67-2.03c-2.12,0-3.81,0.76-5.03,2.3
		C742.64,175.98,742.01,178.25,742.01,181.27 M769.87,158.36c0.86,0,1.58,0.3,2.15,0.91c0.63,0.61,0.93,1.33,0.93,2.16
		c0,0.83-0.3,1.55-0.93,2.15c-0.57,0.59-1.29,0.9-2.15,0.9c-0.83,0-1.55-0.29-2.16-0.9c-0.6-0.58-0.92-1.32-0.92-2.16
		c0-0.83,0.33-1.55,0.92-2.16C768.32,158.66,769.04,158.36,769.87,158.36 M772.18,170.49l0.48,0.35c-0.17,2.37-0.27,5.38-0.27,9.06
		v6.12c0,0.39,0.04,1.68,0.12,3.83c0.05,2.17,0.13,3.43,0.22,3.78c0.09,0.37,0.22,0.64,0.37,0.79c0.16,0.18,0.37,0.27,0.58,0.33
		c0.25,0.03,1.24,0.11,2.94,0.22l0.26,0.22v1.16l-0.23,0.23c-2.26-0.13-4.43-0.2-6.54-0.2c-2.08,0-4.26,0.08-6.5,0.2l-0.25-0.23
		v-1.16l0.25-0.22c1.74-0.11,2.73-0.18,2.96-0.25c0.22-0.05,0.41-0.16,0.58-0.33c0.19-0.19,0.29-0.43,0.36-0.79
		c0.08-0.35,0.15-1.51,0.23-3.49c0.07-1.98,0.11-3.51,0.11-4.51v-5.35c0-0.72-0.04-1.71-0.11-2.95c-0.07-1.25-0.12-2.03-0.16-2.32
		c-0.04-0.29-0.19-0.49-0.42-0.63c-0.24-0.14-0.71-0.2-1.41-0.2l-2.28-0.02l-0.24-0.22v-1.19l0.2-0.19
		C766.88,172.12,769.8,171.45,772.18,170.49 M779.46,175.06v-0.71l0.21-0.27c1.69-0.65,3.06-1.22,4.12-1.77
		c0-4.71-0.08-7.45-0.16-8.25c1.88-0.65,3.4-1.36,4.58-2.09l0.65,0.55c-0.18,1.14-0.41,4.44-0.65,9.93
		c0.91,0.01,1.88,0.04,2.94,0.04c2.12,0,3.65-0.08,4.59-0.18l0.18,0.19l-0.49,2.28l-0.24,0.24c-0.92-0.02-1.94-0.04-3.07-0.04
		c-0.99,0-2.31,0.02-3.9,0.04l-0.16,11.04c0,2.55,0.07,4.23,0.18,5.01c0.11,0.79,0.45,1.41,0.99,1.85c0.53,0.43,1.3,0.67,2.36,0.67
		c1.21,0,2.32-0.33,3.37-0.95l0.65,0.98c-0.44,0.31-1.47,1.2-3.13,2.72c-0.92,0.41-1.88,0.64-2.88,0.64c-4.08,0-6.1-1.98-6.1-5.91
		c0-1.46,0.03-2.67,0.1-3.7c0.04-0.3,0.04-0.62,0.04-0.94v-11.27h-1.12c-0.83,0-1.77,0.05-2.8,0.12L779.46,175.06z M802.09,177.97
		l-1.05-0.28l-0.23-0.28v-3.37c3.22-2.37,6.36-3.56,9.41-3.56c2.09,0,3.79,0.39,5.18,1.15c1.37,0.78,2.38,1.75,2.98,2.93
		c0.63,1.17,0.94,2.52,0.94,4.07l-0.14,5.46v8.09c0,1.1,0.07,1.77,0.24,2c0.12,0.24,0.31,0.39,0.5,0.48
		c0.19,0.08,0.56,0.14,1.12,0.19l1.55,0.14l0.21,0.24v1.09l-0.21,0.22c-1.32-0.11-2.54-0.18-3.68-0.18c-1.1,0-2.41,0.07-3.9,0.18
		l-0.42-0.4l0.11-4.36l-5.91,4.61c-1.01,0.42-2.11,0.61-3.25,0.61c-1.47,0-2.7-0.25-3.75-0.77c-1.04-0.52-1.83-1.25-2.38-2.2
		c-0.55-0.92-0.83-2.06-0.83-3.4c0-2.65,0.83-4.74,2.47-6.25c1.67-1.5,6.21-2.75,13.64-3.79c0-2.68-0.6-4.58-1.79-5.67
		c-1.2-1.09-2.79-1.64-4.8-1.64c-1.05,0-2,0.14-2.87,0.46c-0.83,0.31-1.36,0.57-1.48,0.75c-0.12,0.18-0.61,1.29-1.46,3.32
		L802.09,177.97z M814.69,182.25c-5.05,0.85-8.21,1.77-9.47,2.73c-1.25,0.98-1.88,2.5-1.88,4.55c0,2.81,1.4,4.23,4.2,4.23
		c2.43,0,4.8-1.39,7.15-4.17V182.25z M826.88,188.39h1.16l0.24,0.23c0.03,1.52,0.15,2.83,0.29,3.92c0.56,0.84,1.51,1.53,2.9,2.06
		c1.39,0.54,2.73,0.8,4.06,0.8c1.94,0,3.45-0.51,4.62-1.55c1.14-1.02,1.71-2.24,1.71-3.68c0-0.77-0.2-1.45-0.61-2.02
		c-0.44-0.58-1.06-1.05-1.89-1.42c-0.86-0.37-2.35-0.8-4.53-1.32c-1.88-0.44-3.17-0.76-3.93-1.02c-0.73-0.24-1.45-0.65-2.12-1.22
		c-0.69-0.58-1.22-1.3-1.59-2.13c-0.35-0.85-0.53-1.78-0.53-2.77c0-2.45,0.95-4.38,2.88-5.84c1.93-1.44,4.34-2.19,7.23-2.19
		c1.2,0,2.52,0.18,3.96,0.52c1.41,0.33,2.5,0.64,3.25,0.97l0.23,0.37c-0.15,0.73-0.22,2.61-0.26,5.71l-0.26,0.25h-1.06l-0.26-0.25
		c-0.07-1.11-0.19-1.89-0.29-2.32c-0.14-0.46-0.46-0.92-0.99-1.46c-0.53-0.5-1.28-0.94-2.23-1.29c-0.95-0.34-1.96-0.52-3.02-0.52
		c-1.13,0-2.04,0.16-2.8,0.48c-0.76,0.31-1.36,0.83-1.82,1.47c-0.46,0.67-0.69,1.47-0.69,2.42c0,0.68,0.15,1.3,0.42,1.85
		c0.29,0.54,0.71,0.97,1.28,1.32c0.58,0.33,1.19,0.57,1.83,0.71l2.95,0.77c2.54,0.62,4.36,1.14,5.45,1.6
		c1.09,0.46,1.93,1.14,2.53,2.04c0.6,0.92,0.91,2.04,0.91,3.33c0,2.51-1.05,4.65-3.1,6.44c-2.05,1.78-4.71,2.68-7.95,2.68
		c-1.14,0-2.57-0.12-4.23-0.37c-1.71-0.27-3.15-0.55-4.36-0.85l-0.12-0.35l0.27-1.83c0.08-0.55,0.15-1.12,0.18-1.69
		c0-0.57,0.03-1.77,0.03-3.6L826.88,188.39z"/>
	<path class="st0" d="M516.89,230.71c-0.67,0.46-1.33,0.99-2.04,1.6c-0.27,0.04-0.57,0.07-0.87,0.07c-0.71,0-1.44-0.16-2.19-0.46
		c-0.72-0.3-1.51-0.78-2.32-1.46c-1.07,0.81-1.99,1.32-2.71,1.57c-0.73,0.24-1.52,0.36-2.34,0.36c-1.67,0-2.92-0.5-3.8-1.48
		c-0.87-0.99-1.32-2.13-1.32-3.41c0-2.18,1.29-3.96,3.85-5.32c-0.5-1.18-0.73-2.24-0.73-3.19c0-0.39,0.04-0.77,0.16-1.12
		c0.13-0.35,0.23-0.62,0.37-0.82c0.15-0.19,0.38-0.42,0.72-0.72c0.35-0.31,0.67-0.6,1.01-0.87c0.29-0.25,0.6-0.43,0.9-0.54
		c0.3-0.11,0.6-0.17,0.94-0.17c0.73,0,1.3,0.22,1.69,0.65c0.38,0.42,0.57,0.98,0.57,1.66c0,1.7-1.2,3.35-3.56,4.95
		c0.52,1.05,1.29,2.2,2.34,3.51c1.03,1.3,1.94,2.25,2.72,2.85c0.84-0.9,1.25-1.9,1.25-2.98c0-0.44-0.06-0.8-0.15-1.1
		c-0.1-0.3-0.23-0.5-0.41-0.62c-0.15-0.1-0.44-0.15-0.86-0.15c-0.45,0-0.87-0.01-1.3-0.01l-0.12-0.16l0.8-1.16
		c0.49,0.07,1.17,0.11,2.08,0.11c0.49,0,1.22-0.03,2.19-0.06c1.01-0.03,1.93-0.05,2.8-0.05l0.12,0.11c-0.12,0.48-0.2,0.97-0.23,1.48
		l-0.14,0.1c-0.92-0.16-1.94-0.24-3.02-0.24c-0.07,0-0.18,0-0.37,0.01c0.1,0.34,0.13,0.72,0.13,1.09c0,1.44-0.68,2.84-2.05,4.21
		c1.49,1.07,2.97,1.61,4.42,1.61c0.22,0,0.38-0.03,0.54-0.08c0.15-0.05,0.39-0.17,0.73-0.36l0.15,0.08l0.1,0.37L516.89,230.71z
		 M508.67,229.82c-1.51-1.6-2.6-2.85-3.25-3.76c-0.65-0.92-1.29-1.89-1.88-2.96c-0.8,0.58-1.36,1.16-1.64,1.74
		c-0.3,0.58-0.45,1.18-0.45,1.8c0,1.12,0.41,2.12,1.21,3c0.83,0.88,1.81,1.31,2.95,1.31C506.65,230.96,507.69,230.58,508.67,229.82z
		 M504.8,221.16c0.67-0.47,1.21-1.03,1.65-1.66c0.43-0.64,0.65-1.24,0.65-1.82c0-0.41-0.12-0.76-0.38-1.11
		c-0.25-0.33-0.56-0.5-0.96-0.5c-0.42,0-0.8,0.17-1.12,0.52c-0.31,0.34-0.47,0.86-0.47,1.56
		C504.17,218.93,504.37,219.93,504.8,221.16z"/>
	<path class="st0" d="M537.46,232.02l-0.12-0.09v-0.63l0.12-0.11c0.57,0,0.97-0.03,1.13-0.08c0.18-0.05,0.33-0.16,0.46-0.33
		c0.13-0.15,0.41-0.67,0.81-1.55l1.29-2.79l3.3-7.52c0.63-1.48,1.25-2.96,1.88-4.42h0.79l5.22,12.25l0.71,1.64
		c0.19,0.47,0.43,0.96,0.69,1.51c0.26,0.56,0.45,0.87,0.54,0.97c0.11,0.09,0.23,0.18,0.38,0.23c0.15,0.05,0.49,0.08,1.01,0.08
		l0.11,0.11v0.63l-0.11,0.09c-0.86-0.07-1.64-0.11-2.33-0.11c-1.36,0.04-2.7,0.08-4.05,0.11l-0.1-0.09v-0.63l0.1-0.11
		c0.91-0.02,1.48-0.05,1.71-0.11c0.23-0.07,0.33-0.2,0.33-0.42c0-0.19-0.04-0.42-0.16-0.71l-1.49-3.72h-7.08l-1.33,3.12
		c-0.23,0.56-0.36,0.97-0.36,1.24c0,0.2,0.12,0.35,0.33,0.45c0.22,0.1,0.79,0.16,1.67,0.16l0.11,0.11v0.63l-0.1,0.09
		c-1.04-0.05-1.97-0.09-2.76-0.09C539.27,231.93,538.36,231.96,537.46,232.02z M543.02,225.18h6.18l-3.07-7.37L543.02,225.18z"/>
	<path class="st0" d="M573.69,227.74l0.08-0.09h0.6l0.11,0.09c0.04,1.03,0.1,1.67,0.16,1.89c0.07,0.24,0.27,0.49,0.65,0.75
		c0.37,0.26,0.87,0.46,1.48,0.64c0.63,0.16,1.24,0.23,1.86,0.23c0.86,0,1.64-0.15,2.32-0.48c0.69-0.32,1.24-0.79,1.62-1.4
		c0.38-0.61,0.56-1.3,0.56-2.06c0-0.54-0.1-1.02-0.27-1.4c-0.19-0.4-0.44-0.72-0.76-0.96c-0.33-0.25-0.72-0.42-1.14-0.53
		c-0.41-0.12-1.04-0.26-1.89-0.4c-0.8-0.12-1.43-0.24-1.9-0.33c-0.46-0.12-0.92-0.29-1.37-0.5c-0.46-0.22-0.86-0.52-1.14-0.84
		c-0.31-0.33-0.56-0.75-0.73-1.24c-0.19-0.51-0.27-1.03-0.27-1.59c0-1.52,0.52-2.77,1.58-3.73c1.06-0.98,2.49-1.47,4.27-1.47
		c0.71,0,1.47,0.08,2.33,0.27c0.83,0.17,1.57,0.43,2.28,0.77l0.07,0.15c-0.18,0.75-0.29,1.82-0.34,3.2l-0.1,0.09h-0.64L583,218.7
		c-0.02-0.98-0.04-1.58-0.08-1.84c-0.03-0.26-0.41-0.55-1.1-0.95c-0.72-0.35-1.48-0.55-2.31-0.55c-0.69,0-1.33,0.13-1.94,0.43
		c-0.6,0.26-1.04,0.69-1.37,1.29c-0.31,0.6-0.46,1.2-0.46,1.82c0,0.48,0.11,0.91,0.27,1.26c0.19,0.38,0.43,0.67,0.73,0.9
		c0.3,0.2,0.64,0.37,1.03,0.47c0.41,0.1,1.13,0.24,2.19,0.38c1.43,0.22,2.47,0.45,3.14,0.74c0.65,0.29,1.17,0.76,1.56,1.38
		c0.41,0.63,0.6,1.39,0.6,2.27c0,1.72-0.71,3.18-2.13,4.34c-1.4,1.15-3.11,1.73-5.11,1.73c-1.7,0-3.18-0.31-4.45-0.9l-0.07-0.16
		C573.59,230.81,573.65,229.61,573.69,227.74z"/>
	<path class="st0" d="M603.16,227.74l0.09-0.09h0.61l0.1,0.09c0.03,1.03,0.09,1.67,0.15,1.89c0.08,0.24,0.3,0.49,0.68,0.75
		c0.35,0.26,0.86,0.46,1.47,0.64c0.61,0.16,1.24,0.23,1.86,0.23c0.86,0,1.63-0.15,2.34-0.48c0.68-0.32,1.21-0.79,1.59-1.4
		c0.38-0.61,0.56-1.3,0.56-2.06c0-0.54-0.07-1.02-0.24-1.4c-0.19-0.4-0.44-0.72-0.77-0.96c-0.34-0.25-0.71-0.42-1.13-0.53
		c-0.42-0.12-1.06-0.26-1.89-0.4c-0.83-0.12-1.47-0.24-1.92-0.33c-0.46-0.12-0.93-0.29-1.39-0.5c-0.45-0.22-0.81-0.52-1.13-0.84
		c-0.31-0.33-0.54-0.75-0.73-1.24c-0.19-0.51-0.27-1.03-0.27-1.59c0-1.52,0.53-2.77,1.59-3.73c1.05-0.98,2.47-1.47,4.25-1.47
		c0.71,0,1.48,0.08,2.31,0.27c0.83,0.17,1.59,0.43,2.27,0.77l0.1,0.15c-0.18,0.75-0.3,1.82-0.34,3.2l-0.1,0.09h-0.64l-0.11-0.09
		c0-0.98-0.01-1.58-0.07-1.84c-0.03-0.26-0.39-0.55-1.12-0.95c-0.69-0.35-1.48-0.55-2.31-0.55c-0.68,0-1.32,0.13-1.93,0.43
		c-0.6,0.26-1.05,0.69-1.36,1.29c-0.31,0.6-0.49,1.2-0.49,1.82c0,0.48,0.11,0.91,0.3,1.26c0.19,0.38,0.42,0.67,0.75,0.9
		c0.27,0.2,0.61,0.37,1.02,0.47c0.39,0.1,1.11,0.24,2.18,0.38c1.43,0.22,2.48,0.45,3.14,0.74c0.65,0.29,1.18,0.76,1.58,1.38
		c0.39,0.63,0.58,1.39,0.58,2.27c0,1.72-0.71,3.18-2.13,4.34c-1.4,1.15-3.11,1.73-5.12,1.73c-1.67,0-3.15-0.31-4.44-0.9l-0.05-0.16
		C603.06,230.81,603.13,229.61,603.16,227.74z"/>
	<path class="st0" d="M632.46,223.51c0-1.21,0.16-2.36,0.52-3.41c0.35-1.06,0.94-2.05,1.79-2.94c0.84-0.89,1.86-1.59,3.06-2.09
		c1.17-0.49,2.51-0.73,4.01-0.73c2.79,0,5,0.75,6.65,2.27c1.63,1.5,2.46,3.56,2.46,6.16c0,1.86-0.41,3.5-1.2,4.97
		c-0.82,1.46-1.97,2.6-3.47,3.42c-1.52,0.81-3.19,1.22-5.07,1.22c-1.33,0-2.56-0.22-3.66-0.66c-1.12-0.44-2.07-1.11-2.86-1.98
		c-0.8-0.88-1.37-1.9-1.72-3.06C632.62,225.53,632.46,224.46,632.46,223.51z M635,222.71c0,0.97,0.15,2.06,0.47,3.19
		c0.31,1.17,0.8,2.13,1.44,2.97c0.64,0.8,1.38,1.41,2.2,1.81c0.84,0.4,1.79,0.6,2.86,0.6c1.26,0,2.39-0.3,3.38-0.87
		c0.98-0.58,1.74-1.47,2.23-2.68c0.52-1.23,0.78-2.6,0.78-4.12c0-1.64-0.29-3.12-0.87-4.46c-0.6-1.32-1.43-2.28-2.51-2.89
		c-1.07-0.61-2.29-0.9-3.6-0.9c-1.97,0-3.53,0.62-4.66,1.86C635.57,218.47,635,220.29,635,222.71z"/>
	<path class="st0" d="M684.81,229.86l-0.46,1.15c-1.81,0.92-3.74,1.37-5.79,1.37c-2.94,0-5.33-0.83-7.16-2.49
		c-1.83-1.67-2.73-3.86-2.73-6.55c0-1.86,0.43-3.48,1.36-4.87c0.91-1.38,2.13-2.42,3.63-3.12c1.51-0.69,3.2-1.03,5.04-1.03
		c1.1,0,2.18,0.11,3.23,0.34c1.05,0.23,1.93,0.5,2.64,0.82l0.1,0.12c-0.19,0.46-0.37,1.58-0.53,3.39l-0.1,0.09h-0.57l-0.1-0.09
		l-0.11-2.07c-0.6-0.47-1.31-0.85-2.18-1.12c-0.83-0.25-1.71-0.39-2.61-0.39c-1.39,0-2.62,0.3-3.71,0.9
		c-1.09,0.57-1.93,1.44-2.54,2.54c-0.6,1.13-0.9,2.52-0.9,4.12c0,1.63,0.35,3.06,1.05,4.28c0.72,1.22,1.68,2.18,2.91,2.84
		c1.22,0.65,2.66,0.98,4.29,0.98c0.73,0,1.43-0.05,2.09-0.22c0.65-0.12,1.21-0.29,1.67-0.5c0.42-0.19,0.86-0.45,1.28-0.73
		L684.81,229.86z"/>
	<path class="st0" d="M702.63,214.67l1.52,0.05c0.99,0.03,1.66,0.05,1.98,0.05c0.27,0,1.44-0.03,3.49-0.09l0.1,0.08v0.61l-0.1,0.09
		c-0.55,0.01-1.01,0.03-1.29,0.07c-0.31,0.03-0.54,0.09-0.68,0.18c-0.14,0.09-0.22,0.3-0.26,0.63c-0.05,0.33-0.1,0.79-0.1,1.38v2.81
		v5.65v2.39c0,0.92,0.03,1.49,0.1,1.78c0.01,0.27,0.07,0.44,0.15,0.53c0.08,0.09,0.25,0.16,0.45,0.23c0.23,0.06,0.76,0.11,1.63,0.14
		l0.1,0.07v0.62l-0.1,0.09c0,0-0.76-0.02-2.16-0.07c-0.57-0.02-1.02-0.02-1.33-0.02c-0.26,0-1.41,0.04-3.51,0.09l-0.08-0.09v-0.62
		l0.08-0.07c0.76-0.03,1.26-0.08,1.52-0.12c0.24-0.05,0.42-0.11,0.5-0.18c0.08-0.09,0.15-0.25,0.19-0.5
		c0.07-0.24,0.1-0.81,0.11-1.69v-2.57v-5.65l-0.03-2.38c0-0.93-0.01-1.53-0.05-1.8c-0.03-0.27-0.1-0.45-0.19-0.54
		c-0.07-0.1-0.21-0.16-0.42-0.22c-0.23-0.04-0.76-0.09-1.63-0.12l-0.08-0.09v-0.61L702.63,214.67z"/>
	<path class="st0" d="M727.55,232.02l-0.11-0.09v-0.63l0.11-0.11c0.58,0,0.96-0.03,1.14-0.08c0.19-0.05,0.33-0.16,0.47-0.33
		c0.12-0.15,0.38-0.67,0.8-1.55l1.27-2.79l3.34-7.52c0.63-1.48,1.24-2.96,1.85-4.42h0.81l5.19,12.25l0.71,1.64
		c0.19,0.47,0.44,0.96,0.71,1.51c0.26,0.56,0.45,0.87,0.54,0.97c0.11,0.09,0.23,0.18,0.38,0.23c0.15,0.05,0.49,0.08,1.01,0.08
		l0.11,0.11v0.63l-0.11,0.09c-0.86-0.07-1.64-0.11-2.32-0.11c-1.36,0.04-2.72,0.08-4.06,0.11l-0.11-0.09v-0.63l0.11-0.11
		c0.91-0.02,1.48-0.05,1.71-0.11c0.21-0.07,0.34-0.2,0.34-0.42c0-0.19-0.07-0.42-0.15-0.71l-1.52-3.72h-7.07l-1.32,3.12
		c-0.26,0.56-0.37,0.97-0.37,1.24c0,0.2,0.11,0.35,0.34,0.45c0.22,0.1,0.76,0.16,1.64,0.16l0.11,0.11v0.63l-0.11,0.09
		c-1.03-0.05-1.96-0.09-2.73-0.09C729.36,231.93,728.45,231.96,727.55,232.02z M733.11,225.18h6.17l-3.06-7.37L733.11,225.18z"/>
	<path class="st0" d="M763.61,214.76l0.08-0.08c1.41,0.07,2.38,0.09,2.89,0.09l5.71-0.12c1.62,0,2.96,0.15,3.99,0.46
		c1.05,0.3,1.97,0.83,2.77,1.59c0.83,0.75,1.43,1.63,1.86,2.62c0.41,1.01,0.61,2.07,0.61,3.19c0,1.09-0.18,2.18-0.57,3.27
		c-0.37,1.07-0.91,2.04-1.62,2.88c-0.72,0.84-1.51,1.54-2.42,2.05c-0.9,0.53-1.79,0.87-2.7,1.06c-0.88,0.17-1.82,0.25-2.77,0.25
		c-0.63,0-1.83-0.02-3.57-0.07c-0.57-0.02-0.96-0.02-1.14-0.02c-0.57,0-1.25,0.04-2.05,0.09l-0.11-0.09v-0.41l0.11-0.12
		c0.49-0.24,0.76-0.39,0.82-0.46c0.08-0.05,0.13-0.77,0.18-2.13c0.04-1.36,0.07-2.4,0.07-3.12v-4.48l-0.01-2.79
		c0-0.58-0.01-1.09-0.01-1.47c-0.03-0.37-0.05-0.64-0.08-0.8c-0.05-0.17-0.11-0.29-0.15-0.35c-0.05-0.06-0.15-0.12-0.26-0.16
		c-0.12-0.05-0.31-0.09-0.6-0.12l-0.94-0.07l-0.08-0.09V214.76z M768.1,230.7c0.83,0.15,1.78,0.24,2.87,0.24
		c1.89,0,3.43-0.31,4.55-0.96c1.14-0.63,2-1.56,2.53-2.82c0.57-1.23,0.87-2.65,0.87-4.21c0-2.31-0.64-4.09-1.86-5.36
		c-1.21-1.27-3.15-1.9-5.79-1.9c-1.1,0-2.16,0.08-3.17,0.25c-0.07,1.33-0.09,2.83-0.09,4.52v3.83l0.03,3.59
		C768.04,228.57,768.06,229.52,768.1,230.7z"/>
	<path class="st0" d="M799.27,223.51c0-1.21,0.15-2.36,0.5-3.41c0.37-1.06,0.96-2.05,1.82-2.94c0.83-0.89,1.85-1.59,3.03-2.09
		c1.18-0.49,2.53-0.73,4.04-0.73c2.76,0,4.99,0.75,6.62,2.27c1.64,1.5,2.46,3.56,2.46,6.16c0,1.86-0.39,3.5-1.21,4.97
		c-0.8,1.46-1.94,2.6-3.45,3.42c-1.49,0.81-3.19,1.22-5.05,1.22c-1.33,0-2.57-0.22-3.7-0.66c-1.09-0.44-2.05-1.11-2.83-1.98
		c-0.79-0.88-1.34-1.9-1.7-3.06C799.42,225.53,799.27,224.46,799.27,223.51z M801.79,222.71c0,0.97,0.15,2.06,0.48,3.19
		c0.32,1.17,0.81,2.13,1.45,2.97c0.64,0.8,1.36,1.41,2.21,1.81c0.84,0.4,1.78,0.6,2.84,0.6c1.25,0,2.38-0.3,3.37-0.87
		c0.99-0.58,1.71-1.47,2.26-2.68c0.5-1.23,0.75-2.6,0.75-4.12c0-1.64-0.29-3.12-0.86-4.46c-0.6-1.32-1.43-2.28-2.53-2.89
		c-1.07-0.61-2.26-0.9-3.57-0.9c-1.99,0-3.55,0.62-4.69,1.86C802.36,218.47,801.79,220.29,801.79,222.71z"/>
	<path class="st0" d="M835.65,227.74l0.1-0.09h0.6l0.1,0.09c0.04,1.03,0.11,1.67,0.16,1.89c0.07,0.24,0.3,0.49,0.65,0.75
		c0.38,0.26,0.87,0.46,1.5,0.64c0.61,0.16,1.24,0.23,1.85,0.23c0.87,0,1.63-0.15,2.34-0.48c0.69-0.32,1.21-0.79,1.61-1.4
		c0.38-0.61,0.58-1.3,0.58-2.06c0-0.54-0.1-1.02-0.29-1.4c-0.19-0.4-0.43-0.72-0.76-0.96c-0.34-0.25-0.71-0.42-1.14-0.53
		c-0.42-0.12-1.04-0.26-1.89-0.4c-0.81-0.12-1.46-0.24-1.92-0.33c-0.45-0.12-0.92-0.29-1.36-0.5c-0.46-0.22-0.83-0.52-1.16-0.84
		c-0.31-0.33-0.53-0.75-0.73-1.24c-0.19-0.51-0.27-1.03-0.27-1.59c0-1.52,0.54-2.77,1.59-3.73c1.07-0.98,2.47-1.47,4.27-1.47
		c0.69,0,1.47,0.08,2.31,0.27c0.83,0.17,1.59,0.43,2.28,0.77l0.07,0.15c-0.16,0.75-0.26,1.82-0.33,3.2l-0.11,0.09h-0.62l-0.11-0.09
		c0-0.98-0.03-1.58-0.05-1.84c-0.04-0.26-0.42-0.55-1.13-0.95c-0.71-0.35-1.47-0.55-2.31-0.55c-0.68,0-1.32,0.13-1.94,0.43
		c-0.58,0.26-1.05,0.69-1.37,1.29c-0.29,0.6-0.45,1.2-0.45,1.82c0,0.48,0.1,0.91,0.29,1.26c0.18,0.38,0.41,0.67,0.72,0.88
		c0.3,0.22,0.65,0.38,1.02,0.49c0.42,0.1,1.13,0.24,2.17,0.38c1.46,0.22,2.5,0.45,3.17,0.74c0.64,0.29,1.17,0.76,1.58,1.38
		c0.38,0.63,0.58,1.39,0.58,2.27c0,1.72-0.71,3.18-2.11,4.34c-1.43,1.15-3.15,1.73-5.15,1.73c-1.67,0-3.17-0.31-4.44-0.9l-0.05-0.16
		C835.54,230.81,835.61,229.61,835.65,227.74z"/>
</g>
</svg>
