<?xml version="1.0" encoding="UTF-8" standalone="no"?>
<!-- Generator: Adobe Illustrator 25.2.0, SVG Export Plug-In . SVG Version: 6.00 Build 0)  -->

<svg
   version="1.1"
   id="Layer_1"
   x="0px"
   y="0px"
   viewBox="0 0 744 180"
   xml:space="preserve"
   sodipodi:docname="ffa-logo.svg"
   width="744"
   height="180"
   inkscape:version="1.1 (ce6663b3b7, 2021-05-25)"
   xmlns:inkscape="http://www.inkscape.org/namespaces/inkscape"
   xmlns:sodipodi="http://sodipodi.sourceforge.net/DTD/sodipodi-0.dtd"
   xmlns="http://www.w3.org/2000/svg"
   xmlns:svg="http://www.w3.org/2000/svg"><defs
   id="defs89" /><sodipodi:namedview
   id="namedview87"
   pagecolor="#ffffff"
   bordercolor="#666666"
   borderopacity="1.0"
   inkscape:pageshadow="2"
   inkscape:pageopacity="0.0"
   inkscape:pagecheckerboard="0"
   showgrid="false"
   inkscape:zoom="1.7209544"
   inkscape:cx="243.7601"
   inkscape:cy="209.76733"
   inkscape:window-width="3768"
   inkscape:window-height="2086"
   inkscape:window-x="0"
   inkscape:window-y="0"
   inkscape:window-maximized="1"
   inkscape:current-layer="Layer_1" />
<style
   type="text/css"
   id="style2">
	.st0{fill:#0055B8;}
	.st1{fill-rule:evenodd;clip-rule:evenodd;fill:#0055B8;}
</style>
<g
   id="g84"
   transform="translate(-109.39606,-119.19485)">
	<g
   id="g6">
		<path
   class="st0"
   d="m 292.93,262.35 -0.68,-0.6 v -3.89 l 0.68,-0.61 c 3.66,-0.05 6.01,-0.24 7.05,-0.55 1.05,-0.34 2,-0.98 2.81,-1.96 0.83,-0.98 2.49,-4.15 4.99,-9.56 l 7.87,-17.1 20.41,-46.21 c 3.85,-9.06 7.68,-18.1 11.48,-27.16 h 4.88 l 32.02,75.32 4.28,10.06 c 1.25,2.84 2.69,5.95 4.31,9.31 1.63,3.34 2.75,5.31 3.37,5.91 0.63,0.6 1.41,1.06 2.34,1.4 0.92,0.31 2.99,0.5 6.18,0.55 l 0.6,0.61 v 3.89 l -0.6,0.6 c -5.3,-0.45 -10.07,-0.68 -14.33,-0.68 -8.3,0.26 -16.61,0.47 -24.91,0.68 l -0.58,-0.6 v -3.89 l 0.58,-0.61 c 5.6,-0.1 9.11,-0.35 10.5,-0.71 1.4,-0.37 2.11,-1.24 2.11,-2.58 0,-1.11 -0.35,-2.55 -1.06,-4.36 l -9.21,-22.87 h -43.45 l -8.17,19.2 c -1.44,3.47 -2.17,5.98 -2.17,7.57 0,1.26 0.68,2.18 2.01,2.79 1.36,0.6 4.75,0.92 10.21,0.97 l 0.68,0.61 v 3.89 l -0.61,0.6 c -6.43,-0.4 -12.08,-0.6 -16.95,-0.6 -5.49,-0.02 -11.04,0.18 -16.64,0.58 z m 34.21,-42.09 h 37.97 l -18.85,-45.23 z"
   id="path4" />
	</g>
	<rect
   x="443.67001"
   y="125.9"
   class="st0"
   width="4"
   height="168.19"
   id="rect8" />
	<path
   class="st1"
   d="m 216.62,160.61 v -4.82 c 7.89,0.31 14.6,0.46 20.11,0.46 3.93,0 10.93,-0.09 21.01,-0.29 10.11,-0.2 16.92,-0.31 20.48,-0.31 3.76,0 7.26,0.05 10.37,0.14 3.18,0.05 6.05,0.18 8.59,0.39 -1.32,4.27 -2.13,11.91 -2.5,22.89 h -4.91 c -0.49,-6.1 -1.13,-10.76 -1.96,-14.07 -2.72,-0.9 -6.08,-1.54 -10.08,-1.96 -3.94,-0.44 -8.56,-0.69 -13.82,-0.69 -5.26,0 -10.68,0.3 -16.32,0.92 -0.31,2.72 -0.52,5.27 -0.63,7.62 -0.05,1.37 -0.18,7.14 -0.39,17.31 v 16.76 c 5.83,0.15 11,0.24 15.47,0.24 6.62,0 11.89,-0.33 15.85,-0.99 1.52,-0.25 2.49,-0.65 2.88,-1.2 0.49,-0.6 0.98,-2.74 1.5,-6.42 l 0.62,-4.7 h 4.93 l -0.56,17.24 0.56,18.5 h -4.93 l -0.54,-4.82 c -0.57,-5.5 -0.96,-8.43 -1.25,-8.85 -0.41,-0.7 -1.41,-1.24 -2.96,-1.58 -2.95,-0.64 -9.71,-0.98 -20.15,-0.99 -3.68,0 -7.48,0.12 -11.4,0.32 v 15.26 c 0,6.85 0.12,13.53 0.33,20.02 0.1,4.78 0.43,7.63 1.01,8.55 0.61,0.9 1.62,1.58 2.98,2.02 1.35,0.41 5.1,0.67 11.24,0.76 v 4.85 c -6.61,-0.42 -13.2,-0.62 -19.76,-0.62 -5.87,0 -14.46,0.2 -25.74,0.62 v -4.85 c 6.12,-0.09 9.87,-0.35 11.22,-0.76 1.35,-0.43 2.28,-1.05 2.8,-1.81 0.64,-1.01 1.01,-3.44 1.18,-7.31 0.06,-1.08 0.14,-8.22 0.3,-21.47 v -34.99 c 0,-6.83 -0.07,-13.55 -0.23,-20.1 -0.16,-4.78 -0.54,-7.59 -1.17,-8.46 -0.57,-0.91 -1.54,-1.56 -2.88,-1.96 -1.33,-0.45 -5.08,-0.73 -11.25,-0.85 m -99.85,0 v -4.82 c 7.91,0.31 14.64,0.46 20.14,0.46 3.9,0 10.91,-0.09 21.01,-0.29 10.1,-0.2 16.91,-0.31 20.45,-0.31 3.81,0 7.24,0.05 10.4,0.14 3.17,0.05 6.03,0.18 8.58,0.39 -1.29,4.27 -2.13,11.91 -2.51,22.89 h -4.92 c -0.45,-6.1 -1.12,-10.76 -1.93,-14.07 -2.72,-0.9 -6.09,-1.54 -10.1,-1.96 -3.93,-0.44 -8.55,-0.69 -13.81,-0.69 -5.26,0 -10.7,0.3 -16.31,0.92 -0.31,2.72 -0.54,5.27 -0.63,7.62 -0.07,1.37 -0.22,7.14 -0.39,17.31 v 16.76 c 5.83,0.15 10.98,0.24 15.45,0.24 6.61,0 11.89,-0.33 15.86,-0.99 1.51,-0.25 2.47,-0.65 2.88,-1.2 0.5,-0.6 0.95,-2.74 1.48,-6.42 l 0.64,-4.7 h 4.92 l -0.54,17.24 0.54,18.5 h -4.92 l -0.56,-4.82 c -0.58,-5.5 -0.98,-8.43 -1.25,-8.85 -0.41,-0.7 -1.4,-1.24 -2.96,-1.58 -2.98,-0.64 -9.69,-0.98 -20.15,-0.99 -3.68,0 -7.49,0.12 -11.39,0.32 v 15.26 c 0,6.85 0.11,13.53 0.31,20.02 0.11,4.78 0.42,7.63 0.99,8.55 0.65,0.9 1.63,1.58 2.99,2.02 1.34,0.41 5.1,0.67 11.24,0.76 v 4.85 c -6.62,-0.42 -13.18,-0.62 -19.75,-0.62 -5.91,0 -14.49,0.2 -25.77,0.62 v -4.85 c 6.14,-0.09 9.88,-0.35 11.24,-0.76 1.36,-0.43 2.28,-1.05 2.81,-1.81 0.63,-1.01 1,-3.44 1.17,-7.31 0.05,-1.08 0.15,-8.22 0.33,-21.47 v -34.99 c 0,-6.83 -0.08,-13.55 -0.24,-20.1 -0.16,-4.78 -0.56,-7.59 -1.17,-8.46 -0.58,-0.91 -1.54,-1.56 -2.89,-1.96 -1.3,-0.45 -5.06,-0.73 -11.24,-0.85"
   id="path10" />
	<g
   id="g58">
		<path
   class="st0"
   d="m 501.16,261.97 0.07,-0.07 h 0.38 l 0.07,0.07 c 0.01,0.67 0.04,1.07 0.1,1.22 0.04,0.15 0.19,0.3 0.43,0.46 0.23,0.17 0.54,0.31 0.95,0.41 0.38,0.11 0.79,0.15 1.18,0.15 0.56,0 1.05,-0.1 1.51,-0.29 0.42,-0.2 0.76,-0.51 1,-0.9 0.25,-0.4 0.38,-0.85 0.38,-1.33 0,-0.35 -0.07,-0.65 -0.18,-0.9 -0.12,-0.25 -0.29,-0.46 -0.49,-0.61 -0.22,-0.16 -0.45,-0.26 -0.72,-0.34 -0.29,-0.08 -0.68,-0.16 -1.22,-0.26 -0.52,-0.07 -0.94,-0.16 -1.24,-0.22 -0.29,-0.07 -0.58,-0.18 -0.87,-0.31 -0.3,-0.13 -0.54,-0.33 -0.75,-0.54 -0.18,-0.21 -0.34,-0.48 -0.46,-0.8 -0.11,-0.32 -0.18,-0.66 -0.18,-1.01 0,-0.96 0.35,-1.78 1.03,-2.41 0.67,-0.63 1.58,-0.94 2.73,-0.94 0.44,0 0.95,0.07 1.47,0.17 0.56,0.12 1.03,0.28 1.48,0.5 l 0.04,0.09 c -0.12,0.49 -0.19,1.17 -0.2,2.05 l -0.08,0.07 h -0.41 l -0.05,-0.05 c -0.01,-0.63 -0.04,-1.02 -0.04,-1.19 -0.03,-0.16 -0.27,-0.35 -0.73,-0.59 -0.44,-0.26 -0.92,-0.37 -1.47,-0.37 -0.45,0 -0.84,0.1 -1.24,0.28 -0.39,0.18 -0.68,0.45 -0.88,0.82 -0.21,0.39 -0.3,0.78 -0.3,1.18 0,0.29 0.05,0.58 0.16,0.81 0.14,0.24 0.3,0.43 0.49,0.56 0.19,0.14 0.41,0.25 0.65,0.3 0.27,0.08 0.72,0.16 1.42,0.26 0.92,0.12 1.58,0.28 1.98,0.47 0.44,0.19 0.78,0.48 1.03,0.88 0.24,0.39 0.37,0.89 0.37,1.45 0,1.1 -0.44,2.04 -1.36,2.77 -0.9,0.75 -2,1.12 -3.28,1.12 -1.09,0 -2.05,-0.2 -2.85,-0.58 l -0.04,-0.11 c 0.05,-0.31 0.1,-1.06 0.12,-2.27 z"
   id="path12" />
		<path
   class="st0"
   d="m 512.72,259.26 c 0,-0.78 0.11,-1.51 0.32,-2.2 0.23,-0.67 0.61,-1.3 1.16,-1.88 0.54,-0.58 1.2,-1.03 1.96,-1.34 0.75,-0.32 1.62,-0.48 2.58,-0.48 1.78,0 3.21,0.49 4.25,1.46 1.06,0.97 1.58,2.3 1.58,3.97 0,1.18 -0.26,2.24 -0.76,3.17 -0.52,0.94 -1.26,1.67 -2.24,2.2 -0.95,0.52 -2.04,0.78 -3.23,0.78 -0.86,0 -1.64,-0.14 -2.35,-0.43 -0.71,-0.29 -1.33,-0.72 -1.82,-1.28 -0.52,-0.56 -0.88,-1.21 -1.1,-1.96 -0.25,-0.72 -0.35,-1.39 -0.35,-2.01 z m 1.62,-0.51 c 0,0.63 0.08,1.32 0.3,2.05 0.22,0.74 0.52,1.36 0.93,1.89 0.42,0.53 0.88,0.91 1.43,1.17 0.54,0.26 1.16,0.39 1.82,0.39 0.81,0 1.54,-0.19 2.16,-0.57 0.64,-0.37 1.13,-0.94 1.44,-1.71 0.33,-0.79 0.5,-1.67 0.5,-2.63 0,-1.06 -0.21,-2.01 -0.57,-2.86 -0.37,-0.85 -0.91,-1.47 -1.6,-1.86 -0.69,-0.37 -1.47,-0.58 -2.31,-0.58 -1.26,0 -2.26,0.39 -3,1.2 -0.74,0.78 -1.1,1.95 -1.1,3.51 z"
   id="path14" />
		<path
   class="st0"
   d="m 539.24,263.34 -0.3,0.72 c -1.17,0.59 -2.39,0.89 -3.71,0.89 -1.89,0 -3.41,-0.54 -4.6,-1.61 -1.18,-1.06 -1.78,-2.46 -1.78,-4.2 0,-1.19 0.3,-2.23 0.9,-3.12 0.57,-0.9 1.36,-1.56 2.32,-2 0.95,-0.44 2.04,-0.66 3.23,-0.66 0.71,0 1.39,0.07 2.07,0.22 0.68,0.15 1.25,0.32 1.7,0.53 l 0.05,0.07 c -0.12,0.3 -0.22,1.02 -0.34,2.16 l -0.04,0.07 h -0.38 l -0.05,-0.07 -0.09,-1.33 c -0.37,-0.3 -0.83,-0.52 -1.37,-0.7 -0.54,-0.18 -1.1,-0.26 -1.67,-0.26 -0.9,0 -1.7,0.19 -2.39,0.58 -0.69,0.37 -1.24,0.92 -1.62,1.64 -0.39,0.72 -0.58,1.59 -0.58,2.64 0,1.04 0.22,1.97 0.68,2.74 0.46,0.79 1.07,1.4 1.86,1.82 0.79,0.42 1.7,0.63 2.74,0.63 0.46,0 0.92,-0.05 1.35,-0.12 0.42,-0.1 0.79,-0.21 1.07,-0.33 0.29,-0.14 0.56,-0.3 0.81,-0.48 z"
   id="path16" />
		<path
   class="st0"
   d="m 543.51,253.6 0.98,0.03 c 0.65,0.02 1.06,0.03 1.26,0.03 0.19,0 0.94,-0.01 2.24,-0.05 l 0.05,0.05 v 0.39 L 548,254.1 c -0.34,0.01 -0.64,0.03 -0.83,0.04 -0.19,0.01 -0.33,0.05 -0.42,0.12 -0.1,0.06 -0.15,0.2 -0.18,0.4 -0.01,0.21 -0.05,0.5 -0.05,0.88 v 1.81 3.61 1.53 c 0,0.61 0.03,0.98 0.05,1.15 0.01,0.16 0.07,0.29 0.11,0.35 0.04,0.05 0.15,0.1 0.29,0.14 0.15,0.04 0.49,0.07 1.03,0.08 l 0.05,0.05 v 0.39 l -0.05,0.07 c 0,0 -0.47,-0.02 -1.36,-0.05 -0.38,0 -0.68,-0.02 -0.88,-0.02 -0.16,0 -0.9,0.03 -2.24,0.07 l -0.05,-0.07 v -0.39 l 0.05,-0.05 c 0.5,-0.01 0.81,-0.03 0.98,-0.07 0.16,-0.03 0.26,-0.07 0.33,-0.12 0.05,-0.04 0.11,-0.16 0.13,-0.31 0.03,-0.16 0.05,-0.53 0.05,-1.09 l 0.01,-1.66 v -3.61 l -0.01,-1.54 c -0.01,-0.59 -0.03,-0.96 -0.04,-1.14 -0.03,-0.18 -0.07,-0.29 -0.12,-0.35 -0.05,-0.06 -0.15,-0.1 -0.29,-0.13 -0.14,-0.04 -0.49,-0.07 -1.05,-0.08 l -0.05,-0.07 v -0.39 z"
   id="path18" />
		<path
   class="st0"
   d="m 552.4,253.65 0.07,-0.05 c 1.79,0.03 2.92,0.04 3.43,0.04 1.72,0 3.25,-0.01 4.58,-0.04 l 0.03,0.05 c -0.12,0.5 -0.21,1.3 -0.29,2.37 l -0.03,0.05 h -0.38 l -0.08,-0.05 c 0,-0.05 0,-0.09 0,-0.12 0,-0.46 -0.03,-0.88 -0.1,-1.28 -0.32,-0.15 -0.79,-0.24 -1.37,-0.29 -0.57,-0.03 -1.02,-0.06 -1.32,-0.06 -0.39,0 -0.93,0.03 -1.58,0.09 l -0.03,1.26 -0.01,1.43 -0.04,1.59 c 0.57,0.03 1.09,0.05 1.58,0.05 0.47,0 0.88,-0.02 1.2,-0.05 0.33,-0.04 0.5,-0.07 0.57,-0.11 0.07,-0.04 0.1,-0.1 0.12,-0.19 0.03,-0.11 0.04,-0.26 0.08,-0.5 l 0.03,-0.5 0.07,-0.05 h 0.35 l 0.07,0.05 c -0.02,0.59 -0.03,1.15 -0.04,1.73 l 0.04,1.75 -0.07,0.07 h -0.35 l -0.07,-0.07 -0.07,-0.46 c -0.03,-0.37 -0.07,-0.59 -0.1,-0.65 0,-0.07 -0.07,-0.14 -0.13,-0.19 -0.07,-0.05 -0.27,-0.08 -0.59,-0.12 -0.31,-0.04 -0.75,-0.04 -1.29,-0.04 -0.31,0 -0.78,0 -1.4,0.03 -0.01,0.44 -0.03,1.18 -0.03,2.2 0,1.1 0.02,1.9 0.03,2.43 h 1.46 c 1.26,0 2.05,-0.02 2.38,-0.05 0.31,-0.03 0.61,-0.11 0.91,-0.22 0.04,-0.12 0.12,-0.41 0.23,-0.84 0.11,-0.43 0.16,-0.71 0.18,-0.81 l 0.07,-0.05 h 0.39 l 0.07,0.05 c -0.05,0.23 -0.11,0.62 -0.15,1.18 -0.04,0.54 -0.05,1.02 -0.05,1.43 l -0.05,0.07 c -1.01,-0.04 -2.31,-0.05 -3.93,-0.05 l -2.13,-0.02 c -0.49,0 -1,0.03 -1.54,0.07 l -0.07,-0.07 v -0.26 l 0.07,-0.08 c 0.3,-0.15 0.48,-0.25 0.52,-0.3 0.05,-0.03 0.08,-0.49 0.11,-1.36 0.04,-0.88 0.04,-1.54 0.04,-2 v -2.87 -1.77 c 0,-0.39 0,-0.71 -0.01,-0.95 -0.01,-0.24 -0.03,-0.41 -0.05,-0.52 -0.03,-0.11 -0.07,-0.16 -0.1,-0.22 -0.03,-0.03 -0.08,-0.07 -0.16,-0.1 -0.08,-0.04 -0.2,-0.07 -0.39,-0.08 l -0.59,-0.04 -0.07,-0.07 v -0.44 z"
   id="path20" />
		<path
   class="st0"
   d="m 565.23,253.65 0.07,-0.05 c 0.9,0.04 1.52,0.05 1.85,0.05 l 3.67,-0.07 c 1.03,0 1.89,0.09 2.57,0.3 0.66,0.2 1.26,0.54 1.77,1 0.52,0.5 0.93,1.06 1.2,1.7 0.27,0.64 0.39,1.32 0.39,2.05 0,0.71 -0.12,1.39 -0.37,2.09 -0.25,0.69 -0.59,1.29 -1.06,1.84 -0.43,0.55 -0.95,0.99 -1.52,1.33 -0.58,0.33 -1.15,0.56 -1.74,0.67 -0.57,0.12 -1.17,0.18 -1.77,0.18 -0.41,0 -1.18,-0.02 -2.31,-0.05 -0.38,0 -0.63,-0.02 -0.73,-0.02 -0.35,0 -0.8,0.03 -1.32,0.07 l -0.07,-0.07 v -0.26 l 0.07,-0.08 c 0.32,-0.15 0.49,-0.25 0.53,-0.3 0.04,-0.03 0.08,-0.49 0.11,-1.36 0.03,-0.88 0.05,-1.54 0.05,-2 v -2.87 -1.77 c 0,-0.39 0,-0.71 -0.03,-0.95 -0.01,-0.24 -0.04,-0.41 -0.07,-0.52 -0.01,-0.11 -0.05,-0.16 -0.08,-0.22 -0.03,-0.03 -0.08,-0.07 -0.15,-0.1 -0.1,-0.04 -0.22,-0.07 -0.39,-0.08 l -0.6,-0.04 -0.07,-0.07 z m 2.91,10.21 c 0.52,0.12 1.14,0.16 1.82,0.16 1.23,0 2.2,-0.2 2.93,-0.61 0.72,-0.41 1.25,-1.01 1.63,-1.79 0.36,-0.82 0.53,-1.7 0.53,-2.7 0,-1.48 -0.38,-2.64 -1.18,-3.45 -0.78,-0.81 -2.03,-1.21 -3.72,-1.21 -0.69,0 -1.37,0.04 -2.01,0.15 -0.05,0.86 -0.07,1.82 -0.07,2.89 v 2.47 l 0.01,2.29 c 0,0.45 0.01,1.05 0.06,1.8 z"
   id="path22" />
		<path
   class="st0"
   d="m 581.11,264.73 -0.05,-0.07 v -0.41 l 0.05,-0.07 c 0.39,0 0.61,-0.02 0.73,-0.05 0.12,-0.02 0.22,-0.11 0.3,-0.21 0.1,-0.1 0.26,-0.44 0.53,-0.99 l 0.81,-1.79 2.13,-4.82 c 0.41,-0.94 0.8,-1.89 1.2,-2.83 h 0.5 l 3.34,7.85 0.45,1.05 c 0.13,0.3 0.29,0.63 0.46,0.98 0.16,0.35 0.27,0.56 0.34,0.62 0.07,0.06 0.15,0.12 0.24,0.14 0.1,0.03 0.31,0.05 0.64,0.05 l 0.08,0.07 v 0.41 l -0.08,0.07 c -0.54,-0.05 -1.04,-0.08 -1.49,-0.08 -0.86,0.04 -1.71,0.06 -2.58,0.08 l -0.07,-0.07 v -0.41 l 0.07,-0.07 c 0.57,0 0.95,-0.04 1.07,-0.07 0.16,-0.04 0.23,-0.13 0.23,-0.27 0,-0.12 -0.04,-0.26 -0.11,-0.45 L 588.94,261 h -4.54 l -0.86,2 c -0.14,0.37 -0.22,0.64 -0.22,0.8 0,0.13 0.07,0.22 0.2,0.28 0.15,0.06 0.5,0.1 1.07,0.1 l 0.07,0.07 v 0.41 l -0.07,0.07 c -0.67,-0.04 -1.25,-0.07 -1.75,-0.07 -0.56,0 -1.13,0.03 -1.73,0.07 z m 3.58,-4.4 h 3.97 l -1.96,-4.72 z"
   id="path24" />
		<path
   class="st0"
   d="m 596.85,253.65 0.07,-0.05 c 0.91,0.04 1.52,0.05 1.84,0.05 l 3.68,-0.07 c 1.03,0 1.89,0.09 2.55,0.3 0.68,0.2 1.26,0.54 1.79,1 0.5,0.5 0.93,1.06 1.18,1.7 0.27,0.64 0.41,1.32 0.41,2.05 0,0.71 -0.12,1.39 -0.37,2.09 -0.24,0.69 -0.6,1.29 -1.05,1.84 -0.46,0.55 -0.96,0.99 -1.55,1.33 -0.57,0.33 -1.15,0.56 -1.74,0.67 -0.57,0.12 -1.17,0.18 -1.78,0.18 -0.39,0 -1.17,-0.02 -2.3,-0.05 -0.37,0 -0.63,-0.02 -0.73,-0.02 -0.37,0 -0.8,0.03 -1.32,0.07 l -0.05,-0.07 v -0.26 l 0.05,-0.08 c 0.33,-0.15 0.5,-0.25 0.53,-0.3 0.04,-0.03 0.1,-0.49 0.11,-1.36 0.06,-0.88 0.06,-1.54 0.06,-2 v -2.87 -1.77 c 0,-0.39 0,-0.71 -0.03,-0.95 -0.01,-0.24 -0.03,-0.41 -0.05,-0.52 -0.04,-0.11 -0.05,-0.16 -0.09,-0.22 -0.03,-0.03 -0.08,-0.07 -0.18,-0.1 -0.05,-0.04 -0.19,-0.07 -0.37,-0.08 l -0.6,-0.04 -0.07,-0.07 v -0.4 z m 2.91,10.21 c 0.53,0.12 1.14,0.16 1.83,0.16 1.22,0 2.19,-0.2 2.92,-0.61 0.73,-0.41 1.28,-1.01 1.63,-1.79 0.35,-0.82 0.54,-1.7 0.54,-2.7 0,-1.48 -0.41,-2.64 -1.2,-3.45 -0.78,-0.81 -2.02,-1.21 -3.72,-1.21 -0.69,0 -1.37,0.04 -2.01,0.15 -0.04,0.86 -0.07,1.82 -0.07,2.89 v 2.47 l 0.03,2.29 c 0.01,0.45 0.01,1.05 0.05,1.8 z"
   id="path26" />
		<path
   class="st0"
   d="m 612.98,253.65 0.07,-0.05 c 1.78,0.03 2.92,0.04 3.44,0.04 1.7,0 3.23,-0.01 4.58,-0.04 l 0.03,0.05 c -0.15,0.5 -0.23,1.3 -0.3,2.37 l -0.05,0.05 h -0.37 l -0.07,-0.05 c 0,-0.05 0,-0.09 0,-0.12 0,-0.46 -0.02,-0.88 -0.11,-1.28 -0.31,-0.15 -0.77,-0.24 -1.36,-0.29 -0.58,-0.03 -1.01,-0.06 -1.3,-0.06 -0.42,0 -0.94,0.03 -1.59,0.09 l -0.03,1.26 -0.03,1.43 -0.01,1.59 c 0.57,0.03 1.09,0.05 1.55,0.05 0.48,0 0.88,-0.02 1.21,-0.05 0.32,-0.04 0.52,-0.07 0.57,-0.11 0.04,-0.04 0.1,-0.1 0.12,-0.19 0.01,-0.11 0.04,-0.26 0.08,-0.5 l 0.03,-0.5 0.05,-0.05 h 0.35 l 0.07,0.05 c 0,0.59 -0.01,1.15 -0.03,1.73 l 0.03,1.75 -0.07,0.07 h -0.35 l -0.05,-0.07 -0.07,-0.46 c -0.04,-0.37 -0.08,-0.59 -0.1,-0.65 -0.03,-0.07 -0.07,-0.14 -0.14,-0.19 -0.08,-0.05 -0.29,-0.08 -0.58,-0.12 -0.31,-0.04 -0.75,-0.04 -1.29,-0.04 -0.3,0 -0.78,0 -1.39,0.03 -0.04,0.44 -0.05,1.18 -0.05,2.2 0,1.1 0.01,1.9 0.05,2.43 h 1.44 c 1.25,0 2.05,-0.02 2.38,-0.05 0.31,-0.03 0.63,-0.11 0.9,-0.22 0.05,-0.12 0.13,-0.41 0.24,-0.84 0.1,-0.43 0.18,-0.71 0.18,-0.81 l 0.08,-0.05 h 0.37 l 0.07,0.05 c -0.05,0.23 -0.09,0.62 -0.14,1.18 -0.05,0.54 -0.07,1.02 -0.07,1.43 l -0.05,0.07 c -0.98,-0.04 -2.3,-0.05 -3.91,-0.05 l -2.15,-0.02 c -0.48,0 -0.99,0.03 -1.54,0.07 l -0.05,-0.07 v -0.26 l 0.05,-0.08 c 0.31,-0.15 0.49,-0.25 0.54,-0.3 0.03,-0.03 0.07,-0.49 0.11,-1.36 0.01,-0.88 0.04,-1.54 0.04,-2 v -2.87 -1.77 c 0,-0.39 -0.03,-0.71 -0.04,-0.95 0,-0.24 -0.03,-0.41 -0.04,-0.52 -0.03,-0.11 -0.07,-0.16 -0.1,-0.22 -0.04,-0.03 -0.09,-0.07 -0.16,-0.1 -0.08,-0.04 -0.2,-0.07 -0.39,-0.08 l -0.59,-0.04 -0.07,-0.07 v -0.44 z"
   id="path28" />
		<path
   class="st0"
   d="m 633.19,253.65 0.07,-0.05 c 0.9,0.04 1.52,0.05 1.85,0.05 l 3.67,-0.07 c 1.03,0 1.89,0.09 2.56,0.3 0.68,0.2 1.26,0.54 1.78,1 0.52,0.5 0.92,1.06 1.2,1.7 0.26,0.64 0.39,1.32 0.39,2.05 0,0.71 -0.11,1.39 -0.37,2.09 -0.24,0.69 -0.6,1.29 -1.03,1.84 -0.47,0.55 -0.98,0.99 -1.55,1.33 -0.59,0.33 -1.16,0.56 -1.75,0.67 -0.57,0.12 -1.17,0.18 -1.77,0.18 -0.41,0 -1.17,-0.02 -2.29,-0.05 -0.37,0 -0.63,-0.02 -0.75,-0.02 -0.35,0 -0.79,0.03 -1.3,0.07 l -0.07,-0.07 v -0.26 l 0.07,-0.08 c 0.31,-0.15 0.49,-0.25 0.53,-0.3 0.04,-0.03 0.08,-0.49 0.11,-1.36 0.03,-0.88 0.05,-1.54 0.05,-2 v -2.87 l -0.03,-1.77 c 0,-0.39 0,-0.71 -0.01,-0.95 0,-0.24 -0.03,-0.41 -0.05,-0.52 -0.03,-0.11 -0.04,-0.16 -0.08,-0.22 -0.03,-0.03 -0.09,-0.07 -0.18,-0.1 -0.07,-0.04 -0.19,-0.07 -0.38,-0.08 l -0.58,-0.04 -0.07,-0.07 v -0.4 z m 2.9,10.21 c 0.53,0.12 1.14,0.16 1.85,0.16 1.21,0 2.19,-0.2 2.92,-0.61 0.72,-0.41 1.27,-1.01 1.62,-1.79 0.35,-0.82 0.54,-1.7 0.54,-2.7 0,-1.48 -0.41,-2.64 -1.18,-3.45 -0.79,-0.81 -2.03,-1.21 -3.72,-1.21 -0.69,0 -1.37,0.04 -2.02,0.15 -0.04,0.86 -0.05,1.82 -0.05,2.89 v 2.47 l 0.01,2.29 c -0.01,0.45 0,1.05 0.03,1.8 z"
   id="path30" />
		<path
   class="st0"
   d="m 649.31,253.65 0.07,-0.05 c 1.78,0.03 2.92,0.04 3.43,0.04 1.71,0 3.25,-0.01 4.59,-0.04 l 0.03,0.05 c -0.12,0.5 -0.23,1.3 -0.29,2.37 l -0.04,0.05 h -0.39 l -0.07,-0.05 c 0,-0.05 0,-0.09 0,-0.12 0,-0.46 -0.04,-0.88 -0.09,-1.28 -0.33,-0.15 -0.79,-0.24 -1.39,-0.29 -0.56,-0.03 -1.01,-0.06 -1.29,-0.06 -0.42,0 -0.96,0.03 -1.57,0.09 l -0.04,1.26 -0.03,1.43 -0.01,1.59 c 0.56,0.03 1.07,0.05 1.56,0.05 0.46,0 0.87,-0.02 1.2,-0.05 0.31,-0.04 0.52,-0.07 0.56,-0.11 0.05,-0.04 0.11,-0.1 0.15,-0.19 0.03,-0.11 0.04,-0.26 0.05,-0.5 l 0.03,-0.5 0.07,-0.05 h 0.37 l 0.07,0.05 c 0,0.59 -0.03,1.15 -0.04,1.73 l 0.04,1.75 -0.07,0.07 h -0.37 l -0.07,-0.07 -0.04,-0.46 c -0.04,-0.37 -0.08,-0.59 -0.12,-0.65 -0.01,-0.07 -0.05,-0.14 -0.14,-0.19 -0.07,-0.05 -0.26,-0.08 -0.57,-0.12 -0.31,-0.04 -0.75,-0.04 -1.3,-0.04 -0.3,0 -0.76,0 -1.37,0.03 -0.03,0.44 -0.05,1.16 -0.05,2.2 0,1.1 0.03,1.9 0.05,2.43 h 1.44 c 1.26,0 2.05,-0.02 2.38,-0.05 0.31,-0.03 0.61,-0.11 0.9,-0.22 0.05,-0.12 0.14,-0.41 0.25,-0.84 0.11,-0.43 0.15,-0.71 0.18,-0.81 l 0.08,-0.05 h 0.38 l 0.07,0.05 c -0.07,0.23 -0.11,0.62 -0.15,1.18 -0.04,0.54 -0.07,1.02 -0.07,1.43 l -0.05,0.07 c -1.01,-0.04 -2.3,-0.05 -3.91,-0.05 l -2.12,-0.02 c -0.5,0 -1.03,0.03 -1.55,0.07 l -0.07,-0.07 v -0.26 l 0.07,-0.08 c 0.3,-0.15 0.47,-0.25 0.52,-0.3 0.05,-0.03 0.08,-0.49 0.1,-1.36 0.05,-0.88 0.07,-1.54 0.07,-2 v -2.87 l -0.01,-1.77 c 0,-0.39 0,-0.71 -0.01,-0.95 -0.01,-0.24 -0.04,-0.41 -0.07,-0.52 -0.01,-0.11 -0.07,-0.16 -0.08,-0.22 -0.06,-0.03 -0.1,-0.07 -0.16,-0.1 -0.09,-0.04 -0.2,-0.07 -0.38,-0.08 l -0.6,-0.04 -0.07,-0.07 v -0.44 z"
   id="path32" />
		<path
   class="st0"
   d="m 669.63,264.73 -0.07,-0.07 v -0.41 l 0.07,-0.07 c 0.38,0 0.64,-0.02 0.73,-0.05 0.11,-0.02 0.22,-0.11 0.3,-0.21 0.08,-0.1 0.26,-0.44 0.52,-0.99 l 0.83,-1.79 2.12,-4.82 c 0.41,-0.94 0.8,-1.89 1.21,-2.83 h 0.5 l 3.34,7.85 0.45,1.05 c 0.13,0.3 0.29,0.63 0.45,0.98 0.18,0.35 0.3,0.56 0.35,0.62 0.07,0.06 0.13,0.12 0.24,0.14 0.1,0.03 0.31,0.05 0.64,0.05 l 0.07,0.07 v 0.41 l -0.07,0.07 c -0.54,-0.05 -1.04,-0.08 -1.48,-0.08 -0.87,0.04 -1.74,0.06 -2.61,0.08 l -0.05,-0.07 v -0.41 l 0.05,-0.07 c 0.58,0 0.95,-0.04 1.1,-0.07 0.15,-0.04 0.22,-0.13 0.22,-0.27 0,-0.12 -0.04,-0.26 -0.12,-0.45 L 677.48,261 h -4.55 l -0.84,2 c -0.16,0.37 -0.23,0.64 -0.23,0.8 0,0.13 0.07,0.22 0.21,0.28 0.15,0.06 0.5,0.1 1.07,0.1 l 0.07,0.07 v 0.41 l -0.07,0.07 c -0.66,-0.04 -1.26,-0.07 -1.77,-0.07 -0.57,0 -1.16,0.03 -1.74,0.07 z m 3.57,-4.4 h 3.97 l -1.97,-4.72 z"
   id="path34" />
		<path
   class="st0"
   d="m 685.36,253.65 0.07,-0.05 c 0.9,0.04 1.51,0.05 1.85,0.05 l 3.66,-0.07 c 1.06,0 1.9,0.09 2.57,0.3 0.67,0.2 1.26,0.54 1.79,1 0.52,0.5 0.89,1.06 1.17,1.7 0.29,0.64 0.41,1.32 0.41,2.05 0,0.71 -0.12,1.39 -0.37,2.09 -0.25,0.69 -0.6,1.29 -1.05,1.84 -0.45,0.55 -0.97,0.99 -1.54,1.33 -0.57,0.33 -1.15,0.56 -1.72,0.67 -0.59,0.12 -1.18,0.18 -1.79,0.18 -0.41,0 -1.17,-0.02 -2.3,-0.05 -0.37,0 -0.63,-0.02 -0.73,-0.02 -0.38,0 -0.8,0.03 -1.3,0.07 L 686,264.67 v -0.26 l 0.08,-0.08 c 0.3,-0.15 0.47,-0.25 0.52,-0.3 0.05,-0.03 0.08,-0.49 0.12,-1.36 0.01,-0.88 0.03,-1.54 0.03,-2 v -2.87 -1.77 c 0,-0.39 -0.02,-0.71 -0.02,-0.95 -0.01,-0.24 -0.03,-0.41 -0.05,-0.52 -0.03,-0.11 -0.07,-0.16 -0.1,-0.22 -0.03,-0.03 -0.09,-0.07 -0.16,-0.1 -0.07,-0.04 -0.21,-0.07 -0.39,-0.08 l -0.59,-0.04 -0.07,-0.07 v -0.4 z m 2.9,10.21 c 0.54,0.12 1.16,0.16 1.85,0.16 1.21,0 2.19,-0.2 2.91,-0.61 0.73,-0.41 1.28,-1.01 1.64,-1.79 0.35,-0.82 0.54,-1.7 0.54,-2.7 0,-1.48 -0.41,-2.64 -1.2,-3.45 -0.79,-0.81 -2.01,-1.21 -3.74,-1.21 -0.68,0 -1.37,0.04 -2.01,0.15 -0.04,0.86 -0.05,1.82 -0.05,2.89 v 2.47 l 0.02,2.29 c 0,0.45 0.01,1.05 0.04,1.8 z"
   id="path36" />
		<path
   class="st0"
   d="m 706.31,264.8 c -0.08,-0.23 -0.41,-1.1 -0.98,-2.64 l -2.66,-6.58 c -0.31,-0.75 -0.49,-1.18 -0.57,-1.28 -0.08,-0.11 -0.38,-0.17 -0.94,-0.21 l -0.07,-0.07 v -0.36 l 0.07,-0.07 c 0.79,0.04 1.47,0.05 2.03,0.05 0.53,0 1.22,-0.01 2.09,-0.05 l 0.05,0.05 v 0.44 l -0.05,0.05 c -0.65,0 -1.02,0.01 -1.14,0.07 -0.12,0.04 -0.19,0.11 -0.19,0.22 0,0.07 0.08,0.35 0.26,0.84 0.16,0.49 0.31,0.91 0.45,1.24 l 2.45,6.2 2.04,-5.14 c 0.15,-0.35 0.35,-0.91 0.63,-1.68 0.27,-0.79 0.41,-1.25 0.41,-1.41 0,-0.14 -0.05,-0.22 -0.19,-0.24 -0.14,-0.05 -0.52,-0.1 -1.15,-0.14 l -0.07,-0.07 v -0.38 l 0.07,-0.05 c 0.91,0.04 1.49,0.05 1.74,0.05 0.2,0 0.73,-0.01 1.59,-0.05 l 0.07,0.05 v 0.38 l -0.07,0.07 c -0.38,0.01 -0.58,0.04 -0.68,0.08 -0.07,0.04 -0.15,0.12 -0.21,0.23 -0.05,0.12 -0.24,0.54 -0.57,1.25 l -2.43,6.01 c -0.55,1.35 -0.94,2.39 -1.17,3.13 h -0.81 z"
   id="path38" />
		<path
   class="st0"
   d="m 716.24,259.26 c 0,-0.78 0.11,-1.51 0.35,-2.2 0.22,-0.67 0.6,-1.31 1.14,-1.88 0.53,-0.58 1.18,-1.03 1.95,-1.34 0.77,-0.32 1.63,-0.48 2.6,-0.48 1.77,0 3.19,0.49 4.24,1.46 1.06,0.97 1.59,2.3 1.59,3.97 0,1.18 -0.26,2.24 -0.79,3.17 -0.5,0.94 -1.25,1.67 -2.2,2.2 -0.98,0.52 -2.07,0.78 -3.25,0.78 -0.87,0 -1.64,-0.14 -2.37,-0.43 -0.69,-0.29 -1.33,-0.72 -1.82,-1.28 -0.52,-0.56 -0.87,-1.21 -1.09,-1.96 -0.24,-0.72 -0.35,-1.39 -0.35,-2.01 z m 1.63,-0.51 c 0,0.63 0.09,1.32 0.3,2.05 0.23,0.74 0.53,1.36 0.92,1.89 0.42,0.53 0.9,0.91 1.43,1.17 0.54,0.26 1.14,0.39 1.83,0.39 0.81,0 1.54,-0.19 2.16,-0.57 0.62,-0.37 1.11,-0.94 1.44,-1.71 0.33,-0.79 0.5,-1.67 0.5,-2.63 0,-1.06 -0.19,-2.01 -0.57,-2.86 -0.39,-0.85 -0.91,-1.47 -1.62,-1.86 -0.69,-0.37 -1.45,-0.58 -2.32,-0.58 -1.24,0 -2.26,0.39 -2.98,1.2 -0.72,0.78 -1.09,1.95 -1.09,3.51 z"
   id="path40" />
		<path
   class="st0"
   d="m 743.57,260.38 v 0.24 l -0.01,0.1 -0.38,0.22 c -0.11,0.06 -0.15,0.1 -0.18,0.14 -0.02,0.03 -0.03,0.18 -0.05,0.46 -0.03,0.27 -0.05,0.61 -0.05,1.02 0,0.46 0.05,0.95 0.09,1.48 l -0.04,0.08 c -1.43,0.54 -2.91,0.82 -4.42,0.82 -1.15,0 -2.2,-0.22 -3.13,-0.66 -0.94,-0.44 -1.69,-1.09 -2.24,-1.95 -0.53,-0.88 -0.83,-1.89 -0.83,-3.08 0,-1.79 0.63,-3.23 1.86,-4.29 1.24,-1.07 2.86,-1.61 4.84,-1.61 1.47,0 2.77,0.25 3.94,0.75 l 0.07,0.08 c -0.09,0.34 -0.22,1.07 -0.35,2.2 l -0.04,0.05 h -0.38 l -0.04,-0.05 -0.04,-0.84 c -0.03,-0.27 -0.04,-0.43 -0.05,-0.47 -0.03,-0.04 -0.08,-0.11 -0.18,-0.18 -0.08,-0.08 -0.33,-0.21 -0.71,-0.37 -0.39,-0.16 -0.8,-0.29 -1.2,-0.35 -0.38,-0.08 -0.8,-0.12 -1.25,-0.12 -0.95,0 -1.8,0.2 -2.54,0.6 -0.72,0.4 -1.29,0.97 -1.66,1.74 -0.37,0.75 -0.57,1.6 -0.57,2.53 0,0.96 0.2,1.86 0.61,2.69 0.39,0.82 0.98,1.48 1.73,1.93 0.75,0.46 1.63,0.71 2.62,0.71 0.45,0 0.88,-0.05 1.33,-0.14 0.45,-0.1 0.81,-0.2 1.11,-0.37 0.04,-0.16 0.08,-0.5 0.08,-1.01 v -0.86 c 0,-0.41 -0.04,-0.68 -0.08,-0.77 -0.07,-0.1 -0.18,-0.17 -0.38,-0.21 -0.22,-0.05 -0.67,-0.08 -1.35,-0.1 l -0.08,-0.07 v -0.35 l 0.08,-0.06 0.47,0.02 c 0.82,0.03 1.5,0.04 2.01,0.04 0.3,0 0.73,-0.03 1.3,-0.05 z"
   id="path42" />
		<path
   class="st0"
   d="m 747.8,264.73 -0.05,-0.07 v -0.41 l 0.05,-0.07 c 0.38,0 0.63,-0.02 0.73,-0.05 0.12,-0.02 0.2,-0.11 0.29,-0.21 0.09,-0.1 0.27,-0.44 0.53,-0.99 l 0.83,-1.79 2.12,-4.82 c 0.42,-0.94 0.82,-1.89 1.21,-2.83 h 0.5 l 3.35,7.85 0.45,1.05 c 0.12,0.3 0.27,0.63 0.45,0.98 0.18,0.35 0.3,0.56 0.36,0.62 0.07,0.06 0.15,0.12 0.24,0.14 0.11,0.03 0.31,0.05 0.65,0.05 l 0.05,0.07 v 0.41 l -0.05,0.07 c -0.56,-0.05 -1.06,-0.08 -1.51,-0.08 -0.86,0.04 -1.73,0.06 -2.6,0.08 l -0.05,-0.07 v -0.41 l 0.05,-0.07 c 0.59,0 0.95,-0.04 1.1,-0.07 0.14,-0.04 0.22,-0.13 0.22,-0.27 0,-0.12 -0.04,-0.26 -0.11,-0.45 L 755.65,261 h -4.53 l -0.87,2 c -0.15,0.37 -0.22,0.64 -0.22,0.8 0,0.13 0.05,0.22 0.22,0.28 0.12,0.06 0.5,0.1 1.06,0.1 l 0.07,0.07 v 0.41 l -0.07,0.07 c -0.68,-0.04 -1.26,-0.07 -1.77,-0.07 -0.57,0 -1.16,0.03 -1.74,0.07 z m 3.57,-4.4 h 3.97 l -1.98,-4.72 z"
   id="path44" />
		<path
   class="st0"
   d="m 763.54,253.65 0.07,-0.05 c 0.89,0.04 1.51,0.05 1.85,0.05 l 3.65,-0.07 c 1.05,0 1.9,0.09 2.57,0.3 0.67,0.2 1.26,0.54 1.78,1 0.53,0.5 0.92,1.06 1.2,1.7 0.27,0.64 0.39,1.32 0.39,2.05 0,0.71 -0.11,1.39 -0.37,2.09 -0.25,0.69 -0.6,1.29 -1.04,1.84 -0.46,0.55 -0.98,0.99 -1.55,1.33 -0.58,0.33 -1.17,0.56 -1.74,0.67 -0.57,0.12 -1.17,0.18 -1.78,0.18 -0.41,0 -1.17,-0.02 -2.3,-0.05 -0.38,0 -0.63,-0.02 -0.75,-0.02 -0.34,0 -0.79,0.03 -1.29,0.07 l -0.08,-0.07 v -0.26 l 0.08,-0.08 c 0.3,-0.15 0.48,-0.25 0.53,-0.3 0.04,-0.03 0.08,-0.49 0.09,-1.36 0.04,-0.88 0.06,-1.54 0.06,-2 v -2.87 l -0.02,-1.77 c 0,-0.39 0,-0.71 -0.01,-0.95 -0.01,-0.24 -0.03,-0.41 -0.05,-0.52 -0.03,-0.11 -0.07,-0.16 -0.09,-0.22 -0.04,-0.03 -0.08,-0.07 -0.16,-0.1 -0.08,-0.04 -0.2,-0.07 -0.39,-0.08 l -0.58,-0.04 -0.07,-0.07 z m 2.89,10.21 c 0.53,0.12 1.15,0.16 1.85,0.16 1.21,0 2.17,-0.2 2.92,-0.61 0.72,-0.41 1.26,-1.01 1.63,-1.79 0.35,-0.82 0.54,-1.7 0.54,-2.7 0,-1.48 -0.41,-2.64 -1.2,-3.45 -0.79,-0.81 -2.04,-1.21 -3.71,-1.21 -0.72,0 -1.39,0.04 -2.04,0.15 -0.03,0.86 -0.05,1.82 -0.05,2.89 v 2.47 l 0.01,2.29 c 0.01,0.45 0.04,1.05 0.05,1.8 z"
   id="path46" />
		<path
   class="st0"
   d="m 779.46,259.26 c 0,-0.78 0.12,-1.51 0.33,-2.2 0.25,-0.67 0.61,-1.31 1.16,-1.88 0.53,-0.58 1.21,-1.03 1.96,-1.34 0.76,-0.32 1.62,-0.48 2.6,-0.48 1.77,0 3.18,0.49 4.24,1.46 1.04,0.97 1.58,2.3 1.58,3.97 0,1.18 -0.27,2.24 -0.77,3.17 -0.5,0.94 -1.25,1.67 -2.23,2.2 -0.95,0.52 -2.04,0.78 -3.25,0.78 -0.84,0 -1.62,-0.14 -2.34,-0.43 -0.71,-0.29 -1.32,-0.72 -1.82,-1.28 -0.5,-0.56 -0.87,-1.21 -1.1,-1.96 -0.23,-0.72 -0.36,-1.39 -0.36,-2.01 z m 1.64,-0.51 c 0,0.63 0.11,1.32 0.3,2.05 0.22,0.74 0.5,1.36 0.94,1.89 0.41,0.53 0.88,0.91 1.41,1.17 0.53,0.26 1.14,0.39 1.83,0.39 0.79,0 1.52,-0.19 2.15,-0.57 0.64,-0.37 1.12,-0.94 1.46,-1.71 0.33,-0.79 0.49,-1.67 0.49,-2.63 0,-1.06 -0.19,-2.01 -0.57,-2.86 -0.37,-0.85 -0.91,-1.47 -1.6,-1.86 -0.69,-0.37 -1.47,-0.58 -2.3,-0.58 -1.28,0 -2.28,0.39 -3.02,1.2 -0.73,0.78 -1.09,1.95 -1.09,3.51 z"
   id="path48" />
		<path
   class="st0"
   d="m 795.69,261.97 0.05,-0.07 h 0.37 l 0.07,0.07 c 0.04,0.67 0.07,1.07 0.12,1.22 0.04,0.15 0.18,0.3 0.41,0.46 0.25,0.17 0.56,0.31 0.97,0.41 0.38,0.11 0.79,0.15 1.2,0.15 0.54,0 1.05,-0.1 1.48,-0.29 0.45,-0.2 0.79,-0.51 1.05,-0.9 0.23,-0.4 0.36,-0.85 0.36,-1.33 0,-0.35 -0.07,-0.65 -0.17,-0.9 -0.13,-0.26 -0.3,-0.46 -0.52,-0.61 -0.22,-0.16 -0.45,-0.26 -0.72,-0.34 -0.26,-0.08 -0.66,-0.16 -1.21,-0.26 -0.53,-0.07 -0.92,-0.16 -1.22,-0.22 -0.28,-0.07 -0.6,-0.18 -0.88,-0.31 -0.29,-0.13 -0.53,-0.33 -0.73,-0.54 -0.19,-0.21 -0.35,-0.48 -0.46,-0.8 -0.12,-0.32 -0.16,-0.66 -0.16,-1.01 0,-0.96 0.31,-1.78 0.99,-2.41 0.69,-0.63 1.6,-0.94 2.75,-0.94 0.45,0 0.94,0.07 1.48,0.17 0.54,0.12 1.02,0.28 1.47,0.5 l 0.06,0.09 c -0.13,0.49 -0.19,1.17 -0.21,2.05 l -0.08,0.07 h -0.39 l -0.08,-0.05 c -0.01,-0.63 -0.03,-1.02 -0.05,-1.19 -0.02,-0.16 -0.26,-0.35 -0.71,-0.59 -0.45,-0.26 -0.94,-0.37 -1.48,-0.37 -0.45,0 -0.84,0.1 -1.24,0.28 -0.39,0.18 -0.69,0.45 -0.88,0.83 -0.19,0.38 -0.3,0.77 -0.3,1.18 0,0.29 0.07,0.58 0.18,0.81 0.12,0.24 0.29,0.43 0.46,0.56 0.19,0.14 0.42,0.25 0.68,0.3 0.26,0.08 0.71,0.16 1.4,0.26 0.91,0.12 1.58,0.28 2,0.47 0.42,0.19 0.75,0.48 1.02,0.88 0.24,0.39 0.38,0.89 0.38,1.45 0,1.1 -0.46,2.04 -1.36,2.77 -0.91,0.75 -2.03,1.12 -3.3,1.12 -1.06,0 -2.03,-0.2 -2.84,-0.58 l -0.04,-0.11 c 0,-0.32 0.04,-1.07 0.08,-2.28 z"
   id="path50" />
		<path
   class="st0"
   d="m 806.74,266.92 c 0.33,-0.54 0.56,-0.94 0.71,-1.23 0.15,-0.26 0.26,-0.54 0.37,-0.85 0.09,-0.3 0.16,-0.52 0.2,-0.7 0.04,-0.16 0.08,-0.49 0.15,-1.01 0.03,-0.01 0.18,-0.04 0.43,-0.1 0.38,-0.09 0.76,-0.21 1.17,-0.37 l 0.19,0.22 c -0.67,1.55 -1.44,2.84 -2.37,3.93 l -0.65,0.29 z"
   id="path52" />
		<path
   class="st0"
   d="M 821.95,253.65 822,253.6 c 0.96,0.04 1.7,0.05 2.24,0.05 0.58,0 1.37,-0.01 2.38,-0.05 0.38,-0.02 0.65,-0.02 0.81,-0.02 1.32,0 2.2,0.24 2.68,0.72 0.46,0.49 0.72,1.04 0.72,1.71 0,0.44 -0.12,0.88 -0.35,1.3 -0.23,0.42 -0.57,0.78 -1.03,1.07 -0.45,0.31 -1.06,0.54 -1.85,0.68 0.15,0.2 0.42,0.57 0.8,1.06 l 1.1,1.47 c 0.37,0.5 0.75,1 1.17,1.54 0.4,0.55 0.68,0.86 0.8,0.93 0.11,0.07 0.21,0.11 0.31,0.12 0.07,0.02 0.21,0.02 0.4,0.02 l 0.07,0.06 v 0.37 l -0.07,0.07 c -0.26,-0.03 -0.56,-0.05 -0.9,-0.05 -0.38,0 -0.77,0.02 -1.22,0.05 -0.35,-0.44 -0.92,-1.2 -1.69,-2.28 -0.9,-1.26 -1.82,-2.41 -2.76,-3.48 l 0.08,-0.24 c 0.27,0.02 0.47,0.02 0.62,0.02 0.91,0 1.6,-0.21 2.13,-0.65 0.5,-0.44 0.75,-1.03 0.75,-1.79 0,-0.69 -0.22,-1.21 -0.67,-1.56 -0.47,-0.35 -1.09,-0.53 -1.88,-0.53 -0.55,0 -1.06,0.07 -1.55,0.23 -0.08,0.12 -0.11,1.09 -0.11,2.94 v 3.61 1.53 c 0,0.61 0.01,0.98 0.05,1.15 0.02,0.16 0.05,0.29 0.1,0.35 0.05,0.05 0.15,0.1 0.31,0.14 0.12,0.04 0.46,0.07 1.03,0.08 l 0.05,0.05 v 0.39 l -0.05,0.07 c -0.03,0 -0.5,-0.02 -1.39,-0.05 -0.37,0 -0.67,-0.02 -0.87,-0.02 -0.16,0 -0.91,0.03 -2.24,0.07 l -0.05,-0.07 v -0.39 l 0.05,-0.05 c 0.47,-0.01 0.81,-0.03 0.98,-0.07 0.15,-0.03 0.27,-0.07 0.31,-0.12 0.05,-0.04 0.11,-0.16 0.15,-0.31 0.03,-0.16 0.04,-0.53 0.04,-1.09 l 0.01,-1.66 v -3.61 l -0.01,-1.54 c -0.02,-0.59 -0.02,-0.96 -0.04,-1.14 -0.03,-0.18 -0.07,-0.3 -0.12,-0.35 -0.04,-0.06 -0.13,-0.1 -0.27,-0.13 -0.13,-0.04 -0.49,-0.07 -1.05,-0.08 l -0.05,-0.07 v -0.4 z"
   id="path54" />
		<path
   class="st0"
   d="m 835.97,253.65 0.07,-0.05 c 1.3,0.04 2.04,0.05 2.26,0.05 0.16,0 0.91,-0.01 2.24,-0.05 l 0.05,0.05 v 0.39 l -0.05,0.07 c -0.37,0.01 -0.65,0.03 -0.84,0.04 -0.19,0.01 -0.34,0.05 -0.42,0.12 -0.09,0.06 -0.15,0.2 -0.18,0.4 -0.03,0.21 -0.04,0.5 -0.04,0.88 l -0.03,1.81 v 3.45 c 0,0.87 0.01,1.48 0.03,1.82 l 0.04,1.37 h 1.59 c 1.28,0 2.07,-0.02 2.38,-0.05 0.32,-0.03 0.62,-0.11 0.92,-0.22 0.05,-0.13 0.14,-0.43 0.24,-0.91 0.11,-0.46 0.16,-0.74 0.16,-0.8 l 0.08,-0.07 h 0.38 l 0.06,0.07 c -0.06,0.21 -0.1,0.61 -0.12,1.21 -0.05,0.6 -0.07,1.08 -0.07,1.45 l -0.08,0.07 c -0.98,-0.04 -2.29,-0.05 -3.89,-0.05 l -2.29,-0.02 c -0.52,0 -1.06,0.03 -1.61,0.07 l -0.07,-0.07 v -0.26 l 0.07,-0.08 c 0.33,-0.18 0.5,-0.26 0.53,-0.3 0.03,-0.03 0.07,-0.38 0.11,-1.02 0.03,-0.63 0.04,-1.4 0.04,-2.3 v -3.35 l -0.01,-1.54 c 0,-0.59 -0.01,-0.96 -0.03,-1.14 -0.03,-0.18 -0.08,-0.3 -0.12,-0.35 -0.04,-0.06 -0.13,-0.1 -0.29,-0.13 -0.13,-0.04 -0.49,-0.07 -1.05,-0.08 l -0.07,-0.07 v -0.41 z"
   id="path56" />
	</g>
	<path
   class="st0"
   d="m 510.64,178.05 v 5.52 l 0.01,5.29 c 0.02,1.98 0.08,3.28 0.18,3.93 0.08,0.65 0.22,1.05 0.39,1.25 0.18,0.19 0.5,0.35 0.98,0.48 0.49,0.15 1.68,0.25 3.63,0.33 l 0.21,0.16 v 1.37 l -0.21,0.2 c -4.59,-0.13 -7.2,-0.2 -7.79,-0.2 -0.59,0 -3.18,0.08 -7.77,0.2 l -0.21,-0.2 V 195 l 0.21,-0.16 c 1.71,-0.08 2.83,-0.18 3.4,-0.27 0.56,-0.11 0.91,-0.26 1.07,-0.44 0.22,-0.19 0.35,-0.54 0.49,-1.09 0.11,-0.54 0.18,-1.78 0.2,-3.69 l 0.03,-5.79 v -12.55 l -0.05,-5.3 c -0.01,-2.05 -0.07,-3.38 -0.16,-3.98 -0.05,-0.59 -0.19,-1.02 -0.37,-1.19 -0.18,-0.22 -0.5,-0.37 -0.99,-0.5 -0.5,-0.14 -1.7,-0.22 -3.61,-0.29 l -0.21,-0.19 v -1.35 l 0.21,-0.2 c 7.66,0.11 12.15,0.16 13.43,0.16 4.33,0 8.72,-0.05 13.25,-0.16 l 0.22,0.2 c -0.27,0.89 -0.49,1.92 -0.56,3.08 -0.08,1.14 -0.18,2.77 -0.31,4.87 l -0.23,0.22 h -1.25 l -0.18,-0.22 c -0.06,-0.12 -0.16,-0.82 -0.25,-2.09 -0.11,-1.01 -0.27,-1.9 -0.45,-2.74 -1.87,-0.63 -4.48,-0.95 -7.79,-0.95 -1.48,0 -3.24,0.11 -5.21,0.33 -0.22,1.41 -0.31,4.85 -0.31,10.31 v 4.68 c 2.28,0.05 3.87,0.05 4.69,0.05 1.55,0 2.87,-0.05 3.97,-0.18 1.1,-0.11 1.77,-0.22 1.97,-0.32 0.23,-0.12 0.41,-0.32 0.52,-0.62 0.12,-0.31 0.22,-0.96 0.34,-1.98 l 0.16,-1.43 0.19,-0.22 h 1.39 l 0.22,0.24 -0.19,5.95 c 0,0.68 0.01,1.68 0.07,2.98 0.1,1.49 0.12,2.64 0.12,3.45 l -0.25,0.22 h -1.36 l -0.19,-0.22 -0.12,-2.32 c -0.04,-0.9 -0.14,-1.54 -0.26,-1.96 -0.14,-0.43 -0.34,-0.69 -0.64,-0.81 -0.27,-0.12 -0.92,-0.23 -1.9,-0.37 -1.01,-0.09 -2.53,-0.15 -4.61,-0.15 -1.84,-0.01 -3.21,0.03 -4.12,0.04 m 24.84,-0.08 -1.07,-0.28 -0.21,-0.28 v -3.37 c 3.22,-2.37 6.36,-3.56 9.42,-3.56 2.08,0 3.77,0.39 5.18,1.15 1.36,0.78 2.35,1.75 2.97,2.92 0.6,1.18 0.93,2.53 0.93,4.08 l -0.14,5.46 v 8.09 c 0,1.1 0.05,1.77 0.23,2 0.15,0.24 0.33,0.39 0.53,0.48 0.18,0.08 0.55,0.14 1.1,0.19 l 1.55,0.14 0.21,0.24 v 1.09 l -0.21,0.22 c -1.32,-0.11 -2.54,-0.18 -3.68,-0.18 -1.1,0 -2.38,0.07 -3.9,0.18 l -0.41,-0.4 0.08,-4.36 -5.9,4.61 c -0.99,0.43 -2.07,0.61 -3.25,0.61 -1.45,0 -2.69,-0.25 -3.75,-0.77 -1.03,-0.52 -1.82,-1.25 -2.38,-2.2 -0.56,-0.92 -0.83,-2.06 -0.83,-3.4 0,-2.65 0.83,-4.74 2.49,-6.25 1.67,-1.5 6.21,-2.75 13.62,-3.79 0,-2.68 -0.57,-4.58 -1.77,-5.67 -1.21,-1.09 -2.8,-1.64 -4.81,-1.64 -1.06,0 -2.01,0.14 -2.88,0.46 -0.84,0.31 -1.35,0.57 -1.46,0.75 -0.15,0.18 -0.63,1.29 -1.47,3.32 z m 12.57,4.28 c -5.06,0.85 -8.2,1.77 -9.47,2.73 -1.24,0.98 -1.85,2.5 -1.85,4.55 0,2.82 1.4,4.23 4.2,4.23 2.4,0 4.78,-1.39 7.12,-4.17 z m 2.83,-25.69 -7.95,10.15 -0.37,0.12 -0.8,-0.42 -0.07,-0.36 4.14,-9.47 4.24,-0.79 0.34,0.08 z m 7.88,18.5 v -0.71 l 0.18,-0.27 c 1.71,-0.65 3.08,-1.22 4.14,-1.77 0,-4.71 -0.07,-7.45 -0.18,-8.25 1.86,-0.65 3.4,-1.36 4.58,-2.09 l 0.67,0.55 c -0.19,1.14 -0.39,4.44 -0.67,9.93 0.91,0.01 1.88,0.04 2.94,0.04 2.13,0 3.65,-0.08 4.61,-0.18 l 0.18,0.19 -0.5,2.28 -0.23,0.24 c -0.91,-0.02 -1.95,-0.04 -3.06,-0.04 -1.02,0 -2.31,0.02 -3.93,0.04 l -0.15,11.04 c 0,2.55 0.06,4.23 0.16,5.01 0.12,0.79 0.45,1.41 0.99,1.85 0.53,0.43 1.32,0.67 2.37,0.67 1.21,0 2.34,-0.33 3.38,-0.95 l 0.63,0.98 c -0.42,0.31 -1.46,1.2 -3.1,2.72 -0.95,0.41 -1.89,0.64 -2.89,0.64 -4.06,0 -6.12,-1.98 -6.12,-5.91 0,-1.46 0.04,-2.67 0.12,-3.7 0.01,-0.3 0.03,-0.62 0.03,-0.94 v -11.27 h -1.12 c -0.81,0 -1.74,0.05 -2.77,0.12 z m 24.69,-16.7 c 0.86,0 1.58,0.3 2.17,0.91 0.6,0.61 0.88,1.33 0.88,2.16 0,0.83 -0.29,1.55 -0.88,2.15 -0.6,0.59 -1.32,0.9 -2.17,0.9 -0.83,0 -1.58,-0.29 -2.16,-0.9 -0.59,-0.58 -0.9,-1.32 -0.9,-2.16 0,-0.83 0.31,-1.55 0.9,-2.16 0.58,-0.6 1.33,-0.9 2.16,-0.9 m 2.31,12.13 0.5,0.35 c -0.19,2.37 -0.29,5.38 -0.29,9.06 v 6.12 c 0,0.39 0.04,1.68 0.1,3.83 0.07,2.17 0.15,3.43 0.23,3.78 0.1,0.37 0.21,0.64 0.37,0.79 0.16,0.18 0.35,0.27 0.6,0.33 0.23,0.03 1.22,0.11 2.92,0.22 l 0.26,0.22 v 1.16 l -0.22,0.23 c -2.27,-0.13 -4.44,-0.2 -6.55,-0.2 -2.06,0 -4.24,0.08 -6.5,0.2 l -0.24,-0.23 v -1.16 l 0.24,-0.22 c 1.74,-0.11 2.73,-0.18 2.96,-0.25 0.23,-0.05 0.43,-0.16 0.61,-0.33 0.15,-0.19 0.27,-0.43 0.33,-0.79 0.1,-0.35 0.16,-1.51 0.23,-3.49 0.08,-1.98 0.13,-3.51 0.13,-4.51 v -5.35 c 0,-0.72 -0.05,-1.71 -0.13,-2.95 -0.07,-1.25 -0.12,-2.03 -0.16,-2.32 -0.04,-0.29 -0.2,-0.49 -0.41,-0.63 -0.25,-0.14 -0.72,-0.2 -1.43,-0.2 l -2.28,-0.02 -0.23,-0.22 v -1.19 l 0.21,-0.19 c 3.47,-0.41 6.39,-1.08 8.75,-2.04 m 16.02,0 0.52,0.35 c -0.1,1.2 -0.18,2.62 -0.22,4.29 l 2.6,-2.36 c 0.72,-0.67 1.2,-1.1 1.41,-1.29 0.25,-0.2 0.8,-0.41 1.69,-0.67 0.84,-0.25 1.77,-0.37 2.73,-0.37 1.79,0 3.38,0.44 4.74,1.35 1.36,0.88 2.37,2.13 3,3.69 2.46,-2.3 3.89,-3.6 4.29,-3.85 0.39,-0.24 1.05,-0.5 1.92,-0.76 0.9,-0.27 1.79,-0.39 2.68,-0.39 1.44,0 2.72,0.28 3.92,0.92 1.21,0.61 2.15,1.41 2.85,2.41 0.72,0.99 1.13,2.07 1.25,3.23 0.13,1.16 0.16,2.75 0.16,4.77 v 2.85 c 0,0.3 0.07,2.57 0.18,6.75 0.03,1.71 0.22,2.75 0.57,3.06 0.33,0.33 1.46,0.48 3.33,0.48 l 0.22,0.22 v 1.18 l -0.22,0.2 c -2.3,-0.13 -3.85,-0.2 -4.66,-0.2 -0.47,0 -1.77,0.08 -3.94,0.2 l -0.34,-0.3 c 0.22,-2.34 0.34,-5.42 0.34,-9.19 v -3.26 c 0,-2.88 -0.15,-4.88 -0.39,-6.03 -0.29,-1.14 -0.93,-2.09 -1.92,-2.84 -0.98,-0.72 -2.16,-1.09 -3.55,-1.09 -0.98,0 -1.89,0.18 -2.75,0.57 -0.86,0.39 -1.6,0.98 -2.28,1.75 -0.69,0.77 -1.06,1.49 -1.12,2.13 -0.09,0.68 -0.15,1.89 -0.15,3.67 v 3.37 c 0,0.82 0.06,2.3 0.15,4.48 0.05,2.19 0.14,3.47 0.22,3.83 0.07,0.35 0.2,0.61 0.37,0.76 0.18,0.16 0.38,0.26 0.6,0.31 0.23,0.03 1.19,0.11 2.91,0.22 l 0.26,0.22 v 1.16 l -0.22,0.23 c -2.27,-0.13 -4.43,-0.2 -6.54,-0.2 -1.95,0 -4.12,0.08 -6.53,0.2 l -0.23,-0.23 v -1.16 l 0.23,-0.22 c 1.76,-0.11 2.73,-0.18 2.98,-0.25 0.23,-0.05 0.42,-0.16 0.6,-0.33 0.18,-0.19 0.29,-0.43 0.35,-0.79 0.07,-0.35 0.13,-1.51 0.22,-3.49 0.08,-1.98 0.12,-3.51 0.12,-4.51 v -3.09 c 0,-2.04 -0.15,-3.63 -0.41,-4.72 -0.3,-1.11 -0.88,-2.05 -1.81,-2.81 -0.94,-0.75 -2.09,-1.13 -3.49,-1.13 -1.07,0 -2.07,0.2 -2.96,0.64 -0.91,0.42 -1.64,0.95 -2.2,1.58 -0.57,0.61 -0.92,1.2 -1.05,1.75 -0.13,0.52 -0.2,1.72 -0.2,3.53 v 4.01 c 0,0.82 0.03,2.3 0.11,4.48 0.08,2.19 0.13,3.47 0.22,3.83 0.08,0.35 0.22,0.61 0.38,0.76 0.18,0.16 0.37,0.26 0.6,0.31 0.23,0.03 1.21,0.11 2.94,0.22 l 0.22,0.22 v 1.16 l -0.22,0.23 c -2.24,-0.13 -4.42,-0.2 -6.52,-0.2 -2.07,0 -4.27,0.08 -6.54,0.2 l -0.22,-0.23 v -1.16 l 0.22,-0.22 c 1.78,-0.11 2.77,-0.18 2.99,-0.25 0.23,-0.05 0.42,-0.16 0.6,-0.33 0.18,-0.19 0.29,-0.43 0.35,-0.79 0.08,-0.35 0.14,-1.51 0.21,-3.49 0.1,-1.98 0.14,-3.51 0.14,-4.51 v -5.35 c 0,-0.72 -0.04,-1.71 -0.11,-2.95 -0.07,-1.25 -0.14,-2.03 -0.16,-2.32 -0.05,-0.29 -0.19,-0.49 -0.44,-0.63 -0.23,-0.14 -0.71,-0.2 -1.4,-0.2 l -2.28,-0.02 -0.27,-0.22 v -1.19 l 0.24,-0.19 c 3.44,-0.36 6.35,-1.03 8.71,-1.99 m 44.85,7.48 -1.07,-0.28 -0.2,-0.28 v -3.37 c 3.22,-2.37 6.33,-3.56 9.39,-3.56 2.08,0 3.8,0.39 5.18,1.15 1.36,0.78 2.39,1.75 2.98,2.93 0.63,1.17 0.94,2.52 0.94,4.07 l -0.13,5.46 v 8.09 c 0,1.1 0.08,1.77 0.21,2 0.16,0.24 0.33,0.39 0.54,0.48 0.2,0.08 0.56,0.14 1.13,0.19 l 1.52,0.14 0.23,0.24 v 1.09 l -0.23,0.22 c -1.3,-0.11 -2.54,-0.18 -3.68,-0.18 -1.09,0 -2.4,0.07 -3.91,0.18 l -0.39,-0.4 0.1,-4.36 -5.9,4.61 c -1.02,0.42 -2.11,0.61 -3.29,0.61 -1.44,0 -2.67,-0.25 -3.72,-0.77 -1.02,-0.52 -1.85,-1.25 -2.39,-2.2 -0.54,-0.92 -0.83,-2.06 -0.83,-3.4 0,-2.65 0.83,-4.74 2.51,-6.25 1.66,-1.5 6.2,-2.75 13.62,-3.79 0,-2.68 -0.6,-4.58 -1.81,-5.67 -1.17,-1.09 -2.79,-1.64 -4.75,-1.64 -1.09,0 -2.04,0.14 -2.9,0.46 -0.84,0.31 -1.36,0.57 -1.47,0.75 -0.14,0.18 -0.64,1.29 -1.48,3.32 z m 12.59,4.28 c -5.07,0.85 -8.21,1.77 -9.47,2.73 -1.24,0.98 -1.86,2.5 -1.86,4.55 0,2.81 1.39,4.23 4.2,4.23 2.42,0 4.78,-1.39 7.14,-4.17 v -7.34 z m 35.17,-4.2 v 5.52 l 0.04,5.29 c 0.01,1.98 0.07,3.28 0.14,3.93 0.1,0.65 0.24,1.05 0.42,1.25 0.16,0.19 0.49,0.35 0.98,0.48 0.49,0.15 1.7,0.25 3.62,0.33 l 0.21,0.16 v 1.37 l -0.21,0.2 c -4.59,-0.13 -7.19,-0.2 -7.79,-0.2 -0.57,0 -3.18,0.08 -7.77,0.2 l -0.21,-0.2 V 195 l 0.21,-0.16 c 1.7,-0.08 2.84,-0.18 3.38,-0.27 0.57,-0.11 0.92,-0.26 1.11,-0.44 0.19,-0.19 0.34,-0.54 0.46,-1.09 0.11,-0.54 0.19,-1.78 0.2,-3.69 l 0.03,-5.79 v -12.55 l -0.05,-5.3 c 0,-2.05 -0.07,-3.38 -0.15,-3.98 -0.08,-0.59 -0.21,-1.02 -0.37,-1.19 -0.21,-0.22 -0.52,-0.37 -0.99,-0.5 -0.5,-0.14 -1.71,-0.22 -3.63,-0.29 l -0.21,-0.19 v -1.35 l 0.21,-0.2 c 7.65,0.11 12.15,0.16 13.43,0.16 4.32,0 8.72,-0.05 13.25,-0.16 l 0.23,0.2 c -0.3,0.89 -0.5,1.92 -0.58,3.08 -0.08,1.14 -0.19,2.77 -0.29,4.87 l -0.23,0.22 h -1.28 l -0.19,-0.22 c -0.03,-0.12 -0.12,-0.82 -0.26,-2.09 -0.05,-1.01 -0.22,-1.92 -0.42,-2.74 -1.88,-0.63 -4.47,-0.95 -7.79,-0.95 -1.49,0 -3.23,0.11 -5.21,0.33 -0.19,1.41 -0.3,4.85 -0.3,10.31 v 4.68 c 2.3,0.05 3.88,0.05 4.7,0.05 1.52,0 2.85,-0.05 3.95,-0.18 1.1,-0.11 1.75,-0.22 2,-0.32 0.21,-0.12 0.37,-0.32 0.48,-0.62 0.14,-0.31 0.24,-0.96 0.35,-1.98 l 0.15,-1.43 0.21,-0.22 h 1.37 l 0.22,0.24 -0.19,5.95 c 0,0.68 0.03,1.68 0.1,2.98 0.07,1.49 0.1,2.64 0.1,3.45 l -0.25,0.22 h -1.34 l -0.21,-0.22 -0.11,-2.32 c -0.04,-0.9 -0.15,-1.54 -0.26,-1.96 -0.14,-0.43 -0.36,-0.69 -0.61,-0.81 -0.29,-0.12 -0.94,-0.23 -1.93,-0.37 -1.02,-0.09 -2.54,-0.15 -4.61,-0.15 -1.81,-0.01 -3.19,0.03 -4.11,0.04 m 29.5,-7.56 0.52,0.35 c -0.11,1.06 -0.19,2.92 -0.24,5.61 l 2.04,-2.6 c 0.64,-0.85 1.24,-1.49 1.78,-1.95 0.52,-0.48 1.12,-0.83 1.79,-1.09 0.71,-0.25 1.41,-0.37 2.09,-0.37 0.83,0 1.56,0.16 2.27,0.5 l 0.22,0.37 c -0.3,2.42 -0.48,4.53 -0.5,6.36 h -1.23 c -0.71,-1.67 -1.88,-2.51 -3.49,-2.51 -1.11,0 -2.08,0.37 -2.92,1.08 -0.84,0.72 -1.4,1.6 -1.68,2.69 -0.26,1.07 -0.41,2.43 -0.41,4.07 v 3.02 c 0,0.53 0.03,1.88 0.11,3.99 0.07,2.11 0.14,3.34 0.22,3.66 0.08,0.33 0.22,0.56 0.38,0.72 0.19,0.15 0.39,0.25 0.68,0.3 0.29,0.05 1.58,0.15 3.87,0.27 l 0.24,0.22 v 1.16 l -0.24,0.23 c -2.39,-0.13 -4.93,-0.2 -7.53,-0.2 -2.09,0 -4.27,0.08 -6.52,0.2 l -0.25,-0.23 v -1.16 l 0.25,-0.22 c 1.75,-0.11 2.74,-0.18 2.98,-0.25 0.22,-0.05 0.41,-0.16 0.6,-0.33 0.16,-0.19 0.27,-0.43 0.35,-0.79 0.05,-0.35 0.13,-1.51 0.2,-3.49 0.1,-1.98 0.14,-3.51 0.14,-4.51 v -5.35 c 0,-0.72 -0.04,-1.71 -0.14,-2.95 -0.04,-1.25 -0.12,-2.03 -0.18,-2.32 -0.03,-0.29 -0.18,-0.49 -0.39,-0.63 -0.23,-0.14 -0.71,-0.2 -1.4,-0.2 l -2.3,-0.02 -0.24,-0.22 v -1.19 l 0.22,-0.19 c 3.44,-0.4 6.35,-1.07 8.71,-2.03 m 35.53,21.88 -0.87,1.94 c -1.89,1.22 -3.57,2.01 -5.03,2.36 -1.49,0.35 -2.81,0.55 -3.95,0.55 -2.19,0 -4.23,-0.41 -6.17,-1.28 -1.94,-0.86 -3.52,-2.28 -4.76,-4.31 -1.24,-2.04 -1.82,-4.46 -1.82,-7.33 0,-1.92 0.23,-3.61 0.71,-5.15 0.45,-1.52 0.95,-2.65 1.46,-3.41 0.53,-0.73 1.39,-1.56 2.65,-2.46 1.24,-0.9 2.52,-1.62 3.89,-2.17 1.36,-0.53 2.87,-0.82 4.46,-0.82 2.17,0 4.06,0.52 5.75,1.54 1.65,1.02 2.8,2.32 3.48,3.91 0.67,1.6 0.99,3.3 0.99,5.08 0,0.58 -0.03,1.1 -0.07,1.63 l -0.3,0.3 c -1.25,0.28 -2.91,0.45 -4.97,0.54 -2.08,0.1 -3.45,0.12 -4.1,0.12 h -8.74 c 0.06,3.76 0.98,6.52 2.84,8.3 1.83,1.76 4.09,2.64 6.77,2.64 1.26,0 2.49,-0.2 3.64,-0.65 1.2,-0.42 2.41,-1.03 3.72,-1.81 z m -17.41,-11.1 c 0.33,0.05 1.58,0.12 3.78,0.19 2.17,0.07 3.78,0.11 4.84,0.11 2.5,0 4.02,-0.03 4.58,-0.13 0.01,-0.42 0.03,-0.76 0.03,-1.01 0,-2.79 -0.59,-4.89 -1.71,-6.26 -1.14,-1.36 -2.68,-2.03 -4.67,-2.03 -2.12,0 -3.81,0.76 -5.03,2.3 -1.19,1.54 -1.82,3.81 -1.82,6.83 m 27.86,-22.91 c 0.86,0 1.58,0.3 2.15,0.91 0.63,0.61 0.93,1.33 0.93,2.16 0,0.83 -0.3,1.55 -0.93,2.15 -0.57,0.59 -1.29,0.9 -2.15,0.9 -0.83,0 -1.55,-0.29 -2.16,-0.9 -0.6,-0.58 -0.92,-1.32 -0.92,-2.16 0,-0.83 0.33,-1.55 0.92,-2.16 0.61,-0.6 1.33,-0.9 2.16,-0.9 m 2.31,12.13 0.48,0.35 c -0.17,2.37 -0.27,5.38 -0.27,9.06 v 6.12 c 0,0.39 0.04,1.68 0.12,3.83 0.05,2.17 0.13,3.43 0.22,3.78 0.09,0.37 0.22,0.64 0.37,0.79 0.16,0.18 0.37,0.27 0.58,0.33 0.25,0.03 1.24,0.11 2.94,0.22 l 0.26,0.22 v 1.16 l -0.23,0.23 c -2.26,-0.13 -4.43,-0.2 -6.54,-0.2 -2.08,0 -4.26,0.08 -6.5,0.2 l -0.25,-0.23 v -1.16 l 0.25,-0.22 c 1.74,-0.11 2.73,-0.18 2.96,-0.25 0.22,-0.05 0.41,-0.16 0.58,-0.33 0.19,-0.19 0.29,-0.43 0.36,-0.79 0.08,-0.35 0.15,-1.51 0.23,-3.49 0.07,-1.98 0.11,-3.51 0.11,-4.51 v -5.35 c 0,-0.72 -0.04,-1.71 -0.11,-2.95 -0.07,-1.25 -0.12,-2.03 -0.16,-2.32 -0.04,-0.29 -0.19,-0.49 -0.42,-0.63 -0.24,-0.14 -0.71,-0.2 -1.41,-0.2 l -2.28,-0.02 -0.24,-0.22 v -1.19 l 0.2,-0.19 c 3.45,-0.41 6.37,-1.08 8.75,-2.04 m 7.28,4.57 v -0.71 l 0.21,-0.27 c 1.69,-0.65 3.06,-1.22 4.12,-1.77 0,-4.71 -0.08,-7.45 -0.16,-8.25 1.88,-0.65 3.4,-1.36 4.58,-2.09 l 0.65,0.55 c -0.18,1.14 -0.41,4.44 -0.65,9.93 0.91,0.01 1.88,0.04 2.94,0.04 2.12,0 3.65,-0.08 4.59,-0.18 l 0.18,0.19 -0.49,2.28 -0.24,0.24 c -0.92,-0.02 -1.94,-0.04 -3.07,-0.04 -0.99,0 -2.31,0.02 -3.9,0.04 l -0.16,11.04 c 0,2.55 0.07,4.23 0.18,5.01 0.11,0.79 0.45,1.41 0.99,1.85 0.53,0.43 1.3,0.67 2.36,0.67 1.21,0 2.32,-0.33 3.37,-0.95 l 0.65,0.98 c -0.44,0.31 -1.47,1.2 -3.13,2.72 -0.92,0.41 -1.88,0.64 -2.88,0.64 -4.08,0 -6.1,-1.98 -6.1,-5.91 0,-1.46 0.03,-2.67 0.1,-3.7 0.04,-0.3 0.04,-0.62 0.04,-0.94 v -11.27 h -1.12 c -0.83,0 -1.77,0.05 -2.8,0.12 z m 22.63,2.91 -1.05,-0.28 -0.23,-0.28 v -3.37 c 3.22,-2.37 6.36,-3.56 9.41,-3.56 2.09,0 3.79,0.39 5.18,1.15 1.37,0.78 2.38,1.75 2.98,2.93 0.63,1.17 0.94,2.52 0.94,4.07 l -0.14,5.46 v 8.09 c 0,1.1 0.07,1.77 0.24,2 0.12,0.24 0.31,0.39 0.5,0.48 0.19,0.08 0.56,0.14 1.12,0.19 l 1.55,0.14 0.21,0.24 v 1.09 l -0.21,0.22 c -1.32,-0.11 -2.54,-0.18 -3.68,-0.18 -1.1,0 -2.41,0.07 -3.9,0.18 l -0.42,-0.4 0.11,-4.36 -5.91,4.61 c -1.01,0.42 -2.11,0.61 -3.25,0.61 -1.47,0 -2.7,-0.25 -3.75,-0.77 -1.04,-0.52 -1.83,-1.25 -2.38,-2.2 -0.55,-0.92 -0.83,-2.06 -0.83,-3.4 0,-2.65 0.83,-4.74 2.47,-6.25 1.67,-1.5 6.21,-2.75 13.64,-3.79 0,-2.68 -0.6,-4.58 -1.79,-5.67 -1.2,-1.09 -2.79,-1.64 -4.8,-1.64 -1.05,0 -2,0.14 -2.87,0.46 -0.83,0.31 -1.36,0.57 -1.48,0.75 -0.12,0.18 -0.61,1.29 -1.46,3.32 z m 12.6,4.28 c -5.05,0.85 -8.21,1.77 -9.47,2.73 -1.25,0.98 -1.88,2.5 -1.88,4.55 0,2.81 1.4,4.23 4.2,4.23 2.43,0 4.8,-1.39 7.15,-4.17 z m 12.19,6.14 h 1.16 l 0.24,0.23 c 0.03,1.52 0.15,2.83 0.29,3.92 0.56,0.84 1.51,1.53 2.9,2.06 1.39,0.54 2.73,0.8 4.06,0.8 1.94,0 3.45,-0.51 4.62,-1.55 1.14,-1.02 1.71,-2.24 1.71,-3.68 0,-0.77 -0.2,-1.45 -0.61,-2.02 -0.44,-0.58 -1.06,-1.05 -1.89,-1.42 -0.86,-0.37 -2.35,-0.8 -4.53,-1.32 -1.88,-0.44 -3.17,-0.76 -3.93,-1.02 -0.73,-0.24 -1.45,-0.65 -2.12,-1.22 -0.69,-0.58 -1.22,-1.3 -1.59,-2.13 -0.35,-0.85 -0.53,-1.78 -0.53,-2.77 0,-2.45 0.95,-4.38 2.88,-5.84 1.93,-1.44 4.34,-2.19 7.23,-2.19 1.2,0 2.52,0.18 3.96,0.52 1.41,0.33 2.5,0.64 3.25,0.97 l 0.23,0.37 c -0.15,0.73 -0.22,2.61 -0.26,5.71 l -0.26,0.25 h -1.06 l -0.26,-0.25 c -0.07,-1.11 -0.19,-1.89 -0.29,-2.32 -0.14,-0.46 -0.46,-0.92 -0.99,-1.46 -0.53,-0.5 -1.28,-0.94 -2.23,-1.29 -0.95,-0.34 -1.96,-0.52 -3.02,-0.52 -1.13,0 -2.04,0.16 -2.8,0.48 -0.76,0.31 -1.36,0.83 -1.82,1.47 -0.46,0.67 -0.69,1.47 -0.69,2.42 0,0.68 0.15,1.3 0.42,1.85 0.29,0.54 0.71,0.97 1.28,1.32 0.58,0.33 1.19,0.57 1.83,0.71 l 2.95,0.77 c 2.54,0.62 4.36,1.14 5.45,1.6 1.09,0.46 1.93,1.14 2.53,2.04 0.6,0.92 0.91,2.04 0.91,3.33 0,2.51 -1.05,4.65 -3.1,6.44 -2.05,1.78 -4.71,2.68 -7.95,2.68 -1.14,0 -2.57,-0.12 -4.23,-0.37 -1.71,-0.27 -3.15,-0.55 -4.36,-0.85 l -0.12,-0.35 0.27,-1.83 c 0.08,-0.55 0.15,-1.12 0.18,-1.69 0,-0.57 0.03,-1.77 0.03,-3.6 z"
   id="path60" />
	<path
   class="st0"
   d="m 516.89,230.71 c -0.67,0.46 -1.33,0.99 -2.04,1.6 -0.27,0.04 -0.57,0.07 -0.87,0.07 -0.71,0 -1.44,-0.16 -2.19,-0.46 -0.72,-0.3 -1.51,-0.78 -2.32,-1.46 -1.07,0.81 -1.99,1.32 -2.71,1.57 -0.73,0.24 -1.52,0.36 -2.34,0.36 -1.67,0 -2.92,-0.5 -3.8,-1.48 -0.87,-0.99 -1.32,-2.13 -1.32,-3.41 0,-2.18 1.29,-3.96 3.85,-5.32 -0.5,-1.18 -0.73,-2.24 -0.73,-3.19 0,-0.39 0.04,-0.77 0.16,-1.12 0.13,-0.35 0.23,-0.62 0.37,-0.82 0.15,-0.19 0.38,-0.42 0.72,-0.72 0.35,-0.31 0.67,-0.6 1.01,-0.87 0.29,-0.25 0.6,-0.43 0.9,-0.54 0.3,-0.11 0.6,-0.17 0.94,-0.17 0.73,0 1.3,0.22 1.69,0.65 0.38,0.42 0.57,0.98 0.57,1.66 0,1.7 -1.2,3.35 -3.56,4.95 0.52,1.05 1.29,2.2 2.34,3.51 1.03,1.3 1.94,2.25 2.72,2.85 0.84,-0.9 1.25,-1.9 1.25,-2.98 0,-0.44 -0.06,-0.8 -0.15,-1.1 -0.1,-0.3 -0.23,-0.5 -0.41,-0.62 -0.15,-0.1 -0.44,-0.15 -0.86,-0.15 -0.45,0 -0.87,-0.01 -1.3,-0.01 l -0.12,-0.16 0.8,-1.16 c 0.49,0.07 1.17,0.11 2.08,0.11 0.49,0 1.22,-0.03 2.19,-0.06 1.01,-0.03 1.93,-0.05 2.8,-0.05 l 0.12,0.11 c -0.12,0.48 -0.2,0.97 -0.23,1.48 l -0.14,0.1 c -0.92,-0.16 -1.94,-0.24 -3.02,-0.24 -0.07,0 -0.18,0 -0.37,0.01 0.1,0.34 0.13,0.72 0.13,1.09 0,1.44 -0.68,2.84 -2.05,4.21 1.49,1.07 2.97,1.61 4.42,1.61 0.22,0 0.38,-0.03 0.54,-0.08 0.15,-0.05 0.39,-0.17 0.73,-0.36 l 0.15,0.08 0.1,0.37 z m -8.22,-0.89 c -1.51,-1.6 -2.6,-2.85 -3.25,-3.76 -0.65,-0.92 -1.29,-1.89 -1.88,-2.96 -0.8,0.58 -1.36,1.16 -1.64,1.74 -0.3,0.58 -0.45,1.18 -0.45,1.8 0,1.12 0.41,2.12 1.21,3 0.83,0.88 1.81,1.31 2.95,1.31 1.04,0.01 2.08,-0.37 3.06,-1.13 z m -3.87,-8.66 c 0.67,-0.47 1.21,-1.03 1.65,-1.66 0.43,-0.64 0.65,-1.24 0.65,-1.82 0,-0.41 -0.12,-0.76 -0.38,-1.11 -0.25,-0.33 -0.56,-0.5 -0.96,-0.5 -0.42,0 -0.8,0.17 -1.12,0.52 -0.31,0.34 -0.47,0.86 -0.47,1.56 0,0.78 0.2,1.78 0.63,3.01 z"
   id="path62" />
	<path
   class="st0"
   d="m 537.46,232.02 -0.12,-0.09 v -0.63 l 0.12,-0.11 c 0.57,0 0.97,-0.03 1.13,-0.08 0.18,-0.05 0.33,-0.16 0.46,-0.33 0.13,-0.15 0.41,-0.67 0.81,-1.55 l 1.29,-2.79 3.3,-7.52 c 0.63,-1.48 1.25,-2.96 1.88,-4.42 h 0.79 l 5.22,12.25 0.71,1.64 c 0.19,0.47 0.43,0.96 0.69,1.51 0.26,0.56 0.45,0.87 0.54,0.97 0.11,0.09 0.23,0.18 0.38,0.23 0.15,0.05 0.49,0.08 1.01,0.08 l 0.11,0.11 v 0.63 l -0.11,0.09 c -0.86,-0.07 -1.64,-0.11 -2.33,-0.11 -1.36,0.04 -2.7,0.08 -4.05,0.11 l -0.1,-0.09 v -0.63 l 0.1,-0.11 c 0.91,-0.02 1.48,-0.05 1.71,-0.11 0.23,-0.07 0.33,-0.2 0.33,-0.42 0,-0.19 -0.04,-0.42 -0.16,-0.71 l -1.49,-3.72 h -7.08 l -1.33,3.12 c -0.23,0.56 -0.36,0.97 -0.36,1.24 0,0.2 0.12,0.35 0.33,0.45 0.22,0.1 0.79,0.16 1.67,0.16 l 0.11,0.11 v 0.63 l -0.1,0.09 c -1.04,-0.05 -1.97,-0.09 -2.76,-0.09 -0.89,0 -1.8,0.03 -2.7,0.09 z m 5.56,-6.84 h 6.18 l -3.07,-7.37 z"
   id="path64" />
	<path
   class="st0"
   d="m 573.69,227.74 0.08,-0.09 h 0.6 l 0.11,0.09 c 0.04,1.03 0.1,1.67 0.16,1.89 0.07,0.24 0.27,0.49 0.65,0.75 0.37,0.26 0.87,0.46 1.48,0.64 0.63,0.16 1.24,0.23 1.86,0.23 0.86,0 1.64,-0.15 2.32,-0.48 0.69,-0.32 1.24,-0.79 1.62,-1.4 0.38,-0.61 0.56,-1.3 0.56,-2.06 0,-0.54 -0.1,-1.02 -0.27,-1.4 -0.19,-0.4 -0.44,-0.72 -0.76,-0.96 -0.33,-0.25 -0.72,-0.42 -1.14,-0.53 -0.41,-0.12 -1.04,-0.26 -1.89,-0.4 -0.8,-0.12 -1.43,-0.24 -1.9,-0.33 -0.46,-0.12 -0.92,-0.29 -1.37,-0.5 -0.46,-0.22 -0.86,-0.52 -1.14,-0.84 -0.31,-0.33 -0.56,-0.75 -0.73,-1.24 -0.19,-0.51 -0.27,-1.03 -0.27,-1.59 0,-1.52 0.52,-2.77 1.58,-3.73 1.06,-0.98 2.49,-1.47 4.27,-1.47 0.71,0 1.47,0.08 2.33,0.27 0.83,0.17 1.57,0.43 2.28,0.77 l 0.07,0.15 c -0.18,0.75 -0.29,1.82 -0.34,3.2 l -0.1,0.09 h -0.64 L 583,218.7 c -0.02,-0.98 -0.04,-1.58 -0.08,-1.84 -0.03,-0.26 -0.41,-0.55 -1.1,-0.95 -0.72,-0.35 -1.48,-0.55 -2.31,-0.55 -0.69,0 -1.33,0.13 -1.94,0.43 -0.6,0.26 -1.04,0.69 -1.37,1.29 -0.31,0.6 -0.46,1.2 -0.46,1.82 0,0.48 0.11,0.91 0.27,1.26 0.19,0.38 0.43,0.67 0.73,0.9 0.3,0.2 0.64,0.37 1.03,0.47 0.41,0.1 1.13,0.24 2.19,0.38 1.43,0.22 2.47,0.45 3.14,0.74 0.65,0.29 1.17,0.76 1.56,1.38 0.41,0.63 0.6,1.39 0.6,2.27 0,1.72 -0.71,3.18 -2.13,4.34 -1.4,1.15 -3.11,1.73 -5.11,1.73 -1.7,0 -3.18,-0.31 -4.45,-0.9 l -0.07,-0.16 c 0.09,-0.5 0.15,-1.7 0.19,-3.57 z"
   id="path66" />
	<path
   class="st0"
   d="m 603.16,227.74 0.09,-0.09 h 0.61 l 0.1,0.09 c 0.03,1.03 0.09,1.67 0.15,1.89 0.08,0.24 0.3,0.49 0.68,0.75 0.35,0.26 0.86,0.46 1.47,0.64 0.61,0.16 1.24,0.23 1.86,0.23 0.86,0 1.63,-0.15 2.34,-0.48 0.68,-0.32 1.21,-0.79 1.59,-1.4 0.38,-0.61 0.56,-1.3 0.56,-2.06 0,-0.54 -0.07,-1.02 -0.24,-1.4 -0.19,-0.4 -0.44,-0.72 -0.77,-0.96 -0.34,-0.25 -0.71,-0.42 -1.13,-0.53 -0.42,-0.12 -1.06,-0.26 -1.89,-0.4 -0.83,-0.12 -1.47,-0.24 -1.92,-0.33 -0.46,-0.12 -0.93,-0.29 -1.39,-0.5 -0.45,-0.22 -0.81,-0.52 -1.13,-0.84 -0.31,-0.33 -0.54,-0.75 -0.73,-1.24 -0.19,-0.51 -0.27,-1.03 -0.27,-1.59 0,-1.52 0.53,-2.77 1.59,-3.73 1.05,-0.98 2.47,-1.47 4.25,-1.47 0.71,0 1.48,0.08 2.31,0.27 0.83,0.17 1.59,0.43 2.27,0.77 l 0.1,0.15 c -0.18,0.75 -0.3,1.82 -0.34,3.2 l -0.1,0.09 h -0.64 l -0.11,-0.09 c 0,-0.98 -0.01,-1.58 -0.07,-1.84 -0.03,-0.26 -0.39,-0.55 -1.12,-0.95 -0.69,-0.35 -1.48,-0.55 -2.31,-0.55 -0.68,0 -1.32,0.13 -1.93,0.43 -0.6,0.26 -1.05,0.69 -1.36,1.29 -0.31,0.6 -0.49,1.2 -0.49,1.82 0,0.48 0.11,0.91 0.3,1.26 0.19,0.38 0.42,0.67 0.75,0.9 0.27,0.2 0.61,0.37 1.02,0.47 0.39,0.1 1.11,0.24 2.18,0.38 1.43,0.22 2.48,0.45 3.14,0.74 0.65,0.29 1.18,0.76 1.58,1.38 0.39,0.63 0.58,1.39 0.58,2.27 0,1.72 -0.71,3.18 -2.13,4.34 -1.4,1.15 -3.11,1.73 -5.12,1.73 -1.67,0 -3.15,-0.31 -4.44,-0.9 L 603,231.32 c 0.06,-0.51 0.13,-1.71 0.16,-3.58 z"
   id="path68" />
	<path
   class="st0"
   d="m 632.46,223.51 c 0,-1.21 0.16,-2.36 0.52,-3.41 0.35,-1.06 0.94,-2.05 1.79,-2.94 0.84,-0.89 1.86,-1.59 3.06,-2.09 1.17,-0.49 2.51,-0.73 4.01,-0.73 2.79,0 5,0.75 6.65,2.27 1.63,1.5 2.46,3.56 2.46,6.16 0,1.86 -0.41,3.5 -1.2,4.97 -0.82,1.46 -1.97,2.6 -3.47,3.42 -1.52,0.81 -3.19,1.22 -5.07,1.22 -1.33,0 -2.56,-0.22 -3.66,-0.66 -1.12,-0.44 -2.07,-1.11 -2.86,-1.98 -0.8,-0.88 -1.37,-1.9 -1.72,-3.06 -0.35,-1.15 -0.51,-2.22 -0.51,-3.17 z m 2.54,-0.8 c 0,0.97 0.15,2.06 0.47,3.19 0.31,1.17 0.8,2.13 1.44,2.97 0.64,0.8 1.38,1.41 2.2,1.81 0.84,0.4 1.79,0.6 2.86,0.6 1.26,0 2.39,-0.3 3.38,-0.87 0.98,-0.58 1.74,-1.47 2.23,-2.68 0.52,-1.23 0.78,-2.6 0.78,-4.12 0,-1.64 -0.29,-3.12 -0.87,-4.46 -0.6,-1.32 -1.43,-2.28 -2.51,-2.89 -1.07,-0.61 -2.29,-0.9 -3.6,-0.9 -1.97,0 -3.53,0.62 -4.66,1.86 -1.15,1.25 -1.72,3.07 -1.72,5.49 z"
   id="path70" />
	<path
   class="st0"
   d="m 684.81,229.86 -0.46,1.15 c -1.81,0.92 -3.74,1.37 -5.79,1.37 -2.94,0 -5.33,-0.83 -7.16,-2.49 -1.83,-1.67 -2.73,-3.86 -2.73,-6.55 0,-1.86 0.43,-3.48 1.36,-4.87 0.91,-1.38 2.13,-2.42 3.63,-3.12 1.51,-0.69 3.2,-1.03 5.04,-1.03 1.1,0 2.18,0.11 3.23,0.34 1.05,0.23 1.93,0.5 2.64,0.82 l 0.1,0.12 c -0.19,0.46 -0.37,1.58 -0.53,3.39 l -0.1,0.09 h -0.57 l -0.1,-0.09 -0.11,-2.07 c -0.6,-0.47 -1.31,-0.85 -2.18,-1.12 -0.83,-0.25 -1.71,-0.39 -2.61,-0.39 -1.39,0 -2.62,0.3 -3.71,0.9 -1.09,0.57 -1.93,1.44 -2.54,2.54 -0.6,1.13 -0.9,2.52 -0.9,4.12 0,1.63 0.35,3.06 1.05,4.28 0.72,1.22 1.68,2.18 2.91,2.84 1.22,0.65 2.66,0.98 4.29,0.98 0.73,0 1.43,-0.05 2.09,-0.22 0.65,-0.12 1.21,-0.29 1.67,-0.5 0.42,-0.19 0.86,-0.45 1.28,-0.73 z"
   id="path72" />
	<path
   class="st0"
   d="m 702.63,214.67 1.52,0.05 c 0.99,0.03 1.66,0.05 1.98,0.05 0.27,0 1.44,-0.03 3.49,-0.09 l 0.1,0.08 v 0.61 l -0.1,0.09 c -0.55,0.01 -1.01,0.03 -1.29,0.07 -0.31,0.03 -0.54,0.09 -0.68,0.18 -0.14,0.09 -0.22,0.3 -0.26,0.63 -0.05,0.33 -0.1,0.79 -0.1,1.38 v 2.81 5.65 2.39 c 0,0.92 0.03,1.49 0.1,1.78 0.01,0.27 0.07,0.44 0.15,0.53 0.08,0.09 0.25,0.16 0.45,0.23 0.23,0.06 0.76,0.11 1.63,0.14 l 0.1,0.07 v 0.62 l -0.1,0.09 c 0,0 -0.76,-0.02 -2.16,-0.07 -0.57,-0.02 -1.02,-0.02 -1.33,-0.02 -0.26,0 -1.41,0.04 -3.51,0.09 l -0.08,-0.09 v -0.62 l 0.08,-0.07 c 0.76,-0.03 1.26,-0.08 1.52,-0.12 0.24,-0.05 0.42,-0.11 0.5,-0.18 0.08,-0.09 0.15,-0.25 0.19,-0.5 0.07,-0.24 0.1,-0.81 0.11,-1.69 v -2.57 -5.65 l -0.03,-2.38 c 0,-0.93 -0.01,-1.53 -0.05,-1.8 -0.03,-0.27 -0.1,-0.45 -0.19,-0.54 -0.07,-0.1 -0.21,-0.16 -0.42,-0.22 -0.23,-0.04 -0.76,-0.09 -1.63,-0.12 l -0.08,-0.09 v -0.61 z"
   id="path74" />
	<path
   class="st0"
   d="m 727.55,232.02 -0.11,-0.09 v -0.63 l 0.11,-0.11 c 0.58,0 0.96,-0.03 1.14,-0.08 0.19,-0.05 0.33,-0.16 0.47,-0.33 0.12,-0.15 0.38,-0.67 0.8,-1.55 l 1.27,-2.79 3.34,-7.52 c 0.63,-1.48 1.24,-2.96 1.85,-4.42 h 0.81 l 5.19,12.25 0.71,1.64 c 0.19,0.47 0.44,0.96 0.71,1.51 0.26,0.56 0.45,0.87 0.54,0.97 0.11,0.09 0.23,0.18 0.38,0.23 0.15,0.05 0.49,0.08 1.01,0.08 l 0.11,0.11 v 0.63 l -0.11,0.09 c -0.86,-0.07 -1.64,-0.11 -2.32,-0.11 -1.36,0.04 -2.72,0.08 -4.06,0.11 l -0.11,-0.09 v -0.63 l 0.11,-0.11 c 0.91,-0.02 1.48,-0.05 1.71,-0.11 0.21,-0.07 0.34,-0.2 0.34,-0.42 0,-0.19 -0.07,-0.42 -0.15,-0.71 l -1.52,-3.72 h -7.07 l -1.32,3.12 c -0.26,0.56 -0.37,0.97 -0.37,1.24 0,0.2 0.11,0.35 0.34,0.45 0.22,0.1 0.76,0.16 1.64,0.16 l 0.11,0.11 v 0.63 l -0.11,0.09 c -1.03,-0.05 -1.96,-0.09 -2.73,-0.09 -0.9,0 -1.81,0.03 -2.71,0.09 z m 5.56,-6.84 h 6.17 l -3.06,-7.37 z"
   id="path76" />
	<path
   class="st0"
   d="m 763.61,214.76 0.08,-0.08 c 1.41,0.07 2.38,0.09 2.89,0.09 l 5.71,-0.12 c 1.62,0 2.96,0.15 3.99,0.46 1.05,0.3 1.97,0.83 2.77,1.59 0.83,0.75 1.43,1.63 1.86,2.62 0.41,1.01 0.61,2.07 0.61,3.19 0,1.09 -0.18,2.18 -0.57,3.27 -0.37,1.07 -0.91,2.04 -1.62,2.88 -0.72,0.84 -1.51,1.54 -2.42,2.05 -0.9,0.53 -1.79,0.87 -2.7,1.06 -0.88,0.17 -1.82,0.25 -2.77,0.25 -0.63,0 -1.83,-0.02 -3.57,-0.07 -0.57,-0.02 -0.96,-0.02 -1.14,-0.02 -0.57,0 -1.25,0.04 -2.05,0.09 l -0.11,-0.09 v -0.41 l 0.11,-0.12 c 0.49,-0.24 0.76,-0.39 0.82,-0.46 0.08,-0.05 0.13,-0.77 0.18,-2.13 0.04,-1.36 0.07,-2.4 0.07,-3.12 v -4.48 l -0.01,-2.79 c 0,-0.58 -0.01,-1.09 -0.01,-1.47 -0.03,-0.37 -0.05,-0.64 -0.08,-0.8 -0.05,-0.17 -0.11,-0.29 -0.15,-0.35 -0.05,-0.06 -0.15,-0.12 -0.26,-0.16 -0.12,-0.05 -0.31,-0.09 -0.6,-0.12 l -0.94,-0.07 -0.08,-0.09 v -0.6 z m 4.49,15.94 c 0.83,0.15 1.78,0.24 2.87,0.24 1.89,0 3.43,-0.31 4.55,-0.96 1.14,-0.63 2,-1.56 2.53,-2.82 0.57,-1.23 0.87,-2.65 0.87,-4.21 0,-2.31 -0.64,-4.09 -1.86,-5.36 -1.21,-1.27 -3.15,-1.9 -5.79,-1.9 -1.1,0 -2.16,0.08 -3.17,0.25 -0.07,1.33 -0.09,2.83 -0.09,4.52 v 3.83 l 0.03,3.59 c 0,0.69 0.02,1.64 0.06,2.82 z"
   id="path78" />
	<path
   class="st0"
   d="m 799.27,223.51 c 0,-1.21 0.15,-2.36 0.5,-3.41 0.37,-1.06 0.96,-2.05 1.82,-2.94 0.83,-0.89 1.85,-1.59 3.03,-2.09 1.18,-0.49 2.53,-0.73 4.04,-0.73 2.76,0 4.99,0.75 6.62,2.27 1.64,1.5 2.46,3.56 2.46,6.16 0,1.86 -0.39,3.5 -1.21,4.97 -0.8,1.46 -1.94,2.6 -3.45,3.42 -1.49,0.81 -3.19,1.22 -5.05,1.22 -1.33,0 -2.57,-0.22 -3.7,-0.66 -1.09,-0.44 -2.05,-1.11 -2.83,-1.98 -0.79,-0.88 -1.34,-1.9 -1.7,-3.06 -0.38,-1.15 -0.53,-2.22 -0.53,-3.17 z m 2.52,-0.8 c 0,0.97 0.15,2.06 0.48,3.19 0.32,1.17 0.81,2.13 1.45,2.97 0.64,0.8 1.36,1.41 2.21,1.81 0.84,0.4 1.78,0.6 2.84,0.6 1.25,0 2.38,-0.3 3.37,-0.87 0.99,-0.58 1.71,-1.47 2.26,-2.68 0.5,-1.23 0.75,-2.6 0.75,-4.12 0,-1.64 -0.29,-3.12 -0.86,-4.46 -0.6,-1.32 -1.43,-2.28 -2.53,-2.89 -1.07,-0.61 -2.26,-0.9 -3.57,-0.9 -1.99,0 -3.55,0.62 -4.69,1.86 -1.14,1.25 -1.71,3.07 -1.71,5.49 z"
   id="path80" />
	<path
   class="st0"
   d="m 835.65,227.74 0.1,-0.09 h 0.6 l 0.1,0.09 c 0.04,1.03 0.11,1.67 0.16,1.89 0.07,0.24 0.3,0.49 0.65,0.75 0.38,0.26 0.87,0.46 1.5,0.64 0.61,0.16 1.24,0.23 1.85,0.23 0.87,0 1.63,-0.15 2.34,-0.48 0.69,-0.32 1.21,-0.79 1.61,-1.4 0.38,-0.61 0.58,-1.3 0.58,-2.06 0,-0.54 -0.1,-1.02 -0.29,-1.4 -0.19,-0.4 -0.43,-0.72 -0.76,-0.96 -0.34,-0.25 -0.71,-0.42 -1.14,-0.53 -0.42,-0.12 -1.04,-0.26 -1.89,-0.4 -0.81,-0.12 -1.46,-0.24 -1.92,-0.33 -0.45,-0.12 -0.92,-0.29 -1.36,-0.5 -0.46,-0.22 -0.83,-0.52 -1.16,-0.84 -0.31,-0.33 -0.53,-0.75 -0.73,-1.24 -0.19,-0.51 -0.27,-1.03 -0.27,-1.59 0,-1.52 0.54,-2.77 1.59,-3.73 1.07,-0.98 2.47,-1.47 4.27,-1.47 0.69,0 1.47,0.08 2.31,0.27 0.83,0.17 1.59,0.43 2.28,0.77 l 0.07,0.15 c -0.16,0.75 -0.26,1.82 -0.33,3.2 l -0.11,0.09 h -0.62 l -0.11,-0.09 c 0,-0.98 -0.03,-1.58 -0.05,-1.84 -0.04,-0.26 -0.42,-0.55 -1.13,-0.95 -0.71,-0.35 -1.47,-0.55 -2.31,-0.55 -0.68,0 -1.32,0.13 -1.94,0.43 -0.58,0.26 -1.05,0.69 -1.37,1.29 -0.29,0.6 -0.45,1.2 -0.45,1.82 0,0.48 0.1,0.91 0.29,1.26 0.18,0.38 0.41,0.67 0.72,0.88 0.3,0.22 0.65,0.38 1.02,0.49 0.42,0.1 1.13,0.24 2.17,0.38 1.46,0.22 2.5,0.45 3.17,0.74 0.64,0.29 1.17,0.76 1.58,1.38 0.38,0.63 0.58,1.39 0.58,2.27 0,1.72 -0.71,3.18 -2.11,4.34 -1.43,1.15 -3.15,1.73 -5.15,1.73 -1.67,0 -3.17,-0.31 -4.44,-0.9 l -0.05,-0.16 c 0.04,-0.51 0.11,-1.71 0.15,-3.58 z"
   id="path82" />
</g>
</svg>
