<?xml version="1.0" encoding="UTF-8"?>
<svg id="Layer_1" data-name="Layer 1" xmlns="http://www.w3.org/2000/svg" viewBox="0 0 358 60">
  <defs>
    <style>
      .cls-1 {
        fill: #0046ad;
      }
    </style>
  </defs>
  <path class="cls-1" d="M310.9,38.18v-4.78h.97l1.53,3.08,1.52-3.08h.98v4.78h-.82v-3.37l-1.35,2.7h-.64l-1.36-2.7v3.36h-.82Z"/>
  <path class="cls-1" d="M317.68,38.18v-4.78h.82v4.78h-.82Z"/>
  <path class="cls-1" d="M320.28,38.18v-4.78h1.71c.38,0,.69.07.94.19.25.13.43.3.55.52.12.22.18.46.18.73,0,.25-.06.49-.18.71-.12.22-.3.39-.55.53-.25.13-.57.2-.96.2h-.87v1.9h-.82ZM321.1,35.68h.84c.3,0,.53-.07.67-.22s.21-.34.21-.58-.07-.43-.21-.57-.37-.21-.68-.21h-.84v1.59ZM322.77,38.18l-1-2.11h.89l1.05,2.11h-.94Z"/>
  <path class="cls-1" d="M325.02,38.18l1.75-4.78h.91l1.75,4.78h-.87l-1.34-3.82-1.34,3.82h-.85ZM325.79,37.06l.22-.65h2.35l.22.65h-2.79Z"/>
  <path class="cls-1" d="M330.9,38.18v-4.78h.82l2.3,3.45v-3.45h.82v4.78h-.82l-2.3-3.45v3.45h-.82Z"/>
  <path class="cls-1" d="M336.62,38.18v-4.78h1.54c.56,0,1.01.1,1.38.29.36.2.63.47.81.83.17.36.26.78.26,1.27s-.09.9-.26,1.26c-.18.36-.44.63-.81.83-.36.2-.82.29-1.38.29h-1.54ZM337.44,37.49h.68c.41,0,.74-.07.98-.2.24-.13.41-.33.51-.58.1-.25.15-.55.15-.9s-.05-.66-.15-.91c-.1-.25-.27-.45-.51-.59-.24-.14-.57-.21-.98-.21h-.68v3.39Z"/>
  <path class="cls-1" d="M341.59,38.18l1.75-4.78h.91l1.75,4.78h-.87l-1.34-3.82-1.34,3.82h-.85ZM342.37,37.06l.22-.65h2.35l.22.65h-2.79Z"/>
  <path class="cls-1" d="M311.27,45.01l1.75-4.78h.91l1.75,4.78h-.87l-1.34-3.82-1.34,3.82h-.85ZM312.05,43.88l.22-.65h2.35l.22.65h-2.79Z"/>
  <path class="cls-1" d="M316.64,45.01v-4.78h.82v4.14h2.13v.64h-2.95Z"/>
  <path class="cls-1" d="M320.7,45.01v-4.78h.82v4.14h2.13v.64h-2.95Z"/>
  <path class="cls-1" d="M324.75,45.01v-4.78h.82v4.78h-.82Z"/>
  <path class="cls-1" d="M326.53,45.01l1.75-4.78h.91l1.75,4.78h-.87l-1.34-3.82-1.34,3.82h-.85ZM327.3,43.88l.22-.65h2.35l.22.65h-2.79Z"/>
  <path class="cls-1" d="M331.9,45.01v-4.78h.82l2.3,3.45v-3.45h.82v4.78h-.82l-2.3-3.45v3.45h-.82Z"/>
  <path class="cls-1" d="M339.22,45.09c-.47,0-.88-.1-1.22-.31s-.61-.5-.79-.87c-.18-.37-.28-.8-.28-1.29s.09-.92.28-1.29c.18-.37.45-.66.79-.87.34-.21.75-.31,1.22-.31.57,0,1.03.14,1.39.42.36.28.59.67.68,1.18h-.9c-.06-.27-.19-.48-.39-.63-.2-.15-.46-.23-.79-.23-.3,0-.56.07-.77.21s-.38.34-.5.6c-.12.26-.17.57-.17.93s.06.67.17.92c.12.26.28.45.5.59s.47.21.77.21c.33,0,.6-.07.79-.21.19-.14.32-.34.39-.6h.9c-.09.48-.32.86-.68,1.14-.36.28-.83.41-1.4.41Z"/>
  <path class="cls-1" d="M342.4,45.01v-4.78h3.09v.66h-2.27v1.37h2.06v.65h-2.06v1.43h2.27v.66h-3.09Z"/>
  <path class="cls-1" d="M344.98,30.7h-1.63s0,0,0,0h-.89c-1.15,0-2.25-.43-3.09-1.2l-5.65-5.18s-.01-.1.04-.1h2.86c.89,0,1.75.33,2.4.94l1.78,1.63-2.08-5.97-1.99-5.7c-.07-.2-.35-.2-.43,0l-4.48,12.86c-.57,1.64-2.12,2.74-3.86,2.74h-.02c-1.74,0-3.29-1.1-3.86-2.74l-4.48-12.85c-.07-.2-.36-.2-.43,0l-5.16,14.83c-.16.46-.59.76-1.07.76h-2.02s-.07-.04-.05-.08l4.67-13.39c.57-1.64,2.12-2.74,3.86-2.74s3.28,1.1,3.86,2.74l4.49,12.85h0s-4.49-12.85-4.49-12.85l4.49,12.85c.07.2.35.2.43,0l4.49-12.86c.57-1.64,2.12-2.74,3.86-2.74s3.28,1.1,3.86,2.74l4.67,13.39s-.01.08-.05.08Z"/>
  <rect class="cls-1" x="300.22" y="14.5" width=".68" height="30.54"/>
  <rect class="cls-1" x="12" y="14.5" width="3.62" height="30.51"/>
  <path class="cls-1" d="M71.08,41.38v3.62h-4.32c-2.65,0-4.81-2.15-4.81-4.81v-14.04h-3.4v-3.26h3.4v-5.73h3.63v5.73h3.48v3.26h-3.48v14.04c0,.65.53,1.18,1.18,1.18h4.32Z"/>
  <path class="cls-1" d="M74.13,45.01v-22.11h3.63v22.11h-3.63Z"/>
  <path class="cls-1" d="M121.26,31.76v13.25h-3.74v-12.18c0-3.68-3-6.68-6.68-6.68s-6.44,2.8-6.64,6.31v12.55h-3.74v-12.18c0-3.68-3-6.68-6.68-6.68s-6.68,3-6.68,6.68v12.18h-3.62v-22.11h3.62v3.63c1.68-2.48,4.53-4.12,7.75-4.12,3.81,0,7.07,2.29,8.54,5.56,1.46-3.27,4.73-5.56,8.53-5.56,5.16,0,9.35,4.2,9.35,9.36Z"/>
  <path class="cls-1" d="M146.71,22.9v22.11h-3.63v-2.68c-2.07,1.96-4.85,3.17-7.92,3.17-6.37,0-11.55-5.18-11.55-11.55s5.18-11.55,11.55-11.55c3.07,0,5.85,1.21,7.92,3.17v-2.68h3.63ZM143.09,33.95c0-4.37-3.55-7.92-7.92-7.92s-7.93,3.55-7.93,7.92,3.56,7.92,7.93,7.92,7.92-3.55,7.92-7.92Z"/>
  <path class="cls-1" d="M196.29,22.46v3.71c-4.65.12-8.41,3.92-8.41,8.6v10.24h-3.62v-22.11h3.62v4.42c1.91-2.7,4.93-4.55,8.41-4.86Z"/>
  <path class="cls-1" d="M220.65,34.85h-19.39c.45,3.94,3.77,7.02,7.83,7.02,3.05,0,5.77-1.71,7.11-4.46l3.26,1.59c-1.95,4.01-5.93,6.5-10.37,6.5-6.37,0-11.55-5.18-11.55-11.55s5.18-11.55,11.55-11.55,11.56,5.18,11.56,11.55v.9ZM216.62,31.59c-1.01-3.21-3.98-5.56-7.52-5.56s-6.52,2.35-7.53,5.56h15.05Z"/>
  <path class="cls-1" d="M223.85,45.01v-22.11h3.63v22.11h-3.63Z"/>
  <path class="cls-1" d="M268.83,22.9v22.11h-3.63v-2.68c-2.07,1.96-4.85,3.17-7.92,3.17-6.37,0-11.55-5.18-11.55-11.55s5.18-11.55,11.55-11.55c3.07,0,5.85,1.21,7.92,3.17v-2.68h3.63ZM265.2,33.95c0-4.37-3.55-7.92-7.92-7.92s-7.93,3.55-7.93,7.92,3.56,7.92,7.93,7.92,7.92-3.55,7.92-7.92Z"/>
  <path class="cls-1" d="M290.45,38.9c-.37,2.94-3.21,6.11-8.55,6.11-3.01,0-5.36-.86-6.99-2.55-1.06-1.1-1.74-2.49-2.03-4.12l-.09-.51,3.57-.68.09.53c.17.97.54,1.77,1.13,2.37.91.94,2.37,1.42,4.33,1.42,3.15,0,4.75-1.51,4.94-3,.18-1.4-.94-2.61-2.86-3.08l-6.74-1.8c-2.67-.91-4.15-3.32-3.68-6,.49-2.82,3.18-5.67,8.07-5.67,2.71,0,4.84.78,6.32,2.32,1.03,1.07,1.66,2.43,1.89,4.04l.02.18-3.59.47-.03-.18c-.08-.59-.32-1.44-.96-2.1-.76-.78-1.99-1.18-3.65-1.18-2.77,0-4.25,1.36-4.49,2.72-.08.46-.13,1.57,1.17,2.01l6.58,1.75c4.31,1.06,5.89,4.26,5.55,6.96Z"/>
  <path class="cls-1" d="M223.85,19.82v-5.33h3.63v5.33h-3.63Z"/>
  <path class="cls-1" d="M74.13,19.82v-5.33h3.63v5.33h-3.63Z"/>
  <path class="cls-1" d="M15.63,14.5h0c0,2,1.62,3.62,3.62,3.62h14.32v-3.62H15.63Z"/>
  <path class="cls-1" d="M15.63,27.98h0c0,2,1.62,3.63,3.62,3.63h9.28v-3.63h-12.9Z"/>
  <rect class="cls-1" x="162.13" y="14.5" width="3.62" height="30.51"/>
  <path class="cls-1" d="M165.75,14.5h0c0,2,1.62,3.62,3.62,3.62h14.32v-3.62h-17.95Z"/>
  <path class="cls-1" d="M165.75,27.98h0c0,2,1.62,3.63,3.62,3.63h9.28v-3.63h-12.9Z"/>
  <path class="cls-1" d="M51.48,25.57c-2.07-1.96-4.85-3.17-7.92-3.17-6.37,0-11.55,5.18-11.55,11.55s5.18,11.55,11.55,11.55c3.07,0,5.85-1.21,7.92-3.17v2.68h3.63v-22.11h-3.63v2.68ZM43.55,41.88c-4.37,0-7.93-3.55-7.93-7.92s3.56-7.92,7.93-7.92,7.92,3.55,7.92,7.92-3.55,7.92-7.92,7.92Z"/>
  <polygon class="cls-1" points="49.36 14.5 45.52 14.5 42.77 19.82 46.61 19.82 49.36 14.5"/>
  <path class="cls-1" d="M243.94,41.38v3.62h-4.32c-2.65,0-4.81-2.15-4.81-4.81v-14.04h-3.4v-3.26h3.4v-5.73h3.63v5.73h3.48v3.26h-3.48v14.04c0,.65.53,1.18,1.18,1.18h4.32Z"/>
</svg>