<?xml version="1.0" encoding="UTF-8"?>
<svg id="Layer_1" xmlns="http://www.w3.org/2000/svg" version="1.1" viewBox="0 0 716 120">
  <!-- Generator: Adobe Illustrator 30.1.0, SVG Export Plug-In . SVG Version: 2.1.1 Build 136)  -->
  <defs>
    <style>
      .st0 {
        fill: #0046ad;
      }
    </style>
  </defs>
  <g>
    <path class="st0" d="M621.81,76.37v-9.55h1.94l3.06,6.17,3.03-6.17h1.95v9.55h-1.64v-6.74l-2.7,5.4h-1.28l-2.71-5.39v6.73h-1.64Z"/>
    <path class="st0" d="M635.36,76.37v-9.55h1.64v9.55h-1.64Z"/>
    <path class="st0" d="M640.56,76.37v-9.55h3.43c.75,0,1.38.13,1.88.39.5.26.86.6,1.11,1.04.24.43.36.92.36,1.47,0,.51-.12.98-.35,1.42-.24.44-.6.79-1.11,1.05-.5.26-1.14.4-1.92.4h-1.75v3.79h-1.64ZM642.2,71.36h1.68c.61,0,1.06-.15,1.34-.44s.43-.68.43-1.17-.14-.85-.42-1.14-.73-.43-1.35-.43h-1.68v3.18ZM645.54,76.37l-2.01-4.22h1.77l2.1,4.22h-1.87Z"/>
    <path class="st0" d="M650.03,76.37l3.49-9.55h1.83l3.49,9.55h-1.73l-2.69-7.64-2.69,7.64h-1.71ZM651.59,74.11l.44-1.3h4.71l.44,1.3h-5.58Z"/>
    <path class="st0" d="M661.8,76.37v-9.55h1.64l4.6,6.91v-6.91h1.64v9.55h-1.64l-4.6-6.89v6.89h-1.64Z"/>
    <path class="st0" d="M673.23,76.37v-9.55h3.08c1.11,0,2.03.2,2.75.59.72.39,1.26.94,1.61,1.66.35.71.52,1.56.52,2.55s-.18,1.8-.52,2.52c-.35.71-.89,1.27-1.61,1.66-.72.39-1.64.59-2.75.59h-3.08ZM674.87,74.98h1.36c.83,0,1.48-.13,1.96-.4.48-.27.82-.65,1.02-1.16.21-.51.31-1.11.31-1.81s-.1-1.32-.31-1.82c-.2-.5-.55-.9-1.02-1.17-.48-.28-1.13-.42-1.96-.42h-1.36v6.78Z"/>
    <path class="st0" d="M683.18,76.37l3.49-9.55h1.83l3.49,9.55h-1.73l-2.69-7.64-2.69,7.64h-1.71ZM684.74,74.11l.44-1.3h4.71l.44,1.3h-5.58Z"/>
    <path class="st0" d="M622.55,90.01l3.49-9.55h1.83l3.49,9.55h-1.73l-2.69-7.64-2.69,7.64h-1.71ZM624.1,87.76l.44-1.3h4.71l.44,1.3h-5.58Z"/>
    <path class="st0" d="M633.29,90.01v-9.55h1.64v8.27h4.26v1.28h-5.9Z"/>
    <path class="st0" d="M641.39,90.01v-9.55h1.64v8.27h4.26v1.28h-5.9Z"/>
    <path class="st0" d="M649.5,90.01v-9.55h1.64v9.55h-1.64Z"/>
    <path class="st0" d="M653.05,90.01l3.49-9.55h1.83l3.49,9.55h-1.73l-2.69-7.64-2.69,7.64h-1.71ZM654.61,87.76l.44-1.3h4.71l.44,1.3h-5.58Z"/>
    <path class="st0" d="M663.79,90.01v-9.55h1.64l4.6,6.91v-6.91h1.64v9.55h-1.64l-4.6-6.89v6.89h-1.64Z"/>
    <path class="st0" d="M678.45,90.18c-.95,0-1.76-.21-2.45-.62s-1.21-.99-1.58-1.73c-.37-.74-.55-1.6-.55-2.57s.18-1.84.55-2.59c.37-.74.9-1.32,1.58-1.74.69-.42,1.5-.63,2.45-.63,1.14,0,2.06.28,2.78.84.72.56,1.17,1.35,1.36,2.37h-1.8c-.13-.54-.39-.96-.78-1.27-.39-.31-.92-.46-1.58-.46-.6,0-1.12.14-1.55.42s-.77.68-1,1.2c-.23.52-.35,1.14-.35,1.86s.12,1.33.35,1.85c.23.51.56.91,1,1.19s.95.42,1.55.42c.66,0,1.19-.14,1.58-.43.39-.29.65-.68.78-1.19h1.8c-.18.96-.63,1.72-1.36,2.27-.72.55-1.65.83-2.79.83Z"/>
    <path class="st0" d="M684.81,90.01v-9.55h6.17v1.33h-4.53v2.74h4.12v1.3h-4.12v2.87h4.53v1.32h-6.17Z"/>
  </g>
  <path class="st0" d="M689.96,61.41h-3.25s0,0,0,0h-1.79c-2.29,0-4.5-.86-6.19-2.41l-11.31-10.36c-.08-.07-.03-.2.08-.2h5.71c1.78,0,3.49.67,4.81,1.87l3.55,3.26-4.16-11.94-3.97-11.41c-.14-.4-.7-.41-.85-.02l-8.96,25.71c-1.14,3.28-4.24,5.48-7.72,5.48h-.04c-3.48,0-6.57-2.2-7.72-5.48l-8.95-25.69c-.14-.41-.72-.41-.86,0l-10.33,29.65c-.32.91-1.18,1.53-2.15,1.53h-4.05c-.08,0-.13-.08-.11-.15l9.35-26.78c1.15-3.28,4.24-5.48,7.71-5.48s6.57,2.2,7.71,5.48l8.97,25.7h0s-8.97-25.7-8.97-25.7l8.97,25.7c.14.4.71.41.85.01l8.97-25.71c1.15-3.28,4.24-5.48,7.71-5.48s6.57,2.2,7.71,5.48l9.35,26.78c.03.07-.03.15-.11.15Z"/>
  <rect class="st0" x="600.44" y="29" width="1.36" height="61.08"/>
  <g>
    <rect class="st0" x="24" y="29" width="7.25" height="61.02"/>
    <path class="st0" d="M142.17,82.76v7.25h-8.65c-5.3,0-9.61-4.31-9.61-9.61v-28.08h-6.81v-6.53h6.81v-11.47h7.25v11.47h6.95v6.53h-6.95v28.08c0,1.3,1.06,2.36,2.36,2.36h8.65Z"/>
    <path class="st0" d="M148.26,90.01v-44.22h7.25v44.22h-7.25Z"/>
    <path class="st0" d="M242.51,63.52v26.49h-7.49v-24.36c0-7.37-6-13.36-13.36-13.36s-12.89,5.6-13.29,12.61v25.11h-7.49v-24.36c0-7.37-6-13.36-13.36-13.36s-13.36,6-13.36,13.36v24.36h-7.25v-44.22h7.25v7.26c3.37-4.97,9.06-8.25,15.5-8.25,7.61,0,14.15,4.59,17.07,11.13,2.92-6.54,9.45-11.13,17.07-11.13,10.32,0,18.71,8.39,18.71,18.71Z"/>
    <path class="st0" d="M293.42,45.79v44.22h-7.25v-5.35c-4.14,3.92-9.71,6.34-15.85,6.34-12.74,0-23.1-10.36-23.1-23.1s10.36-23.1,23.1-23.1c6.13,0,11.71,2.42,15.85,6.34v-5.35h7.25ZM286.17,67.9c0-8.74-7.11-15.85-15.85-15.85s-15.85,7.11-15.85,15.85,7.11,15.85,15.85,15.85,15.85-7.11,15.85-15.85Z"/>
    <path class="st0" d="M392.57,44.91v7.43c-9.31.23-16.81,7.83-16.81,17.19v20.49h-7.25v-44.22h7.25v8.84c3.81-5.4,9.87-9.11,16.81-9.72Z"/>
    <path class="st0" d="M441.29,69.7h-38.78c.91,7.89,7.55,14.05,15.67,14.05,6.09,0,11.55-3.42,14.23-8.92l6.52,3.18c-3.91,8.01-11.86,12.99-20.75,12.99-12.74,0-23.1-10.36-23.1-23.1s10.36-23.1,23.1-23.1,23.11,10.36,23.11,23.1v1.8ZM433.24,63.18c-2.02-6.42-7.97-11.12-15.05-11.12s-13.04,4.7-15.06,11.12h30.11Z"/>
    <path class="st0" d="M447.7,90.01v-44.22h7.25v44.22h-7.25Z"/>
    <path class="st0" d="M537.66,45.79v44.22h-7.25v-5.35c-4.14,3.92-9.71,6.34-15.85,6.34-12.74,0-23.1-10.36-23.1-23.1s10.36-23.1,23.1-23.1c6.13,0,11.71,2.42,15.85,6.34v-5.35h7.25ZM530.41,67.9c0-8.74-7.11-15.85-15.85-15.85s-15.85,7.11-15.85,15.85,7.11,15.85,15.85,15.85,15.85-7.11,15.85-15.85Z"/>
    <path class="st0" d="M580.9,77.8c-.75,5.88-6.42,12.22-17.1,12.22-6.01,0-10.72-1.72-13.98-5.11-2.11-2.2-3.48-4.98-4.06-8.25l-.18-1.02,7.14-1.36.18,1.06c.33,1.94,1.09,3.53,2.25,4.73,1.83,1.89,4.74,2.84,8.65,2.84,6.3,0,9.5-3.01,9.88-5.99.36-2.8-1.89-5.22-5.72-6.17l-13.49-3.6c-5.35-1.82-8.29-6.64-7.36-12,.99-5.65,6.36-11.34,16.15-11.34,5.43,0,9.68,1.56,12.63,4.64,2.05,2.14,3.32,4.86,3.77,8.08l.05.35-7.17.94-.05-.35c-.17-1.18-.64-2.87-1.92-4.19-1.53-1.57-3.99-2.37-7.3-2.37-5.55,0-8.51,2.73-8.98,5.43-.16.91-.25,3.14,2.35,4.03l13.16,3.51c8.62,2.12,11.79,8.52,11.1,13.91Z"/>
    <path class="st0" d="M447.7,39.65v-10.65h7.25v10.65h-7.25Z"/>
    <path class="st0" d="M148.26,39.65v-10.65h7.25v10.65h-7.25Z"/>
    <path class="st0" d="M31.25,29h0c0,4,3.25,7.25,7.25,7.25h28.65v-7.25H31.25Z"/>
    <path class="st0" d="M31.25,55.96h0c0,4.01,3.25,7.25,7.25,7.25h18.56v-7.25h-25.81Z"/>
    <rect class="st0" x="324.26" y="29" width="7.25" height="61.02"/>
    <path class="st0" d="M331.51,29h0c0,4,3.25,7.25,7.25,7.25h28.65v-7.25h-35.9Z"/>
    <path class="st0" d="M331.51,55.96h0c0,4.01,3.25,7.25,7.25,7.25h18.56v-7.25h-25.81Z"/>
    <path class="st0" d="M102.95,51.14c-4.14-3.91-9.71-6.34-15.84-6.34-12.74,0-23.1,10.36-23.1,23.1s10.36,23.09,23.1,23.09c6.14,0,11.71-2.42,15.84-6.34v5.35h7.25v-44.22h-7.25v5.35ZM87.11,83.75c-8.74,0-15.85-7.11-15.85-15.85s7.11-15.85,15.85-15.85,15.84,7.11,15.84,15.85-7.11,15.85-15.84,15.85Z"/>
    <polygon class="st0" points="98.72 29 91.05 29 85.55 39.65 93.22 39.65 98.72 29"/>
    <path class="st0" d="M487.87,82.76v7.25h-8.65c-5.3,0-9.61-4.31-9.61-9.61v-28.08h-6.81v-6.53h6.81v-11.47h7.25v11.47h6.95v6.53h-6.95v28.08c0,1.3,1.06,2.36,2.36,2.36h8.65Z"/>
  </g>
</svg>